Nunito-M1000.ufo
<glyph name="exclam" format="2">
  <advance width="285"/>
  <unicode hex="0021"/>
  <outline>
    <contour>
      <point x="143" y="247" type="curve" smooth="yes"/>
      <point x="184" y="247"/>
      <point x="208" y="274"/>
      <point x="215" y="321" type="curve" smooth="yes"/>
      <point x="252" y="578" type="line" smooth="yes"/>
      <point x="264" y="658"/>
      <point x="223" y="715"/>
      <point x="143" y="715" type="curve" smooth="yes"/>
      <point x="63" y="715"/>
      <point x="21" y="658"/>
      <point x="33" y="578" type="curve" smooth="yes"/>
      <point x="70" y="321" type="line" smooth="yes"/>
      <point x="77" y="274"/>
      <point x="102" y="247"/>
    </contour>
    <contour>
      <point x="143" y="-6" type="curve" smooth="yes"/>
      <point x="213" y="-6"/>
      <point x="254" y="39"/>
      <point x="254" y="104" type="curve" smooth="yes"/>
      <point x="254" y="169"/>
      <point x="213" y="213"/>
      <point x="143" y="213" type="curve" smooth="yes"/>
      <point x="73" y="213"/>
      <point x="31" y="169"/>
      <point x="31" y="104" type="curve" smooth="yes"/>
      <point x="31" y="39"/>
      <point x="73" y="-6"/>
    </contour>
  </outline>
</glyph>
<glyph name="numbersign" format="2">
  <advance width="600"/>
  <unicode hex="0023"/>
  <outline>
    <contour>
      <point x="136" y="-10" type="curve" smooth="yes"/>
      <point x="176" y="-10"/>
      <point x="200" y="9"/>
      <point x="208" y="50" type="curve" smooth="yes"/>
      <point x="228" y="152" type="line"/>
      <point x="292" y="152" type="line"/>
      <point x="275" y="63" type="line" smooth="yes"/>
      <point x="266" y="18"/>
      <point x="287" y="-10"/>
      <point x="331" y="-10" type="curve" smooth="yes"/>
      <point x="371" y="-10"/>
      <point x="395" y="9"/>
      <point x="403" y="50" type="curve" smooth="yes"/>
      <point x="425" y="162" type="line"/>
      <point x="376" y="152" type="line"/>
      <point x="459" y="152" type="line" smooth="yes"/>
      <point x="502" y="152"/>
      <point x="526" y="174"/>
      <point x="526" y="213" type="curve" smooth="yes"/>
      <point x="526" y="252"/>
      <point x="502" y="273"/>
      <point x="459" y="273" type="curve" smooth="yes"/>
      <point x="399" y="273" type="line"/>
      <point x="444" y="261" type="line"/>
      <point x="481" y="451" type="line"/>
      <point x="432" y="440" type="line"/>
      <point x="482" y="440" type="line" smooth="yes"/>
      <point x="525" y="440"/>
      <point x="549" y="462"/>
      <point x="549" y="501" type="curve" smooth="yes"/>
      <point x="549" y="540"/>
      <point x="525" y="561"/>
      <point x="482" y="561" type="curve" smooth="yes"/>
      <point x="456" y="561" type="line"/>
      <point x="501" y="550" type="line"/>
      <point x="519" y="642" type="line" smooth="yes"/>
      <point x="528" y="687"/>
      <point x="507" y="715"/>
      <point x="463" y="715" type="curve" smooth="yes"/>
      <point x="423" y="715"/>
      <point x="398" y="695"/>
      <point x="390" y="655" type="curve" smooth="yes"/>
      <point x="371" y="561" type="line"/>
      <point x="307" y="561" type="line"/>
      <point x="323" y="642" type="line" smooth="yes"/>
      <point x="332" y="687"/>
      <point x="311" y="715"/>
      <point x="268" y="715" type="curve" smooth="yes"/>
      <point x="228" y="715"/>
      <point x="203" y="695"/>
      <point x="195" y="655" type="curve" smooth="yes"/>
      <point x="174" y="550" type="line"/>
      <point x="223" y="561" type="line"/>
      <point x="141" y="561" type="line" smooth="yes"/>
      <point x="98" y="561"/>
      <point x="74" y="540"/>
      <point x="74" y="501" type="curve" smooth="yes"/>
      <point x="74" y="462"/>
      <point x="98" y="440"/>
      <point x="141" y="440" type="curve" smooth="yes"/>
      <point x="200" y="440" type="line"/>
      <point x="155" y="451" type="line"/>
      <point x="118" y="261" type="line"/>
      <point x="187" y="273" type="line"/>
      <point x="118" y="273" type="line" smooth="yes"/>
      <point x="75" y="273"/>
      <point x="51" y="252"/>
      <point x="51" y="213" type="curve" smooth="yes"/>
      <point x="51" y="174"/>
      <point x="75" y="152"/>
      <point x="118" y="152" type="curve" smooth="yes"/>
      <point x="164" y="152" type="line"/>
      <point x="99" y="162" type="line"/>
      <point x="80" y="63" type="line" smooth="yes"/>
      <point x="72" y="19"/>
      <point x="88" y="-10"/>
    </contour>
    <contour>
      <point x="252" y="273" type="line"/>
      <point x="284" y="440" type="line"/>
      <point x="348" y="440" type="line"/>
      <point x="316" y="273" type="line"/>
    </contour>
  </outline>
</glyph>
<glyph name="parenleft" format="2">
  <advance width="434"/>
  <unicode hex="0028"/>
  <outline>
    <contour>
      <point x="225" y="-151" type="curve" smooth="yes"/>
      <point x="276" y="-220"/>
      <point x="411" y="-189"/>
      <point x="371" y="-64" type="curve" smooth="yes"/>
      <point x="333" y="55"/>
      <point x="319" y="145"/>
      <point x="319" y="263" type="curve" smooth="yes"/>
      <point x="319" y="381"/>
      <point x="333" y="471"/>
      <point x="371" y="590" type="curve" smooth="yes"/>
      <point x="411" y="713"/>
      <point x="277" y="748"/>
      <point x="225" y="677" type="curve" smooth="yes"/>
      <point x="130" y="547"/>
      <point x="96" y="408"/>
      <point x="96" y="263" type="curve" smooth="yes"/>
      <point x="96" y="118"/>
      <point x="130" y="-21"/>
    </contour>
  </outline>
</glyph>
<glyph name="parenright" format="2">
  <advance width="434"/>
  <unicode hex="0029"/>
  <outline>
    <contour>
      <point x="209" y="-151" type="curve" smooth="yes"/>
      <point x="305" y="-22"/>
      <point x="338" y="118"/>
      <point x="338" y="263" type="curve" smooth="yes"/>
      <point x="338" y="408"/>
      <point x="304" y="547"/>
      <point x="209" y="677" type="curve" smooth="yes"/>
      <point x="157" y="748"/>
      <point x="23" y="713"/>
      <point x="63" y="590" type="curve" smooth="yes"/>
      <point x="102" y="471"/>
      <point x="115" y="381"/>
      <point x="115" y="263" type="curve" smooth="yes"/>
      <point x="115" y="145"/>
      <point x="101" y="55"/>
      <point x="63" y="-64" type="curve" smooth="yes"/>
      <point x="23" y="-189"/>
      <point x="158" y="-220"/>
    </contour>
  </outline>
</glyph>
<glyph name="asterisk" format="2">
  <advance width="457"/>
  <unicode hex="002A"/>
  <outline>
    <contour>
      <point x="122" y="340" type="curve" smooth="yes"/>
      <point x="159" y="318"/>
      <point x="192" y="333"/>
      <point x="210" y="376" type="curve" smooth="yes"/>
      <point x="240" y="448" type="line"/>
      <point x="217" y="448" type="line"/>
      <point x="246" y="375" type="line" smooth="yes"/>
      <point x="263" y="332"/>
      <point x="296" y="318"/>
      <point x="334" y="340" type="curve" smooth="yes"/>
      <point x="373" y="363"/>
      <point x="377" y="398"/>
      <point x="351" y="434" type="curve" smooth="yes"/>
      <point x="299" y="508" type="line"/>
      <point x="270" y="464" type="line"/>
      <point x="361" y="456" type="line" smooth="yes"/>
      <point x="405" y="452"/>
      <point x="434" y="474"/>
      <point x="434" y="517" type="curve" smooth="yes"/>
      <point x="434" y="560"/>
      <point x="405" y="581"/>
      <point x="361" y="577" type="curve" smooth="yes"/>
      <point x="270" y="569" type="line"/>
      <point x="299" y="524" type="line"/>
      <point x="351" y="598" type="line" smooth="yes"/>
      <point x="377" y="634"/>
      <point x="373" y="670"/>
      <point x="334" y="693" type="curve" smooth="yes"/>
      <point x="296" y="715"/>
      <point x="261" y="700"/>
      <point x="245" y="658" type="curve" smooth="yes"/>
      <point x="217" y="587" type="line"/>
      <point x="240" y="587" type="line"/>
      <point x="212" y="658" type="line" smooth="yes"/>
      <point x="196" y="700"/>
      <point x="161" y="716"/>
      <point x="124" y="694" type="curve" smooth="yes"/>
      <point x="86" y="672"/>
      <point x="80" y="637"/>
      <point x="106" y="599" type="curve" smooth="yes"/>
      <point x="159" y="522" type="line"/>
      <point x="188" y="569" type="line"/>
      <point x="96" y="578" type="line" smooth="yes"/>
      <point x="52" y="582"/>
      <point x="23" y="559"/>
      <point x="23" y="517" type="curve" smooth="yes"/>
      <point x="23" y="474"/>
      <point x="52" y="452"/>
      <point x="96" y="456" type="curve" smooth="yes"/>
      <point x="187" y="464" type="line"/>
      <point x="157" y="508" type="line"/>
      <point x="105" y="434" type="line" smooth="yes"/>
      <point x="79" y="398"/>
      <point x="85" y="362"/>
    </contour>
  </outline>
</glyph>
<glyph name="plus" format="2">
  <advance width="600"/>
  <unicode hex="002B"/>
  <outline>
    <contour>
      <point x="300" y="30" type="curve" smooth="yes"/>
      <point x="346" y="30"/>
      <point x="371" y="56"/>
      <point x="371" y="102" type="curve" smooth="yes"/>
      <point x="371" y="219" type="line"/>
      <point x="485" y="219" type="line" smooth="yes"/>
      <point x="529" y="219"/>
      <point x="554" y="243"/>
      <point x="554" y="287" type="curve" smooth="yes"/>
      <point x="554" y="331"/>
      <point x="529" y="355"/>
      <point x="485" y="355" type="curve" smooth="yes"/>
      <point x="371" y="355" type="line"/>
      <point x="371" y="466" type="line" smooth="yes"/>
      <point x="371" y="512"/>
      <point x="346" y="538"/>
      <point x="300" y="538" type="curve" smooth="yes"/>
      <point x="254" y="538"/>
      <point x="229" y="512"/>
      <point x="229" y="466" type="curve" smooth="yes"/>
      <point x="229" y="355" type="line"/>
      <point x="115" y="355" type="line" smooth="yes"/>
      <point x="71" y="355"/>
      <point x="46" y="331"/>
      <point x="46" y="287" type="curve" smooth="yes"/>
      <point x="46" y="243"/>
      <point x="71" y="219"/>
      <point x="115" y="219" type="curve" smooth="yes"/>
      <point x="229" y="219" type="line"/>
      <point x="229" y="102" type="line" smooth="yes"/>
      <point x="229" y="56"/>
      <point x="254" y="30"/>
    </contour>
  </outline>
</glyph>
<glyph name="two" format="2">
  <advance width="600"/>
  <unicode hex="0032"/>
  <outline>
    <contour>
      <point x="150" y="0" type="curve" smooth="yes"/>
      <point x="487" y="0" type="line" smooth="yes"/>
      <point x="544" y="0"/>
      <point x="575" y="31"/>
      <point x="575" y="87" type="curve" smooth="yes"/>
      <point x="575" y="143"/>
      <point x="544" y="174"/>
      <point x="487" y="174" type="curve" smooth="yes"/>
      <point x="267" y="174" type="line"/>
      <point x="267" y="120" type="line"/>
      <point x="414" y="260" type="line" smooth="yes"/>
      <point x="507" y="348"/>
      <point x="540" y="420"/>
      <point x="540" y="506" type="curve" smooth="yes"/>
      <point x="540" y="642"/>
      <point x="449" y="717"/>
      <point x="279" y="717" type="curve" smooth="yes"/>
      <point x="216" y="717"/>
      <point x="152" y="706"/>
      <point x="90" y="676" type="curve" smooth="yes"/>
      <point x="-16" y="625"/>
      <point x="49" y="476"/>
      <point x="154" y="520" type="curve" smooth="yes"/>
      <point x="192" y="536"/>
      <point x="223" y="542"/>
      <point x="247" y="542" type="curve" smooth="yes"/>
      <point x="300" y="542"/>
      <point x="330" y="521"/>
      <point x="330" y="480" type="curve" smooth="yes"/>
      <point x="330" y="447"/>
      <point x="313" y="418"/>
      <point x="265" y="368" type="curve" smooth="yes"/>
      <point x="106" y="203" type="line" smooth="yes"/>
      <point x="75" y="171"/>
      <point x="54" y="140"/>
      <point x="54" y="95" type="curve" smooth="yes"/>
      <point x="54" y="32"/>
      <point x="83" y="0"/>
    </contour>
  </outline>
</glyph>
<glyph name="five" format="2">
  <advance width="600"/>
  <unicode hex="0035"/>
  <outline>
    <contour>
      <point x="289" y="-12" type="curve" smooth="yes"/>
      <point x="468" y="-12"/>
      <point x="579" y="84"/>
      <point x="579" y="233" type="curve" smooth="yes"/>
      <point x="579" y="369"/>
      <point x="485" y="460"/>
      <point x="350" y="460" type="curve" smooth="yes"/>
      <point x="293" y="460"/>
      <point x="242" y="443"/>
      <point x="211" y="413" type="curve"/>
      <point x="258" y="413" type="line"/>
      <point x="258" y="531" type="line"/>
      <point x="453" y="531" type="line" smooth="yes"/>
      <point x="511" y="531"/>
      <point x="543" y="562"/>
      <point x="543" y="618" type="curve" smooth="yes"/>
      <point x="543" y="674"/>
      <point x="511" y="705"/>
      <point x="453" y="705" type="curve" smooth="yes"/>
      <point x="148" y="705" type="line" smooth="yes"/>
      <point x="90" y="705"/>
      <point x="58" y="673"/>
      <point x="58" y="615" type="curve" smooth="yes"/>
      <point x="58" y="327" type="line" smooth="yes"/>
      <point x="58" y="279"/>
      <point x="83" y="253"/>
      <point x="139" y="253" type="curve" smooth="yes"/>
      <point x="168" y="253"/>
      <point x="199" y="265"/>
      <point x="217" y="273" type="curve" smooth="yes"/>
      <point x="247" y="287"/>
      <point x="275" y="291"/>
      <point x="292" y="291" type="curve" smooth="yes"/>
      <point x="342" y="291"/>
      <point x="375" y="268"/>
      <point x="375" y="227" type="curve" smooth="yes"/>
      <point x="375" y="186"/>
      <point x="342" y="163"/>
      <point x="284" y="163" type="curve" smooth="yes"/>
      <point x="251" y="163"/>
      <point x="202" y="171"/>
      <point x="161" y="190" type="curve" smooth="yes"/>
      <point x="54" y="239"/>
      <point x="-12" y="77"/>
      <point x="96" y="27" type="curve" smooth="yes"/>
      <point x="154" y="0"/>
      <point x="228" y="-12"/>
    </contour>
  </outline>
</glyph>
<glyph name="nine" format="2">
  <advance width="600"/>
  <unicode hex="0039"/>
  <outline>
    <contour>
      <point x="234" y="-12" type="curve" smooth="yes"/>
      <point x="444" y="-12"/>
      <point x="570" y="126"/>
      <point x="570" y="356" type="curve" smooth="yes"/>
      <point x="570" y="586"/>
      <point x="462" y="717"/>
      <point x="271" y="717" type="curve" smooth="yes"/>
      <point x="124" y="717"/>
      <point x="21" y="613"/>
      <point x="21" y="467" type="curve" smooth="yes"/>
      <point x="21" y="334"/>
      <point x="110" y="235"/>
      <point x="223" y="235" type="curve" smooth="yes"/>
      <point x="305" y="235"/>
      <point x="368" y="280"/>
      <point x="387" y="357" type="curve"/>
      <point x="370" y="357" type="line"/>
      <point x="370" y="317" type="line" smooth="yes"/>
      <point x="370" y="215"/>
      <point x="326" y="163"/>
      <point x="236" y="163" type="curve" smooth="yes"/>
      <point x="209" y="163"/>
      <point x="177" y="168"/>
      <point x="141" y="181" type="curve" smooth="yes"/>
      <point x="31" y="221"/>
      <point x="-16" y="62"/>
      <point x="78" y="21" type="curve" smooth="yes"/>
      <point x="126" y="0"/>
      <point x="181" y="-12"/>
    </contour>
    <contour>
      <point x="282" y="397" type="curve" smooth="yes"/>
      <point x="242" y="397"/>
      <point x="216" y="428"/>
      <point x="216" y="476" type="curve" smooth="yes"/>
      <point x="216" y="524"/>
      <point x="242" y="555"/>
      <point x="282" y="555" type="curve" smooth="yes"/>
      <point x="322" y="555"/>
      <point x="348" y="524"/>
      <point x="348" y="476" type="curve" smooth="yes"/>
      <point x="348" y="428"/>
      <point x="322" y="397"/>
    </contour>
  </outline>
</glyph>
<glyph name="semicolon" format="2">
  <advance width="285"/>
  <unicode hex="003B"/>
  <outline>
    <contour>
      <point x="173" y="-128" type="curve" smooth="yes"/>
      <point x="244" y="-41"/>
      <point x="255" y="17"/>
      <point x="255" y="79" type="curve" smooth="yes"/>
      <point x="255" y="163"/>
      <point x="213" y="213"/>
      <point x="143" y="213" type="curve" smooth="yes"/>
      <point x="73" y="213"/>
      <point x="31" y="169"/>
      <point x="31" y="104" type="curve" smooth="yes"/>
      <point x="31" y="36"/>
      <point x="77" y="-6"/>
      <point x="147" y="-6" type="curve"/>
      <point x="141" y="51" type="line"/>
      <point x="141" y="19"/>
      <point x="132" y="-25"/>
      <point x="95" y="-68" type="curve" smooth="yes"/>
      <point x="41" y="-133"/>
      <point x="122" y="-191"/>
    </contour>
    <contour>
      <point x="143" y="281" type="curve" smooth="yes"/>
      <point x="213" y="281"/>
      <point x="254" y="326"/>
      <point x="254" y="391" type="curve" smooth="yes"/>
      <point x="254" y="456"/>
      <point x="213" y="500"/>
      <point x="143" y="500" type="curve" smooth="yes"/>
      <point x="73" y="500"/>
      <point x="31" y="456"/>
      <point x="31" y="391" type="curve" smooth="yes"/>
      <point x="31" y="326"/>
      <point x="73" y="281"/>
    </contour>
  </outline>
</glyph>
<glyph name="less" format="2">
  <advance width="600"/>
  <unicode hex="003C"/>
  <outline>
    <contour>
      <point x="469" y="56" type="line" smooth="yes"/>
      <point x="558" y="23"/>
      <point x="603" y="155"/>
      <point x="516" y="187" type="curve" smooth="yes"/>
      <point x="103" y="337" type="line"/>
      <point x="103" y="236" type="line"/>
      <point x="516" y="386" type="line" smooth="yes"/>
      <point x="603" y="418"/>
      <point x="558" y="551"/>
      <point x="469" y="518" type="curve" smooth="yes"/>
      <point x="117" y="387" type="line" smooth="yes"/>
      <point x="69" y="369"/>
      <point x="46" y="337"/>
      <point x="46" y="288" type="curve" smooth="yes"/>
      <point x="46" y="239"/>
      <point x="69" y="206"/>
      <point x="117" y="188" type="curve" smooth="yes"/>
    </contour>
  </outline>
</glyph>
<glyph name="equal" format="2">
  <advance width="600"/>
  <unicode hex="003D"/>
  <outline>
    <contour>
      <point x="115" y="319" type="curve" smooth="yes"/>
      <point x="485" y="319" type="line" smooth="yes"/>
      <point x="529" y="319"/>
      <point x="554" y="343"/>
      <point x="554" y="387" type="curve" smooth="yes"/>
      <point x="554" y="431"/>
      <point x="529" y="455"/>
      <point x="485" y="455" type="curve" smooth="yes"/>
      <point x="115" y="455" type="line" smooth="yes"/>
      <point x="71" y="455"/>
      <point x="46" y="431"/>
      <point x="46" y="387" type="curve" smooth="yes"/>
      <point x="46" y="343"/>
      <point x="71" y="319"/>
    </contour>
    <contour>
      <point x="115" y="119" type="curve" smooth="yes"/>
      <point x="485" y="119" type="line" smooth="yes"/>
      <point x="529" y="119"/>
      <point x="554" y="143"/>
      <point x="554" y="187" type="curve" smooth="yes"/>
      <point x="554" y="231"/>
      <point x="529" y="255"/>
      <point x="485" y="255" type="curve" smooth="yes"/>
      <point x="115" y="255" type="line" smooth="yes"/>
      <point x="71" y="255"/>
      <point x="46" y="231"/>
      <point x="46" y="187" type="curve" smooth="yes"/>
      <point x="46" y="143"/>
      <point x="71" y="119"/>
    </contour>
  </outline>
</glyph>
<glyph name="A" format="2">
  <advance width="773"/>
  <unicode hex="0041"/>
  <anchor x="387" y="0" name="bottom"/>
  <anchor x="726" y="0" name="ogonek"/>
  <anchor x="386" y="705" name="top"/>
  <outline>
    <contour>
      <point x="105" y="-10" type="curve" smooth="yes"/>
      <point x="166" y="-10"/>
      <point x="188" y="16"/>
      <point x="215" y="79" type="curve" smooth="yes"/>
      <point x="263" y="191" type="line"/>
      <point x="183" y="131" type="line"/>
      <point x="590" y="131" type="line"/>
      <point x="510" y="191" type="line"/>
      <point x="558" y="79" type="line" smooth="yes"/>
      <point x="585" y="16"/>
      <point x="612" y="-10"/>
      <point x="674" y="-10" type="curve" smooth="yes"/>
      <point x="744" y="-10"/>
      <point x="785" y="43"/>
      <point x="749" y="120" type="curve" smooth="yes"/>
      <point x="508" y="628" type="line" smooth="yes"/>
      <point x="480" y="688"/>
      <point x="440" y="715"/>
      <point x="387" y="715" type="curve" smooth="yes"/>
      <point x="333" y="715"/>
      <point x="293" y="688"/>
      <point x="265" y="628" type="curve" smooth="yes"/>
      <point x="24" y="120" type="line" smooth="yes"/>
      <point x="-11" y="46"/>
      <point x="32" y="-10"/>
    </contour>
    <contour>
      <point x="385" y="483" type="line"/>
      <point x="387" y="483" type="line"/>
      <point x="490" y="238" type="line"/>
      <point x="520" y="295" type="line"/>
      <point x="253" y="295" type="line"/>
      <point x="283" y="238" type="line"/>
    </contour>
  </outline>
</glyph>
<glyph name="D" format="2">
  <advance width="800"/>
  <unicode hex="0044"/>
  <anchor x="395" y="0" name="bottom"/>
  <anchor x="214" y="358" name="center"/>
  <anchor x="395" y="705" name="top"/>
  <outline>
    <contour>
      <point x="168" y="0" type="curve" smooth="yes"/>
      <point x="365" y="0" type="line" smooth="yes"/>
      <point x="615" y="0"/>
      <point x="759" y="130"/>
      <point x="759" y="353" type="curve" smooth="yes"/>
      <point x="759" y="575"/>
      <point x="615" y="705"/>
      <point x="365" y="705" type="curve" smooth="yes"/>
      <point x="168" y="705" type="line" smooth="yes"/>
      <point x="96" y="705"/>
      <point x="57" y="666"/>
      <point x="57" y="594" type="curve" smooth="yes"/>
      <point x="57" y="111" type="line" smooth="yes"/>
      <point x="57" y="39"/>
      <point x="96" y="0"/>
    </contour>
    <contour>
      <point x="272" y="174" type="line"/>
      <point x="272" y="531" type="line"/>
      <point x="352" y="531" type="line" smooth="yes"/>
      <point x="476" y="531"/>
      <point x="536" y="475"/>
      <point x="536" y="353" type="curve" smooth="yes"/>
      <point x="536" y="231"/>
      <point x="477" y="174"/>
      <point x="352" y="174" type="curve" smooth="yes"/>
    </contour>
  </outline>
</glyph>
<glyph name="G" format="2">
  <advance width="754"/>
  <unicode hex="0047"/>
  <anchor x="426" y="0" name="bottom"/>
  <anchor x="419" y="705" name="top"/>
  <outline>
    <contour>
      <point x="429" y="-12" type="curve" smooth="yes"/>
      <point x="502" y="-12"/>
      <point x="574" y="-1"/>
      <point x="640" y="20" type="curve" smooth="yes"/>
      <point x="683" y="34"/>
      <point x="701" y="67"/>
      <point x="701" y="114" type="curve" smooth="yes"/>
      <point x="701" y="323" type="line" smooth="yes"/>
      <point x="701" y="377"/>
      <point x="672" y="406"/>
      <point x="618" y="406" type="curve" smooth="yes"/>
      <point x="480" y="406" type="line" smooth="yes"/>
      <point x="426" y="406"/>
      <point x="397" y="380"/>
      <point x="397" y="332" type="curve" smooth="yes"/>
      <point x="397" y="284"/>
      <point x="426" y="258"/>
      <point x="480" y="258" type="curve" smooth="yes"/>
      <point x="527" y="258" type="line"/>
      <point x="527" y="110" type="line"/>
      <point x="565" y="187" type="line"/>
      <point x="519" y="174"/>
      <point x="475" y="167"/>
      <point x="442" y="167" type="curve" smooth="yes"/>
      <point x="326" y="167"/>
      <point x="264" y="228"/>
      <point x="264" y="348" type="curve" smooth="yes"/>
      <point x="264" y="470"/>
      <point x="323" y="534"/>
      <point x="450" y="534" type="curve" smooth="yes"/>
      <point x="495" y="534"/>
      <point x="541" y="525"/>
      <point x="574" y="512" type="curve" smooth="yes"/>
      <point x="688" y="466"/>
      <point x="743" y="638"/>
      <point x="644" y="680" type="curve" smooth="yes"/>
      <point x="576" y="709"/>
      <point x="510" y="717"/>
      <point x="448" y="717" type="curve" smooth="yes"/>
      <point x="192" y="717"/>
      <point x="41" y="572"/>
      <point x="41" y="348" type="curve" smooth="yes"/>
      <point x="41" y="136"/>
      <point x="181" y="-12"/>
    </contour>
  </outline>
</glyph>
<glyph name="I" format="2">
  <advance width="329"/>
  <unicode hex="0049"/>
  <anchor x="164" y="0" name="bottom"/>
  <anchor x="217" y="0" name="ogonek"/>
  <anchor x="164" y="705" name="top"/>
  <anchor x="18" y="705" name="topleft"/>
  <outline>
    <contour>
      <point x="165" y="-10" type="curve" smooth="yes"/>
      <point x="235" y="-10"/>
      <point x="272" y="29"/>
      <point x="272" y="100" type="curve" smooth="yes"/>
      <point x="272" y="605" type="line" smooth="yes"/>
      <point x="272" y="676"/>
      <point x="234" y="715"/>
      <point x="165" y="715" type="curve" smooth="yes"/>
      <point x="96" y="715"/>
      <point x="57" y="676"/>
      <point x="57" y="605" type="curve" smooth="yes"/>
      <point x="57" y="100" type="line" smooth="yes"/>
      <point x="57" y="29"/>
      <point x="96" y="-10"/>
    </contour>
  </outline>
</glyph>
<glyph name="K" format="2">
  <advance width="739"/>
  <unicode hex="004B"/>
  <anchor x="362" y="0" name="bottom"/>
  <anchor x="362" y="705" name="top"/>
  <anchor x="18" y="705" name="topleft"/>
  <outline>
    <contour>
      <point x="165" y="-10" type="curve" smooth="yes"/>
      <point x="235" y="-10"/>
      <point x="272" y="29"/>
      <point x="272" y="99" type="curve" smooth="yes"/>
      <point x="272" y="314" type="line"/>
      <point x="274" y="314" type="line"/>
      <point x="490" y="53" type="line" smooth="yes"/>
      <point x="524" y="11"/>
      <point x="551" y="-10"/>
      <point x="604" y="-10" type="curve" smooth="yes"/>
      <point x="695" y="-10"/>
      <point x="727" y="73"/>
      <point x="671" y="142" type="curve" smooth="yes"/>
      <point x="446" y="416" type="line"/>
      <point x="446" y="331" type="line"/>
      <point x="659" y="570" type="line" smooth="yes"/>
      <point x="708" y="624"/>
      <point x="689" y="714"/>
      <point x="594" y="714" type="curve" smooth="yes"/>
      <point x="551" y="714"/>
      <point x="520" y="696"/>
      <point x="493" y="665" type="curve" smooth="yes"/>
      <point x="274" y="408" type="line"/>
      <point x="272" y="408" type="line"/>
      <point x="272" y="606" type="line" smooth="yes"/>
      <point x="272" y="676"/>
      <point x="234" y="715"/>
      <point x="165" y="715" type="curve" smooth="yes"/>
      <point x="96" y="715"/>
      <point x="57" y="676"/>
      <point x="57" y="606" type="curve" smooth="yes"/>
      <point x="57" y="99" type="line" smooth="yes"/>
      <point x="57" y="29"/>
      <point x="96" y="-10"/>
    </contour>
  </outline>
</glyph>
<glyph name="M" format="2">
  <advance width="893"/>
  <unicode hex="004D"/>
  <anchor x="447" y="0" name="bottom"/>
  <anchor x="447" y="705" name="top"/>
  <outline>
    <contour>
      <point x="156" y="-10" type="curve" smooth="yes"/>
      <point x="219" y="-10"/>
      <point x="253" y="25"/>
      <point x="253" y="88" type="curve" smooth="yes"/>
      <point x="253" y="365" type="line"/>
      <point x="230" y="365" type="line"/>
      <point x="364" y="143" type="line" smooth="yes"/>
      <point x="384" y="109"/>
      <point x="406" y="93"/>
      <point x="445" y="93" type="curve" smooth="yes"/>
      <point x="484" y="93"/>
      <point x="506" y="109"/>
      <point x="526" y="143" type="curve" smooth="yes"/>
      <point x="660" y="365" type="line"/>
      <point x="640" y="365" type="line"/>
      <point x="640" y="88" type="line" smooth="yes"/>
      <point x="640" y="25"/>
      <point x="674" y="-10"/>
      <point x="737" y="-10" type="curve" smooth="yes"/>
      <point x="800" y="-10"/>
      <point x="834" y="25"/>
      <point x="834" y="88" type="curve" smooth="yes"/>
      <point x="834" y="617" type="line" smooth="yes"/>
      <point x="834" y="680"/>
      <point x="798" y="715"/>
      <point x="736" y="715" type="curve" smooth="yes"/>
      <point x="682" y="715"/>
      <point x="654" y="695"/>
      <point x="627" y="647" type="curve" smooth="yes"/>
      <point x="431" y="301" type="line"/>
      <point x="467" y="301" type="line"/>
      <point x="271" y="647" type="line" smooth="yes"/>
      <point x="244" y="695"/>
      <point x="216" y="715"/>
      <point x="162" y="715" type="curve" smooth="yes"/>
      <point x="97" y="715"/>
      <point x="59" y="680"/>
      <point x="59" y="617" type="curve" smooth="yes"/>
      <point x="59" y="88" type="line" smooth="yes"/>
      <point x="59" y="25"/>
      <point x="93" y="-10"/>
    </contour>
  </outline>
</glyph>
<glyph name="P" format="2">
  <advance width="689"/>
  <unicode hex="0050"/>
  <anchor x="348" y="0" name="bottom"/>
  <anchor x="347" y="705" name="top"/>
  <outline>
    <contour>
      <point x="165" y="-10" type="curve" smooth="yes"/>
      <point x="235" y="-10"/>
      <point x="272" y="29"/>
      <point x="272" y="99" type="curve" smooth="yes"/>
      <point x="272" y="231" type="line"/>
      <point x="415" y="231" type="line" smooth="yes"/>
      <point x="577" y="231"/>
      <point x="670" y="321"/>
      <point x="670" y="468" type="curve" smooth="yes"/>
      <point x="670" y="615"/>
      <point x="577" y="705"/>
      <point x="415" y="705" type="curve" smooth="yes"/>
      <point x="166" y="705" type="line" smooth="yes"/>
      <point x="96" y="705"/>
      <point x="57" y="666"/>
      <point x="57" y="596" type="curve" smooth="yes"/>
      <point x="57" y="99" type="line" smooth="yes"/>
      <point x="57" y="29"/>
      <point x="96" y="-10"/>
    </contour>
    <contour>
      <point x="272" y="395" type="line"/>
      <point x="272" y="541" type="line"/>
      <point x="375" y="541" type="line" smooth="yes"/>
      <point x="433" y="541"/>
      <point x="466" y="518"/>
      <point x="466" y="468" type="curve" smooth="yes"/>
      <point x="466" y="418"/>
      <point x="433" y="395"/>
      <point x="375" y="395" type="curve" smooth="yes"/>
    </contour>
  </outline>
</glyph>
<glyph name="U" format="2">
  <advance width="754"/>
  <unicode hex="0055"/>
  <anchor x="379" y="0" name="bottom"/>
  <anchor x="437" y="0" name="ogonek"/>
  <anchor x="379" y="705" name="top"/>
  <anchor x="557" y="705" name="topright"/>
  <outline>
    <contour>
      <point x="379" y="-12" type="curve" smooth="yes"/>
      <point x="591" y="-12"/>
      <point x="702" y="93"/>
      <point x="702" y="307" type="curve" smooth="yes"/>
      <point x="702" y="606" type="line" smooth="yes"/>
      <point x="702" y="676"/>
      <point x="665" y="715"/>
      <point x="597" y="715" type="curve" smooth="yes"/>
      <point x="529" y="715"/>
      <point x="491" y="676"/>
      <point x="491" y="606" type="curve" smooth="yes"/>
      <point x="491" y="303" type="line" smooth="yes"/>
      <point x="491" y="213"/>
      <point x="451" y="167"/>
      <point x="379" y="167" type="curve" smooth="yes"/>
      <point x="307" y="167"/>
      <point x="267" y="213"/>
      <point x="267" y="303" type="curve" smooth="yes"/>
      <point x="267" y="606" type="line" smooth="yes"/>
      <point x="267" y="676"/>
      <point x="229" y="715"/>
      <point x="160" y="715" type="curve" smooth="yes"/>
      <point x="91" y="715"/>
      <point x="52" y="676"/>
      <point x="52" y="606" type="curve" smooth="yes"/>
      <point x="52" y="307" type="line" smooth="yes"/>
      <point x="52" y="93"/>
      <point x="167" y="-12"/>
    </contour>
  </outline>
</glyph>
<glyph name="Z" format="2">
  <advance width="636"/>
  <unicode hex="005A"/>
  <anchor x="326" y="0" name="bottom"/>
  <anchor x="326" y="705" name="top"/>
  <outline>
    <contour>
      <point x="142" y="0" type="curve" smooth="yes"/>
      <point x="535" y="0" type="line" smooth="yes"/>
      <point x="594" y="0"/>
      <point x="626" y="31"/>
      <point x="626" y="88" type="curve" smooth="yes"/>
      <point x="626" y="145"/>
      <point x="594" y="176"/>
      <point x="535" y="176" type="curve" smooth="yes"/>
      <point x="242" y="176" type="line"/>
      <point x="242" y="117" type="line"/>
      <point x="566" y="503" type="line" smooth="yes"/>
      <point x="645" y="597"/>
      <point x="612" y="705"/>
      <point x="502" y="705" type="curve" smooth="yes"/>
      <point x="125" y="705" type="line" smooth="yes"/>
      <point x="66" y="705"/>
      <point x="34" y="674"/>
      <point x="34" y="617" type="curve" smooth="yes"/>
      <point x="34" y="560"/>
      <point x="66" y="529"/>
      <point x="125" y="529" type="curve" smooth="yes"/>
      <point x="402" y="529" type="line"/>
      <point x="402" y="588" type="line"/>
      <point x="78" y="202" type="line" smooth="yes"/>
      <point x="-1" y="108"/>
      <point x="32" y="0"/>
    </contour>
  </outline>
</glyph>
<glyph name="backslash" format="2">
  <advance width="370"/>
  <unicode hex="005C"/>
  <outline>
    <contour>
      <point x="218" y="-18" type="line" smooth="yes"/>
      <point x="250" y="-118"/>
      <point x="401" y="-77"/>
      <point x="368" y="28" type="curve" smooth="yes"/>
      <point x="152" y="706" type="line" smooth="yes"/>
      <point x="120" y="806"/>
      <point x="-31" y="765"/>
      <point x="2" y="660" type="curve" smooth="yes"/>
    </contour>
  </outline>
</glyph>
<glyph name="bracketright" format="2">
  <advance width="427"/>
  <unicode hex="005D"/>
  <outline>
    <contour>
      <point x="95" y="-180" type="curve" smooth="yes"/>
      <point x="242" y="-180" type="line" smooth="yes"/>
      <point x="291" y="-180"/>
      <point x="327" y="-144"/>
      <point x="327" y="-95" type="curve" smooth="yes"/>
      <point x="327" y="620" type="line" smooth="yes"/>
      <point x="327" y="669"/>
      <point x="291" y="705"/>
      <point x="242" y="705" type="curve" smooth="yes"/>
      <point x="95" y="705" type="line" smooth="yes"/>
      <point x="46" y="705"/>
      <point x="10" y="673"/>
      <point x="10" y="629" type="curve" smooth="yes"/>
      <point x="10" y="585"/>
      <point x="46" y="553"/>
      <point x="95" y="553" type="curve" smooth="yes"/>
      <point x="119" y="553" type="line"/>
      <point x="119" y="-28" type="line"/>
      <point x="95" y="-28" type="line" smooth="yes"/>
      <point x="46" y="-28"/>
      <point x="10" y="-60"/>
      <point x="10" y="-104" type="curve" smooth="yes"/>
      <point x="10" y="-148"/>
      <point x="46" y="-180"/>
    </contour>
  </outline>
</glyph>
<glyph name="a" format="2">
  <advance width="580"/>
  <unicode hex="0061"/>
  <anchor x="288" y="0" name="bottom"/>
  <anchor x="468" y="0" name="ogonek"/>
  <anchor x="293" y="484" name="top"/>
  <outline>
    <contour>
      <point x="221" y="-12" type="curve" smooth="yes"/>
      <point x="293" y="-12"/>
      <point x="341" y="27"/>
      <point x="350" y="87" type="curve"/>
      <point x="345" y="108" type="line"/>
      <point x="345" y="95" type="line" smooth="yes"/>
      <point x="345" y="27"/>
      <point x="379" y="-10"/>
      <point x="442" y="-10" type="curve" smooth="yes"/>
      <point x="504" y="-10"/>
      <point x="538" y="27"/>
      <point x="538" y="95" type="curve" smooth="yes"/>
      <point x="538" y="276" type="line" smooth="yes"/>
      <point x="538" y="434"/>
      <point x="454" y="506"/>
      <point x="279" y="506" type="curve" smooth="yes"/>
      <point x="235" y="506"/>
      <point x="182" y="500"/>
      <point x="118" y="478" type="curve" smooth="yes"/>
      <point x="14" y="442"/>
      <point x="52" y="302"/>
      <point x="154" y="335" type="curve" smooth="yes"/>
      <point x="204" y="351"/>
      <point x="239" y="356"/>
      <point x="269" y="356" type="curve" smooth="yes"/>
      <point x="324" y="356"/>
      <point x="342" y="344"/>
      <point x="342" y="306" type="curve" smooth="yes"/>
      <point x="342" y="190" type="line" smooth="yes"/>
      <point x="342" y="148"/>
      <point x="309" y="121"/>
      <point x="270" y="121" type="curve" smooth="yes"/>
      <point x="235" y="121"/>
      <point x="219" y="138"/>
      <point x="219" y="162" type="curve" smooth="yes"/>
      <point x="219" y="189"/>
      <point x="250" y="206"/>
      <point x="302" y="206" type="curve" smooth="yes"/>
      <point x="361" y="206" type="line"/>
      <point x="361" y="297" type="line"/>
      <point x="303" y="297" type="line" smooth="yes"/>
      <point x="101" y="297"/>
      <point x="22" y="261"/>
      <point x="22" y="154" type="curve" smooth="yes"/>
      <point x="22" y="58"/>
      <point x="102" y="-12"/>
    </contour>
  </outline>
</glyph>
<glyph name="g" format="2">
  <advance width="638"/>
  <unicode hex="0067"/>
  <anchor x="317" y="484" name="top"/>
  <outline>
    <contour>
      <point x="297" y="-192" type="curve" smooth="yes"/>
      <point x="488" y="-192"/>
      <point x="594" y="-103"/>
      <point x="594" y="75" type="curve" smooth="yes"/>
      <point x="594" y="399" type="line" smooth="yes"/>
      <point x="594" y="467"/>
      <point x="558" y="504"/>
      <point x="492" y="504" type="curve" smooth="yes"/>
      <point x="426" y="504"/>
      <point x="389" y="467"/>
      <point x="389" y="399" type="curve" smooth="yes"/>
      <point x="389" y="371" type="line"/>
      <point x="398" y="421" type="line"/>
      <point x="378" y="470"/>
      <point x="314" y="506"/>
      <point x="243" y="506" type="curve" smooth="yes"/>
      <point x="113" y="506"/>
      <point x="24" y="408"/>
      <point x="24" y="259" type="curve" smooth="yes"/>
      <point x="24" y="110"/>
      <point x="113" y="13"/>
      <point x="243" y="13" type="curve" smooth="yes"/>
      <point x="311" y="13"/>
      <point x="378" y="49"/>
      <point x="400" y="99" type="curve"/>
      <point x="392" y="99" type="line"/>
      <point x="392" y="52" type="line" smooth="yes"/>
      <point x="392" y="-13"/>
      <point x="354" y="-40"/>
      <point x="276" y="-40" type="curve" smooth="yes"/>
      <point x="245" y="-40"/>
      <point x="199" y="-35"/>
      <point x="141" y="-15" type="curve" smooth="yes"/>
      <point x="56" y="14"/>
      <point x="5" y="-134"/>
      <point x="117" y="-169" type="curve" smooth="yes"/>
      <point x="160" y="-183"/>
      <point x="224" y="-192"/>
    </contour>
    <contour>
      <point x="311" y="165" type="curve" smooth="yes"/>
      <point x="264" y="165"/>
      <point x="233" y="198"/>
      <point x="233" y="259" type="curve" smooth="yes"/>
      <point x="233" y="320"/>
      <point x="264" y="354"/>
      <point x="311" y="354" type="curve" smooth="yes"/>
      <point x="358" y="354"/>
      <point x="389" y="320"/>
      <point x="389" y="259" type="curve" smooth="yes"/>
      <point x="389" y="198"/>
      <point x="358" y="165"/>
    </contour>
  </outline>
</glyph>
<glyph name="i" format="2">
  <advance width="296"/>
  <unicode hex="0069"/>
  <anchor x="148" y="0" name="bottom"/>
  <anchor x="200" y="0" name="ogonek"/>
  <outline>
    <contour>
      <point x="148" y="-10" type="curve" smooth="yes"/>
      <point x="216" y="-10"/>
      <point x="252" y="30"/>
      <point x="252" y="103" type="curve" smooth="yes"/>
      <point x="252" y="391" type="line" smooth="yes"/>
      <point x="252" y="464"/>
      <point x="215" y="504"/>
      <point x="148" y="504" type="curve" smooth="yes"/>
      <point x="81" y="504"/>
      <point x="44" y="464"/>
      <point x="44" y="391" type="curve" smooth="yes"/>
      <point x="44" y="103" type="line" smooth="yes"/>
      <point x="44" y="30"/>
      <point x="81" y="-10"/>
    </contour>
    <contour>
      <point x="148" y="562" type="curve" smooth="yes"/>
      <point x="221" y="562"/>
      <point x="261" y="596"/>
      <point x="261" y="659" type="curve" smooth="yes"/>
      <point x="261" y="722"/>
      <point x="221" y="756"/>
      <point x="148" y="756" type="curve" smooth="yes"/>
      <point x="75" y="756"/>
      <point x="35" y="722"/>
      <point x="35" y="659" type="curve" smooth="yes"/>
      <point x="35" y="596"/>
      <point x="75" y="562"/>
    </contour>
  </outline>
</glyph>
<glyph name="j" format="2">
  <advance width="303"/>
  <unicode hex="006A"/>
  <outline>
    <contour>
      <point x="33" y="-186" type="curve" smooth="yes"/>
      <point x="188" y="-186"/>
      <point x="258" y="-110"/>
      <point x="258" y="29" type="curve" smooth="yes"/>
      <point x="258" y="399" type="line" smooth="yes"/>
      <point x="258" y="467"/>
      <point x="221" y="504"/>
      <point x="154" y="504" type="curve" smooth="yes"/>
      <point x="87" y="504"/>
      <point x="50" y="467"/>
      <point x="50" y="399" type="curve" smooth="yes"/>
      <point x="50" y="8" type="line" smooth="yes"/>
      <point x="50" y="-24"/>
      <point x="35" y="-39"/>
      <point x="1" y="-42" type="curve" smooth="yes"/>
      <point x="-77" y="-49"/>
      <point x="-87" y="-186"/>
    </contour>
    <contour>
      <point x="153" y="562" type="curve" smooth="yes"/>
      <point x="226" y="562"/>
      <point x="266" y="596"/>
      <point x="266" y="659" type="curve" smooth="yes"/>
      <point x="266" y="722"/>
      <point x="226" y="756"/>
      <point x="153" y="756" type="curve" smooth="yes"/>
      <point x="80" y="756"/>
      <point x="40" y="722"/>
      <point x="40" y="659" type="curve" smooth="yes"/>
      <point x="40" y="596"/>
      <point x="80" y="562"/>
    </contour>
  </outline>
</glyph>
<glyph name="n" format="2">
  <advance width="618"/>
  <unicode hex="006E"/>
  <anchor x="311" y="0" name="bottom"/>
  <anchor x="311" y="484" name="top"/>
  <outline>
    <contour>
      <point x="148" y="-10" type="curve" smooth="yes"/>
      <point x="216" y="-10"/>
      <point x="252" y="27"/>
      <point x="252" y="95" type="curve" smooth="yes"/>
      <point x="252" y="272" type="line" smooth="yes"/>
      <point x="252" y="318"/>
      <point x="280" y="348"/>
      <point x="322" y="348" type="curve" smooth="yes"/>
      <point x="351" y="348"/>
      <point x="368" y="330"/>
      <point x="368" y="279" type="curve" smooth="yes"/>
      <point x="368" y="95" type="line" smooth="yes"/>
      <point x="368" y="27"/>
      <point x="405" y="-10"/>
      <point x="472" y="-10" type="curve" smooth="yes"/>
      <point x="539" y="-10"/>
      <point x="576" y="27"/>
      <point x="576" y="95" type="curve" smooth="yes"/>
      <point x="576" y="287" type="line" smooth="yes"/>
      <point x="576" y="436"/>
      <point x="520" y="506"/>
      <point x="403" y="506" type="curve" smooth="yes"/>
      <point x="330" y="506"/>
      <point x="269" y="472"/>
      <point x="236" y="415" type="curve"/>
      <point x="247" y="365" type="line"/>
      <point x="247" y="399" type="line" smooth="yes"/>
      <point x="247" y="467"/>
      <point x="211" y="504"/>
      <point x="146" y="504" type="curve" smooth="yes"/>
      <point x="80" y="504"/>
      <point x="44" y="467"/>
      <point x="44" y="399" type="curve" smooth="yes"/>
      <point x="44" y="95" type="line" smooth="yes"/>
      <point x="44" y="27"/>
      <point x="81" y="-10"/>
    </contour>
  </outline>
</glyph>
<glyph name="r" format="2">
  <advance width="457"/>
  <unicode hex="0072"/>
  <anchor x="150" y="0" name="bottom"/>
  <anchor x="249" y="484" name="top"/>
  <outline>
    <contour>
      <point x="151" y="-10" type="curve" smooth="yes"/>
      <point x="219" y="-10"/>
      <point x="256" y="27"/>
      <point x="256" y="95" type="curve" smooth="yes"/>
      <point x="256" y="235" type="line" smooth="yes"/>
      <point x="256" y="292"/>
      <point x="281" y="317"/>
      <point x="345" y="323" type="curve" smooth="yes"/>
      <point x="369" y="325" type="line" smooth="yes"/>
      <point x="435" y="331"/>
      <point x="451" y="364"/>
      <point x="451" y="421" type="curve" smooth="yes"/>
      <point x="451" y="487"/>
      <point x="431" y="506"/>
      <point x="387" y="506" type="curve" smooth="yes"/>
      <point x="308" y="506"/>
      <point x="246" y="451"/>
      <point x="237" y="371" type="curve"/>
      <point x="247" y="371" type="line"/>
      <point x="247" y="399" type="line" smooth="yes"/>
      <point x="247" y="467"/>
      <point x="211" y="504"/>
      <point x="146" y="504" type="curve" smooth="yes"/>
      <point x="80" y="504"/>
      <point x="44" y="467"/>
      <point x="44" y="399" type="curve" smooth="yes"/>
      <point x="44" y="95" type="line" smooth="yes"/>
      <point x="44" y="27"/>
      <point x="81" y="-10"/>
    </contour>
  </outline>
</glyph>
<glyph name="t" format="2">
  <advance width="449"/>
  <unicode hex="0074"/>
  <anchor x="257" y="0" name="bottom"/>
  <anchor x="208" y="249" name="center"/>
  <anchor x="191" y="635" name="top"/>
  <anchor x="325" y="705" name="topright"/>
  <outline>
    <contour>
      <point x="322" y="-12" type="curve" smooth="yes"/>
      <point x="341" y="-12"/>
      <point x="382" y="-7"/>
      <point x="402" y="1" type="curve" smooth="yes"/>
      <point x="438" y="16"/>
      <point x="450" y="47"/>
      <point x="450" y="94" type="curve" smooth="yes"/>
      <point x="450" y="151"/>
      <point x="433" y="161"/>
      <point x="409" y="160" type="curve" smooth="yes"/>
      <point x="393" y="160"/>
      <point x="375" y="154"/>
      <point x="359" y="154" type="curve" smooth="yes"/>
      <point x="315" y="154"/>
      <point x="295" y="172"/>
      <point x="295" y="212" type="curve" smooth="yes"/>
      <point x="295" y="342" type="line"/>
      <point x="363" y="342" type="line" smooth="yes"/>
      <point x="413" y="342"/>
      <point x="441" y="369"/>
      <point x="441" y="418" type="curve" smooth="yes"/>
      <point x="441" y="467"/>
      <point x="413" y="494"/>
      <point x="363" y="494" type="curve" smooth="yes"/>
      <point x="295" y="494" type="line"/>
      <point x="295" y="540" type="line" smooth="yes"/>
      <point x="295" y="608"/>
      <point x="258" y="645"/>
      <point x="191" y="645" type="curve" smooth="yes"/>
      <point x="124" y="645"/>
      <point x="87" y="608"/>
      <point x="87" y="540" type="curve" smooth="yes"/>
      <point x="87" y="494" type="line"/>
      <point x="64" y="494" type="line" smooth="yes"/>
      <point x="14" y="494"/>
      <point x="-14" y="467"/>
      <point x="-14" y="418" type="curve" smooth="yes"/>
      <point x="-14" y="369"/>
      <point x="14" y="342"/>
      <point x="64" y="342" type="curve" smooth="yes"/>
      <point x="87" y="342" type="line"/>
      <point x="87" y="207" type="line" smooth="yes"/>
      <point x="87" y="59"/>
      <point x="162" y="-12"/>
    </contour>
  </outline>
</glyph>
<glyph name="w" format="2">
  <advance width="877"/>
  <unicode hex="0077"/>
  <anchor x="439" y="0" name="bottom"/>
  <anchor x="439" y="484" name="top"/>
  <outline>
    <contour>
      <point x="273" y="-10" type="curve" smooth="yes"/>
      <point x="326" y="-10"/>
      <point x="362" y="16"/>
      <point x="384" y="71" type="curve" smooth="yes"/>
      <point x="475" y="304" type="line"/>
      <point x="393" y="304" type="line"/>
      <point x="491" y="69" type="line" smooth="yes"/>
      <point x="513" y="15"/>
      <point x="551" y="-10"/>
      <point x="604" y="-10" type="curve" smooth="yes"/>
      <point x="657" y="-10"/>
      <point x="695" y="15"/>
      <point x="718" y="69" type="curve" smooth="yes"/>
      <point x="848" y="372" type="line" smooth="yes"/>
      <point x="878" y="441"/>
      <point x="854" y="504"/>
      <point x="776" y="504" type="curve" smooth="yes"/>
      <point x="738" y="504"/>
      <point x="701" y="486"/>
      <point x="679" y="428" type="curve" smooth="yes"/>
      <point x="597" y="215" type="line"/>
      <point x="613" y="215" type="line"/>
      <point x="524" y="445" type="line" smooth="yes"/>
      <point x="509" y="484"/>
      <point x="486" y="504"/>
      <point x="443" y="504" type="curve" smooth="yes"/>
      <point x="401" y="504"/>
      <point x="377" y="485"/>
      <point x="362" y="445" type="curve" smooth="yes"/>
      <point x="274" y="215" type="line"/>
      <point x="295" y="215" type="line"/>
      <point x="212" y="421" type="line" smooth="yes"/>
      <point x="186" y="486"/>
      <point x="158" y="504"/>
      <point x="111" y="504" type="curve" smooth="yes"/>
      <point x="25" y="504"/>
      <point x="-3" y="442"/>
      <point x="27" y="373" type="curve" smooth="yes"/>
      <point x="159" y="68" type="line" smooth="yes"/>
      <point x="182" y="15"/>
      <point x="219" y="-10"/>
    </contour>
  </outline>
</glyph>
<glyph name="x" format="2">
  <advance width="587"/>
  <unicode hex="0078"/>
  <anchor x="294" y="0" name="bottom"/>
  <anchor x="294" y="484" name="top"/>
  <outline>
    <contour>
      <point x="133" y="-10" type="curve" smooth="yes"/>
      <point x="183" y="-10"/>
      <point x="210" y="6"/>
      <point x="239" y="42" type="curve" smooth="yes"/>
      <point x="330" y="157" type="line"/>
      <point x="258" y="157" type="line"/>
      <point x="348" y="42" type="line" smooth="yes"/>
      <point x="377" y="5"/>
      <point x="406" y="-10"/>
      <point x="454" y="-10" type="curve" smooth="yes"/>
      <point x="533" y="-10"/>
      <point x="571" y="64"/>
      <point x="515" y="131" type="curve" smooth="yes"/>
      <point x="373" y="301" type="line"/>
      <point x="373" y="208" type="line"/>
      <point x="501" y="363" type="line" smooth="yes"/>
      <point x="556" y="430"/>
      <point x="521" y="504"/>
      <point x="442" y="504" type="curve" smooth="yes"/>
      <point x="394" y="504"/>
      <point x="364" y="489"/>
      <point x="336" y="452" type="curve" smooth="yes"/>
      <point x="258" y="350" type="line"/>
      <point x="330" y="350" type="line"/>
      <point x="252" y="452" type="line" smooth="yes"/>
      <point x="224" y="489"/>
      <point x="196" y="504"/>
      <point x="146" y="504" type="curve" smooth="yes"/>
      <point x="67" y="504"/>
      <point x="32" y="430"/>
      <point x="87" y="363" type="curve" smooth="yes"/>
      <point x="214" y="209" type="line"/>
      <point x="214" y="299" type="line"/>
      <point x="74" y="131" type="line" smooth="yes"/>
      <point x="19" y="64"/>
      <point x="54" y="-10"/>
    </contour>
  </outline>
</glyph>
<glyph name="y" format="2">
  <advance width="549"/>
  <unicode hex="0079"/>
  <anchor x="449" y="0" name="bottom"/>
  <anchor x="275" y="484" name="top"/>
  <outline>
    <contour>
      <point x="198" y="-190" type="curve" smooth="yes"/>
      <point x="249" y="-190"/>
      <point x="280" y="-173"/>
      <point x="307" y="-112" type="curve" smooth="yes"/>
      <point x="525" y="373" type="line" smooth="yes"/>
      <point x="556" y="442"/>
      <point x="523" y="504"/>
      <point x="455" y="504" type="curve" smooth="yes"/>
      <point x="401" y="504"/>
      <point x="373" y="485"/>
      <point x="348" y="422" type="curve" smooth="yes"/>
      <point x="261" y="204" type="line"/>
      <point x="297" y="204" type="line"/>
      <point x="216" y="420" type="line" smooth="yes"/>
      <point x="191" y="486"/>
      <point x="164" y="504"/>
      <point x="115" y="504" type="curve" smooth="yes"/>
      <point x="26" y="504"/>
      <point x="-6" y="442"/>
      <point x="24" y="373" type="curve" smooth="yes"/>
      <point x="189" y="0" type="line"/>
      <point x="189" y="82" type="line"/>
      <point x="123" y="-59" type="line" smooth="yes"/>
      <point x="91" y="-128"/>
      <point x="127" y="-190"/>
    </contour>
  </outline>
</glyph>
<glyph name="braceleft" format="2">
  <advance width="464"/>
  <unicode hex="007B"/>
  <outline>
    <contour>
      <point x="296" y="-180" type="curve" smooth="yes"/>
      <point x="369" y="-180" type="line" smooth="yes"/>
      <point x="418" y="-180"/>
      <point x="454" y="-148"/>
      <point x="454" y="-104" type="curve" smooth="yes"/>
      <point x="454" y="-60"/>
      <point x="429" y="-28"/>
      <point x="385" y="-28" type="curve" smooth="yes"/>
      <point x="380" y="-28" type="line" smooth="yes"/>
      <point x="355" y="-28"/>
      <point x="345" y="-14"/>
      <point x="345" y="14" type="curve" smooth="yes"/>
      <point x="345" y="134" type="line" smooth="yes"/>
      <point x="345" y="200"/>
      <point x="293" y="263"/>
      <point x="239" y="263" type="curve"/>
      <point x="239" y="259" type="line"/>
      <point x="293" y="259"/>
      <point x="345" y="323"/>
      <point x="345" y="389" type="curve" smooth="yes"/>
      <point x="345" y="511" type="line" smooth="yes"/>
      <point x="345" y="539"/>
      <point x="355" y="553"/>
      <point x="379" y="553" type="curve" smooth="yes"/>
      <point x="385" y="553" type="line" smooth="yes"/>
      <point x="429" y="553"/>
      <point x="454" y="585"/>
      <point x="454" y="629" type="curve" smooth="yes"/>
      <point x="454" y="673"/>
      <point x="418" y="705"/>
      <point x="369" y="705" type="curve" smooth="yes"/>
      <point x="296" y="705" type="line" smooth="yes"/>
      <point x="197" y="705"/>
      <point x="137" y="645"/>
      <point x="137" y="547" type="curve" smooth="yes"/>
      <point x="137" y="415" type="line" smooth="yes"/>
      <point x="137" y="363"/>
      <point x="124" y="343"/>
      <point x="85" y="340" type="curve" smooth="yes"/>
      <point x="44" y="337"/>
      <point x="22" y="305"/>
      <point x="22" y="262" type="curve" smooth="yes"/>
      <point x="22" y="219"/>
      <point x="44" y="186"/>
      <point x="85" y="183" type="curve" smooth="yes"/>
      <point x="124" y="180"/>
      <point x="137" y="160"/>
      <point x="137" y="108" type="curve" smooth="yes"/>
      <point x="137" y="-22" type="line" smooth="yes"/>
      <point x="137" y="-120"/>
      <point x="197" y="-180"/>
    </contour>
  </outline>
</glyph>
<glyph name="bar" format="2">
  <advance width="332"/>
  <unicode hex="007C"/>
  <outline>
    <contour>
      <point x="166" y="-190" type="curve" smooth="yes"/>
      <point x="234" y="-190"/>
      <point x="270" y="-153"/>
      <point x="270" y="-85" type="curve" smooth="yes"/>
      <point x="270" y="610" type="line" smooth="yes"/>
      <point x="270" y="678"/>
      <point x="233" y="715"/>
      <point x="166" y="715" type="curve" smooth="yes"/>
      <point x="99" y="715"/>
      <point x="62" y="678"/>
      <point x="62" y="610" type="curve" smooth="yes"/>
      <point x="62" y="-85" type="line" smooth="yes"/>
      <point x="62" y="-153"/>
      <point x="99" y="-190"/>
    </contour>
  </outline>
</glyph>
<glyph name="braceright" format="2">
  <advance width="464"/>
  <unicode hex="007D"/>
  <outline>
    <contour>
      <point x="95" y="-180" type="curve" smooth="yes"/>
      <point x="168" y="-180" type="line" smooth="yes"/>
      <point x="267" y="-180"/>
      <point x="327" y="-120"/>
      <point x="327" y="-22" type="curve" smooth="yes"/>
      <point x="327" y="108" type="line" smooth="yes"/>
      <point x="327" y="160"/>
      <point x="340" y="180"/>
      <point x="379" y="183" type="curve" smooth="yes"/>
      <point x="420" y="186"/>
      <point x="442" y="219"/>
      <point x="442" y="262" type="curve" smooth="yes"/>
      <point x="442" y="305"/>
      <point x="420" y="337"/>
      <point x="379" y="340" type="curve" smooth="yes"/>
      <point x="340" y="343"/>
      <point x="327" y="363"/>
      <point x="327" y="415" type="curve" smooth="yes"/>
      <point x="327" y="547" type="line" smooth="yes"/>
      <point x="327" y="645"/>
      <point x="267" y="705"/>
      <point x="168" y="705" type="curve" smooth="yes"/>
      <point x="95" y="705" type="line" smooth="yes"/>
      <point x="46" y="705"/>
      <point x="10" y="673"/>
      <point x="10" y="629" type="curve" smooth="yes"/>
      <point x="10" y="585"/>
      <point x="35" y="553"/>
      <point x="79" y="553" type="curve" smooth="yes"/>
      <point x="85" y="553" type="line" smooth="yes"/>
      <point x="109" y="553"/>
      <point x="119" y="539"/>
      <point x="119" y="511" type="curve" smooth="yes"/>
      <point x="119" y="389" type="line" smooth="yes"/>
      <point x="119" y="323"/>
      <point x="171" y="259"/>
      <point x="225" y="259" type="curve"/>
      <point x="225" y="263" type="line"/>
      <point x="171" y="263"/>
      <point x="119" y="200"/>
      <point x="119" y="134" type="curve" smooth="yes"/>
      <point x="119" y="14" type="line" smooth="yes"/>
      <point x="119" y="-14"/>
      <point x="109" y="-28"/>
      <point x="84" y="-28" type="curve" smooth="yes"/>
      <point x="79" y="-28" type="line" smooth="yes"/>
      <point x="35" y="-28"/>
      <point x="10" y="-60"/>
      <point x="10" y="-104" type="curve" smooth="yes"/>
      <point x="10" y="-148"/>
      <point x="46" y="-180"/>
    </contour>
  </outline>
</glyph>
<glyph name="cent" format="2">
  <advance width="600"/>
  <unicode hex="00A2"/>
  <outline>
    <contour>
      <point x="316" y="-125" type="curve" smooth="yes"/>
      <point x="362" y="-125"/>
      <point x="396" y="-90"/>
      <point x="396" y="-44" type="curve" smooth="yes"/>
      <point x="396" y="30" type="line"/>
      <point x="351" y="-9" type="line"/>
      <point x="401" y="-7"/>
      <point x="446" y="4"/>
      <point x="484" y="19" type="curve" smooth="yes"/>
      <point x="574" y="54"/>
      <point x="540" y="198"/>
      <point x="438" y="166" type="curve" smooth="yes"/>
      <point x="409" y="157"/>
      <point x="387" y="153"/>
      <point x="374" y="153" type="curve" smooth="yes"/>
      <point x="310" y="153"/>
      <point x="278" y="198"/>
      <point x="278" y="251" type="curve" smooth="yes"/>
      <point x="278" y="304"/>
      <point x="311" y="344"/>
      <point x="374" y="344" type="curve" smooth="yes"/>
      <point x="395" y="344"/>
      <point x="417" y="340"/>
      <point x="438" y="332" type="curve" smooth="yes"/>
      <point x="529" y="301"/>
      <point x="579" y="439"/>
      <point x="493" y="474" type="curve" smooth="yes"/>
      <point x="453" y="490"/>
      <point x="404" y="499"/>
      <point x="352" y="500" type="curve"/>
      <point x="396" y="463" type="line"/>
      <point x="396" y="542" type="line" smooth="yes"/>
      <point x="396" y="588"/>
      <point x="362" y="623"/>
      <point x="316" y="623" type="curve" smooth="yes"/>
      <point x="270" y="623"/>
      <point x="236" y="588"/>
      <point x="236" y="542" type="curve" smooth="yes"/>
      <point x="236" y="449" type="line"/>
      <point x="274" y="492" type="line"/>
      <point x="146" y="464"/>
      <point x="65" y="367"/>
      <point x="65" y="246" type="curve" smooth="yes"/>
      <point x="65" y="119"/>
      <point x="141" y="28"/>
      <point x="274" y="-3" type="curve"/>
      <point x="236" y="42" type="line"/>
      <point x="236" y="-44" type="line" smooth="yes"/>
      <point x="236" y="-90"/>
      <point x="270" y="-125"/>
    </contour>
  </outline>
</glyph>
<glyph name="currency" format="2">
  <advance width="600"/>
  <unicode hex="00A4"/>
  <outline>
    <contour>
      <point x="46" y="-14" type="curve" smooth="yes"/>
      <point x="65" y="-33"/>
      <point x="94" y="-31"/>
      <point x="113" y="-12" type="curve" smooth="yes"/>
      <point x="161" y="37" type="line"/>
      <point x="200" y="12"/>
      <point x="246" y="-3"/>
      <point x="296" y="-3" type="curve" smooth="yes"/>
      <point x="348" y="-3"/>
      <point x="395" y="12"/>
      <point x="435" y="40" type="curve"/>
      <point x="485" y="-11" type="line" smooth="yes"/>
      <point x="504" y="-31"/>
      <point x="532" y="-31"/>
      <point x="551" y="-13" type="curve" smooth="yes"/>
      <point x="570" y="5"/>
      <point x="569" y="33"/>
      <point x="550" y="53" type="curve" smooth="yes"/>
      <point x="499" y="106" type="line"/>
      <point x="524" y="146"/>
      <point x="539" y="194"/>
      <point x="539" y="245" type="curve" smooth="yes"/>
      <point x="539" y="295"/>
      <point x="526" y="341"/>
      <point x="501" y="381" type="curve"/>
      <point x="552" y="432" type="line" smooth="yes"/>
      <point x="572" y="452"/>
      <point x="572" y="484"/>
      <point x="551" y="505" type="curve" smooth="yes"/>
      <point x="530" y="526"/>
      <point x="497" y="523"/>
      <point x="478" y="504" type="curve" smooth="yes"/>
      <point x="429" y="454" type="line"/>
      <point x="391" y="479"/>
      <point x="345" y="493"/>
      <point x="296" y="493" type="curve" smooth="yes"/>
      <point x="248" y="493"/>
      <point x="202" y="478"/>
      <point x="163" y="454" type="curve"/>
      <point x="114" y="504" type="line" smooth="yes"/>
      <point x="95" y="524"/>
      <point x="65" y="523"/>
      <point x="46" y="504" type="curve" smooth="yes"/>
      <point x="27" y="485"/>
      <point x="27" y="456"/>
      <point x="46" y="437" type="curve" smooth="yes"/>
      <point x="95" y="387" type="line"/>
      <point x="68" y="346"/>
      <point x="52" y="298"/>
      <point x="52" y="245" type="curve" smooth="yes"/>
      <point x="52" y="193"/>
      <point x="68" y="144"/>
      <point x="95" y="103" type="curve"/>
      <point x="46" y="53" type="line" smooth="yes"/>
      <point x="27" y="34"/>
      <point x="27" y="5"/>
    </contour>
    <contour>
      <point x="297" y="155" type="curve" smooth="yes"/>
      <point x="247" y="155"/>
      <point x="212" y="196"/>
      <point x="212" y="245" type="curve" smooth="yes"/>
      <point x="212" y="294"/>
      <point x="250" y="336"/>
      <point x="297" y="335" type="curve" smooth="yes"/>
      <point x="342" y="334"/>
      <point x="381" y="294"/>
      <point x="381" y="245" type="curve" smooth="yes"/>
      <point x="381" y="196"/>
      <point x="342" y="155"/>
    </contour>
  </outline>
</glyph>
<glyph name="brokenbar" format="2">
  <advance width="332"/>
  <unicode hex="00A6"/>
  <outline>
    <contour>
      <point x="166" y="361" type="curve" smooth="yes"/>
      <point x="234" y="361"/>
      <point x="270" y="398"/>
      <point x="270" y="466" type="curve" smooth="yes"/>
      <point x="270" y="610" type="line" smooth="yes"/>
      <point x="270" y="678"/>
      <point x="233" y="715"/>
      <point x="166" y="715" type="curve" smooth="yes"/>
      <point x="99" y="715"/>
      <point x="62" y="678"/>
      <point x="62" y="610" type="curve" smooth="yes"/>
      <point x="62" y="466" type="line" smooth="yes"/>
      <point x="62" y="398"/>
      <point x="99" y="361"/>
    </contour>
    <contour>
      <point x="166" y="-190" type="curve" smooth="yes"/>
      <point x="234" y="-190"/>
      <point x="270" y="-153"/>
      <point x="270" y="-85" type="curve" smooth="yes"/>
      <point x="270" y="59" type="line" smooth="yes"/>
      <point x="270" y="127"/>
      <point x="233" y="164"/>
      <point x="166" y="164" type="curve" smooth="yes"/>
      <point x="99" y="164"/>
      <point x="62" y="127"/>
      <point x="62" y="59" type="curve" smooth="yes"/>
      <point x="62" y="-85" type="line" smooth="yes"/>
      <point x="62" y="-153"/>
      <point x="99" y="-190"/>
    </contour>
  </outline>
</glyph>
<glyph name="copyright" format="2">
  <advance width="815"/>
  <unicode hex="00A9"/>
  <outline>
    <contour>
      <point x="408" y="-12" type="curve" smooth="yes"/>
      <point x="614" y="-12"/>
      <point x="772" y="147"/>
      <point x="772" y="353" type="curve" smooth="yes"/>
      <point x="772" y="559"/>
      <point x="614" y="717"/>
      <point x="408" y="717" type="curve" smooth="yes"/>
      <point x="201" y="717"/>
      <point x="43" y="559"/>
      <point x="43" y="353" type="curve" smooth="yes"/>
      <point x="43" y="147"/>
      <point x="200" y="-12"/>
    </contour>
    <contour>
      <point x="408" y="58" type="curve" smooth="yes"/>
      <point x="238" y="58"/>
      <point x="118" y="185"/>
      <point x="118" y="353" type="curve" smooth="yes"/>
      <point x="118" y="521"/>
      <point x="238" y="647"/>
      <point x="408" y="647" type="curve" smooth="yes"/>
      <point x="577" y="647"/>
      <point x="697" y="521"/>
      <point x="697" y="353" type="curve" smooth="yes"/>
      <point x="697" y="185"/>
      <point x="577" y="58"/>
    </contour>
    <contour>
      <point x="434" y="137" type="curve" smooth="yes"/>
      <point x="467" y="137"/>
      <point x="502" y="142"/>
      <point x="537" y="155" type="curve" smooth="yes"/>
      <point x="613" y="183"/>
      <point x="581" y="301"/>
      <point x="503" y="275" type="curve" smooth="yes"/>
      <point x="485" y="269"/>
      <point x="470" y="266"/>
      <point x="452" y="266" type="curve" smooth="yes"/>
      <point x="403" y="266"/>
      <point x="372" y="297"/>
      <point x="372" y="352" type="curve" smooth="yes"/>
      <point x="372" y="407"/>
      <point x="403" y="439"/>
      <point x="452" y="439" type="curve" smooth="yes"/>
      <point x="470" y="439"/>
      <point x="485" y="436"/>
      <point x="503" y="429" type="curve" smooth="yes"/>
      <point x="579" y="399"/>
      <point x="602" y="530"/>
      <point x="524" y="554" type="curve" smooth="yes"/>
      <point x="489" y="565"/>
      <point x="463" y="568"/>
      <point x="434" y="568" type="curve" smooth="yes"/>
      <point x="293" y="568"/>
      <point x="201" y="486"/>
      <point x="201" y="352" type="curve" smooth="yes"/>
      <point x="201" y="218"/>
      <point x="293" y="137"/>
    </contour>
  </outline>
</glyph>
<glyph name="ordfeminine" format="2">
  <advance width="362"/>
  <unicode hex="00AA"/>
  <outline>
    <contour>
      <point x="132" y="402" type="curve" smooth="yes"/>
      <point x="175" y="402"/>
      <point x="201" y="426"/>
      <point x="219" y="466" type="curve"/>
      <point x="222" y="466" type="line"/>
      <point x="222" y="464" type="line" smooth="yes"/>
      <point x="222" y="430"/>
      <point x="243" y="402"/>
      <point x="282" y="402" type="curve" smooth="yes"/>
      <point x="320" y="402"/>
      <point x="341" y="424"/>
      <point x="341" y="463" type="curve" smooth="yes"/>
      <point x="341" y="587" type="line" smooth="yes"/>
      <point x="341" y="673"/>
      <point x="287" y="717"/>
      <point x="175" y="717" type="curve" smooth="yes"/>
      <point x="147" y="717"/>
      <point x="114" y="715"/>
      <point x="76" y="704" type="curve" smooth="yes"/>
      <point x="9" y="684"/>
      <point x="29" y="603"/>
      <point x="95" y="616" type="curve" smooth="yes"/>
      <point x="131" y="624"/>
      <point x="149" y="626"/>
      <point x="162" y="626" type="curve" smooth="yes"/>
      <point x="201" y="626"/>
      <point x="215" y="616"/>
      <point x="215" y="593" type="curve" smooth="yes"/>
      <point x="215" y="535" type="line" smooth="yes"/>
      <point x="215" y="502"/>
      <point x="194" y="482"/>
      <point x="169" y="482" type="curve" smooth="yes"/>
      <point x="147" y="482"/>
      <point x="137" y="492"/>
      <point x="137" y="506" type="curve" smooth="yes"/>
      <point x="137" y="525"/>
      <point x="148" y="533"/>
      <point x="195" y="533" type="curve" smooth="yes"/>
      <point x="228" y="533" type="line"/>
      <point x="228" y="593" type="line"/>
      <point x="191" y="593" type="line" smooth="yes"/>
      <point x="62" y="593"/>
      <point x="11" y="568"/>
      <point x="11" y="503" type="curve" smooth="yes"/>
      <point x="11" y="445"/>
      <point x="59" y="402"/>
    </contour>
  </outline>
</glyph>
<glyph name="registered" format="2">
  <advance width="815"/>
  <unicode hex="00AE"/>
  <outline>
    <contour>
      <point x="408" y="-12" type="curve" smooth="yes"/>
      <point x="614" y="-12"/>
      <point x="772" y="147"/>
      <point x="772" y="353" type="curve" smooth="yes"/>
      <point x="772" y="559"/>
      <point x="614" y="717"/>
      <point x="408" y="717" type="curve" smooth="yes"/>
      <point x="201" y="717"/>
      <point x="43" y="559"/>
      <point x="43" y="353" type="curve" smooth="yes"/>
      <point x="43" y="147"/>
      <point x="200" y="-12"/>
    </contour>
    <contour>
      <point x="408" y="58" type="curve" smooth="yes"/>
      <point x="238" y="58"/>
      <point x="118" y="185"/>
      <point x="118" y="353" type="curve" smooth="yes"/>
      <point x="118" y="521"/>
      <point x="238" y="647"/>
      <point x="408" y="647" type="curve" smooth="yes"/>
      <point x="577" y="647"/>
      <point x="697" y="521"/>
      <point x="697" y="353" type="curve" smooth="yes"/>
      <point x="697" y="185"/>
      <point x="577" y="58"/>
    </contour>
    <contour>
      <point x="308" y="136" type="curve" smooth="yes"/>
      <point x="357" y="136"/>
      <point x="384" y="163"/>
      <point x="384" y="213" type="curve" smooth="yes"/>
      <point x="384" y="298" type="line"/>
      <point x="363" y="285" type="line"/>
      <point x="394" y="285" type="line" smooth="yes"/>
      <point x="407" y="285"/>
      <point x="418" y="279"/>
      <point x="422" y="258" type="curve" smooth="yes"/>
      <point x="434" y="196" type="line" smooth="yes"/>
      <point x="441" y="158"/>
      <point x="466" y="136"/>
      <point x="502" y="136" type="curve" smooth="yes"/>
      <point x="556" y="136"/>
      <point x="593" y="161"/>
      <point x="580" y="223" type="curve" smooth="yes"/>
      <point x="576" y="242" type="line" smooth="yes"/>
      <point x="561" y="312"/>
      <point x="534" y="329"/>
      <point x="488" y="329" type="curve"/>
      <point x="447" y="317" type="line"/>
      <point x="539" y="317"/>
      <point x="594" y="359"/>
      <point x="594" y="437" type="curve" smooth="yes"/>
      <point x="594" y="508"/>
      <point x="537" y="566"/>
      <point x="437" y="566" type="curve" smooth="yes"/>
      <point x="321" y="566" type="line" smooth="yes"/>
      <point x="264" y="566"/>
      <point x="232" y="534"/>
      <point x="232" y="477" type="curve" smooth="yes"/>
      <point x="232" y="213" type="line" smooth="yes"/>
      <point x="232" y="163"/>
      <point x="259" y="136"/>
    </contour>
    <contour>
      <point x="382" y="392" type="line"/>
      <point x="382" y="460" type="line"/>
      <point x="415" y="460" type="line" smooth="yes"/>
      <point x="438" y="460"/>
      <point x="452" y="451"/>
      <point x="452" y="426" type="curve" smooth="yes"/>
      <point x="452" y="401"/>
      <point x="439" y="392"/>
      <point x="415" y="392" type="curve" smooth="yes"/>
    </contour>
  </outline>
</glyph>
<glyph name="plusminus" format="2">
  <advance width="600"/>
  <unicode hex="00B1"/>
  <outline>
    <contour>
      <point x="300" y="151" type="curve" smooth="yes"/>
      <point x="346" y="151"/>
      <point x="371" y="177"/>
      <point x="371" y="223" type="curve" smooth="yes"/>
      <point x="371" y="278" type="line"/>
      <point x="484" y="278" type="line" smooth="yes"/>
      <point x="529" y="278"/>
      <point x="554" y="303"/>
      <point x="554" y="347" type="curve" smooth="yes"/>
      <point x="554" y="391"/>
      <point x="529" y="416"/>
      <point x="484" y="416" type="curve" smooth="yes"/>
      <point x="371" y="416" type="line"/>
      <point x="371" y="471" type="line" smooth="yes"/>
      <point x="371" y="517"/>
      <point x="346" y="543"/>
      <point x="300" y="543" type="curve" smooth="yes"/>
      <point x="254" y="543"/>
      <point x="229" y="517"/>
      <point x="229" y="471" type="curve" smooth="yes"/>
      <point x="229" y="416" type="line"/>
      <point x="116" y="416" type="line" smooth="yes"/>
      <point x="71" y="416"/>
      <point x="46" y="391"/>
      <point x="46" y="347" type="curve" smooth="yes"/>
      <point x="46" y="303"/>
      <point x="71" y="278"/>
      <point x="116" y="278" type="curve" smooth="yes"/>
      <point x="229" y="278" type="line"/>
      <point x="229" y="223" type="line" smooth="yes"/>
      <point x="229" y="177"/>
      <point x="254" y="151"/>
    </contour>
    <contour>
      <point x="115" y="0" type="curve" smooth="yes"/>
      <point x="485" y="0" type="line" smooth="yes"/>
      <point x="529" y="0"/>
      <point x="554" y="24"/>
      <point x="554" y="68" type="curve" smooth="yes"/>
      <point x="554" y="112"/>
      <point x="529" y="136"/>
      <point x="485" y="136" type="curve" smooth="yes"/>
      <point x="115" y="136" type="line" smooth="yes"/>
      <point x="71" y="136"/>
      <point x="46" y="112"/>
      <point x="46" y="68" type="curve" smooth="yes"/>
      <point x="46" y="24"/>
      <point x="71" y="0"/>
    </contour>
  </outline>
</glyph>
<glyph name="micro" format="2">
  <advance width="600"/>
  <unicode hex="00B5"/>
  <outline>
    <contour>
      <point x="141" y="-190" type="curve" smooth="yes"/>
      <point x="208" y="-190"/>
      <point x="241" y="-151"/>
      <point x="236" y="-81" type="curve" smooth="yes"/>
      <point x="229" y="20" type="line"/>
      <point x="233" y="20" type="line"/>
      <point x="246" y="0"/>
      <point x="259" y="-12"/>
      <point x="286" y="-12" type="curve" smooth="yes"/>
      <point x="317" y="-12"/>
      <point x="351" y="22"/>
      <point x="357" y="83" type="curve"/>
      <point x="361" y="83" type="line"/>
      <point x="361" y="75" type="line" smooth="yes"/>
      <point x="361" y="27"/>
      <point x="397" y="-10"/>
      <point x="463" y="-10" type="curve" smooth="yes"/>
      <point x="529" y="-10"/>
      <point x="564" y="27"/>
      <point x="564" y="95" type="curve" smooth="yes"/>
      <point x="564" y="399" type="line" smooth="yes"/>
      <point x="564" y="467"/>
      <point x="527" y="504"/>
      <point x="460" y="504" type="curve" smooth="yes"/>
      <point x="393" y="504"/>
      <point x="356" y="467"/>
      <point x="356" y="399" type="curve" smooth="yes"/>
      <point x="356" y="223" type="line" smooth="yes"/>
      <point x="356" y="177"/>
      <point x="329" y="146"/>
      <point x="292" y="146" type="curve" smooth="yes"/>
      <point x="260" y="146"/>
      <point x="245" y="165"/>
      <point x="245" y="201" type="curve" smooth="yes"/>
      <point x="245" y="399" type="line" smooth="yes"/>
      <point x="245" y="467"/>
      <point x="208" y="504"/>
      <point x="141" y="504" type="curve" smooth="yes"/>
      <point x="74" y="504"/>
      <point x="37" y="467"/>
      <point x="37" y="399" type="curve" smooth="yes"/>
      <point x="37" y="-85" type="line" smooth="yes"/>
      <point x="37" y="-153"/>
      <point x="74" y="-190"/>
    </contour>
  </outline>
</glyph>
<glyph name="paragraph" format="2">
  <advance width="692"/>
  <unicode hex="00B6"/>
  <outline>
    <contour>
      <point x="328" y="-190" type="curve" smooth="yes"/>
      <point x="374" y="-190"/>
      <point x="398" y="-165"/>
      <point x="398" y="-119" type="curve" smooth="yes"/>
      <point x="398" y="565" type="line"/>
      <point x="495" y="565" type="line"/>
      <point x="495" y="-119" type="line" smooth="yes"/>
      <point x="495" y="-165"/>
      <point x="520" y="-190"/>
      <point x="565" y="-190" type="curve" smooth="yes"/>
      <point x="610" y="-190"/>
      <point x="635" y="-165"/>
      <point x="635" y="-119" type="curve" smooth="yes"/>
      <point x="635" y="609" type="line" smooth="yes"/>
      <point x="635" y="671"/>
      <point x="601" y="705"/>
      <point x="539" y="705" type="curve" smooth="yes"/>
      <point x="262" y="705" type="line" smooth="yes"/>
      <point x="116" y="705"/>
      <point x="19" y="613"/>
      <point x="19" y="468" type="curve" smooth="yes"/>
      <point x="19" y="322"/>
      <point x="116" y="229"/>
      <point x="258" y="229" type="curve"/>
      <point x="258" y="-119" type="line" smooth="yes"/>
      <point x="258" y="-165"/>
      <point x="283" y="-190"/>
    </contour>
  </outline>
</glyph>
<glyph name="periodcentered" format="2">
  <advance width="285"/>
  <unicode hex="00B7"/>
  <outline>
    <contour>
      <point x="143" y="160" type="curve" smooth="yes"/>
      <point x="213" y="160"/>
      <point x="254" y="205"/>
      <point x="254" y="270" type="curve" smooth="yes"/>
      <point x="254" y="335"/>
      <point x="213" y="379"/>
      <point x="143" y="379" type="curve" smooth="yes"/>
      <point x="73" y="379"/>
      <point x="31" y="335"/>
      <point x="31" y="270" type="curve" smooth="yes"/>
      <point x="31" y="205"/>
      <point x="73" y="160"/>
    </contour>
  </outline>
</glyph>
<glyph name="Thorn" format="2">
  <advance width="693"/>
  <unicode hex="00DE"/>
  <anchor x="352" y="0" name="bottom"/>
  <anchor x="351" y="705" name="top"/>
  <outline>
    <contour>
      <point x="165" y="0" type="curve" smooth="yes"/>
      <point x="235" y="0"/>
      <point x="272" y="39"/>
      <point x="272" y="109" type="curve" smooth="yes"/>
      <point x="272" y="131" type="line"/>
      <point x="419" y="131" type="line" smooth="yes"/>
      <point x="581" y="131"/>
      <point x="674" y="221"/>
      <point x="674" y="368" type="curve" smooth="yes"/>
      <point x="674" y="515"/>
      <point x="581" y="605"/>
      <point x="419" y="605" type="curve" smooth="yes"/>
      <point x="272" y="605" type="line"/>
      <point x="272" y="611" type="line" smooth="yes"/>
      <point x="272" y="666"/>
      <point x="236" y="705"/>
      <point x="168" y="705" type="curve" smooth="yes"/>
      <point x="98" y="705"/>
      <point x="57" y="666"/>
      <point x="57" y="596" type="curve" smooth="yes"/>
      <point x="57" y="109" type="line" smooth="yes"/>
      <point x="57" y="39"/>
      <point x="96" y="0"/>
    </contour>
    <contour>
      <point x="272" y="295" type="line"/>
      <point x="272" y="441" type="line"/>
      <point x="379" y="441" type="line" smooth="yes"/>
      <point x="437" y="441"/>
      <point x="470" y="418"/>
      <point x="470" y="368" type="curve" smooth="yes"/>
      <point x="470" y="318"/>
      <point x="437" y="295"/>
      <point x="379" y="295" type="curve" smooth="yes"/>
    </contour>
  </outline>
</glyph>
<glyph name="ae" format="2">
  <advance width="873"/>
  <unicode hex="00E6"/>
  <anchor x="414" y="0" name="bottom"/>
  <anchor x="414" y="484" name="top"/>
  <outline>
    <contour>
      <point x="238" y="-12" type="curve" smooth="yes"/>
      <point x="335" y="-12"/>
      <point x="401" y="26"/>
      <point x="430" y="98" type="curve"/>
      <point x="402" y="98" type="line"/>
      <point x="444" y="25"/>
      <point x="529" y="-12"/>
      <point x="638" y="-12" type="curve" smooth="yes"/>
      <point x="692" y="-12"/>
      <point x="740" y="-1"/>
      <point x="785" y="15" type="curve" smooth="yes"/>
      <point x="873" y="46"/>
      <point x="839" y="189"/>
      <point x="743" y="156" type="curve" smooth="yes"/>
      <point x="711" y="145"/>
      <point x="675" y="139"/>
      <point x="646" y="139" type="curve" smooth="yes"/>
      <point x="563" y="139"/>
      <point x="534" y="168"/>
      <point x="534" y="256" type="curve" smooth="yes"/>
      <point x="534" y="263" type="line" smooth="yes"/>
      <point x="534" y="341"/>
      <point x="560" y="373"/>
      <point x="611" y="373" type="curve" smooth="yes"/>
      <point x="658" y="373"/>
      <point x="683" y="347"/>
      <point x="683" y="286" type="curve"/>
      <point x="698" y="297" type="line"/>
      <point x="525" y="297" type="line"/>
      <point x="525" y="206" type="line"/>
      <point x="808" y="206" type="line" smooth="yes"/>
      <point x="846" y="206"/>
      <point x="853" y="223"/>
      <point x="853" y="246" type="curve" smooth="yes"/>
      <point x="853" y="256" type="line" smooth="yes"/>
      <point x="853" y="408"/>
      <point x="748" y="506"/>
      <point x="601" y="506" type="curve" smooth="yes"/>
      <point x="532" y="506"/>
      <point x="474" y="486"/>
      <point x="431" y="439" type="curve"/>
      <point x="472" y="439" type="line"/>
      <point x="434" y="488"/>
      <point x="361" y="506"/>
      <point x="279" y="506" type="curve" smooth="yes"/>
      <point x="235" y="506"/>
      <point x="182" y="500"/>
      <point x="118" y="478" type="curve" smooth="yes"/>
      <point x="14" y="442"/>
      <point x="52" y="302"/>
      <point x="154" y="335" type="curve" smooth="yes"/>
      <point x="204" y="351"/>
      <point x="239" y="356"/>
      <point x="269" y="356" type="curve" smooth="yes"/>
      <point x="319" y="356"/>
      <point x="337" y="343"/>
      <point x="337" y="309" type="curve" smooth="yes"/>
      <point x="337" y="192" type="line" smooth="yes"/>
      <point x="337" y="148"/>
      <point x="309" y="121"/>
      <point x="270" y="121" type="curve" smooth="yes"/>
      <point x="235" y="121"/>
      <point x="219" y="138"/>
      <point x="219" y="162" type="curve" smooth="yes"/>
      <point x="219" y="189"/>
      <point x="250" y="206"/>
      <point x="302" y="206" type="curve" smooth="yes"/>
      <point x="353" y="206" type="line"/>
      <point x="353" y="297" type="line"/>
      <point x="308" y="297" type="line" smooth="yes"/>
      <point x="101" y="297"/>
      <point x="22" y="261"/>
      <point x="22" y="154" type="curve" smooth="yes"/>
      <point x="22" y="58"/>
      <point x="102" y="-12"/>
    </contour>
  </outline>
</glyph>
<glyph name="eth" format="2">
  <advance width="620"/>
  <unicode hex="00F0"/>
  <outline>
    <contour>
      <point x="299" y="-12" type="curve" smooth="yes"/>
      <point x="489" y="-12"/>
      <point x="599" y="109"/>
      <point x="599" y="295" type="curve" smooth="yes"/>
      <point x="599" y="388"/>
      <point x="549" y="513"/>
      <point x="438" y="602" type="curve"/>
      <point x="429" y="582" type="line"/>
      <point x="517" y="624" type="line" smooth="yes"/>
      <point x="582" y="655"/>
      <point x="541" y="735"/>
      <point x="476" y="704" type="curve" smooth="yes"/>
      <point x="342" y="640" type="line"/>
      <point x="373" y="646" type="line"/>
      <point x="328" y="672"/>
      <point x="274" y="693"/>
      <point x="214" y="708" type="curve" smooth="yes"/>
      <point x="106" y="735"/>
      <point x="65" y="610"/>
      <point x="163" y="582" type="curve" smooth="yes"/>
      <point x="182" y="577"/>
      <point x="199" y="571"/>
      <point x="217" y="563" type="curve"/>
      <point x="214" y="579" type="line"/>
      <point x="132" y="540" type="line" smooth="yes"/>
      <point x="65" y="508"/>
      <point x="107" y="429"/>
      <point x="170" y="459" type="curve" smooth="yes"/>
      <point x="316" y="528" type="line"/>
      <point x="287" y="529" type="line"/>
      <point x="359" y="484"/>
      <point x="405" y="420"/>
      <point x="406" y="344" type="curve"/>
      <point x="440" y="344" type="line"/>
      <point x="409" y="419"/>
      <point x="355" y="445"/>
      <point x="276" y="445" type="curve" smooth="yes"/>
      <point x="130" y="445"/>
      <point x="24" y="350"/>
      <point x="24" y="221" type="curve" smooth="yes"/>
      <point x="24" y="85"/>
      <point x="137" y="-12"/>
    </contour>
    <contour>
      <point x="308" y="142" type="curve" smooth="yes"/>
      <point x="262" y="142"/>
      <point x="233" y="172"/>
      <point x="233" y="220" type="curve" smooth="yes"/>
      <point x="233" y="266"/>
      <point x="261" y="296"/>
      <point x="307" y="296" type="curve" smooth="yes"/>
      <point x="357" y="296"/>
      <point x="381" y="266"/>
      <point x="381" y="220" type="curve" smooth="yes"/>
      <point x="381" y="174"/>
      <point x="356" y="142"/>
    </contour>
  </outline>
</glyph>
<glyph name="divide" format="2">
  <advance width="600"/>
  <unicode hex="00F7"/>
  <outline>
    <contour>
      <point x="115" y="219" type="curve" smooth="yes"/>
      <point x="485" y="219" type="line" smooth="yes"/>
      <point x="529" y="219"/>
      <point x="554" y="243"/>
      <point x="554" y="287" type="curve" smooth="yes"/>
      <point x="554" y="331"/>
      <point x="529" y="355"/>
      <point x="485" y="355" type="curve" smooth="yes"/>
      <point x="115" y="355" type="line" smooth="yes"/>
      <point x="71" y="355"/>
      <point x="46" y="331"/>
      <point x="46" y="287" type="curve" smooth="yes"/>
      <point x="46" y="243"/>
      <point x="71" y="219"/>
    </contour>
    <contour>
      <point x="294" y="18" type="curve" smooth="yes"/>
      <point x="343" y="18"/>
      <point x="369" y="45"/>
      <point x="369" y="94" type="curve" smooth="yes"/>
      <point x="369" y="143"/>
      <point x="342" y="169"/>
      <point x="294" y="169" type="curve" smooth="yes"/>
      <point x="246" y="169"/>
      <point x="219" y="142"/>
      <point x="219" y="94" type="curve" smooth="yes"/>
      <point x="219" y="45"/>
      <point x="246" y="18"/>
    </contour>
    <contour>
      <point x="294" y="405" type="curve" smooth="yes"/>
      <point x="343" y="405"/>
      <point x="369" y="432"/>
      <point x="369" y="481" type="curve" smooth="yes"/>
      <point x="369" y="530"/>
      <point x="342" y="556"/>
      <point x="294" y="556" type="curve" smooth="yes"/>
      <point x="246" y="556"/>
      <point x="219" y="529"/>
      <point x="219" y="481" type="curve" smooth="yes"/>
      <point x="219" y="432"/>
      <point x="246" y="405"/>
    </contour>
  </outline>
</glyph>
<glyph name="Aogonek" format="2">
  <advance width="773"/>
  <unicode hex="0104"/>
  <outline>
    <contour>
      <point x="700" y="-200" type="curve" smooth="yes"/>
      <point x="719" y="-200"/>
      <point x="744" y="-199"/>
      <point x="768" y="-192" type="curve" smooth="yes"/>
      <point x="829" y="-174"/>
      <point x="825" y="-90"/>
      <point x="753" y="-99" type="curve" smooth="yes"/>
      <point x="745" y="-100"/>
      <point x="737" y="-101"/>
      <point x="729" y="-101" type="curve" smooth="yes"/>
      <point x="699" y="-101"/>
      <point x="677" y="-85"/>
      <point x="677" y="-60" type="curve" smooth="yes"/>
      <point x="677" y="-40"/>
      <point x="687" y="-17"/>
      <point x="722" y="0" type="curve" smooth="yes"/>
      <point x="759" y="18"/>
      <point x="776" y="64"/>
      <point x="749" y="120" type="curve" smooth="yes"/>
      <point x="508" y="628" type="line" smooth="yes"/>
      <point x="480" y="688"/>
      <point x="440" y="715"/>
      <point x="387" y="715" type="curve" smooth="yes"/>
      <point x="333" y="715"/>
      <point x="293" y="688"/>
      <point x="265" y="628" type="curve" smooth="yes"/>
      <point x="24" y="120" type="line" smooth="yes"/>
      <point x="-11" y="46"/>
      <point x="32" y="-10"/>
      <point x="105" y="-10" type="curve" smooth="yes"/>
      <point x="166" y="-10"/>
      <point x="188" y="16"/>
      <point x="215" y="79" type="curve" smooth="yes"/>
      <point x="263" y="191" type="line"/>
      <point x="183" y="131" type="line"/>
      <point x="590" y="131" type="line"/>
      <point x="510" y="191" type="line"/>
      <point x="558" y="79" type="line" smooth="yes"/>
      <point x="575" y="38"/>
      <point x="593" y="14"/>
      <point x="618" y="1" type="curve"/>
      <point x="613" y="21" type="line"/>
      <point x="580" y="-5"/>
      <point x="558" y="-42"/>
      <point x="558" y="-84" type="curve" smooth="yes"/>
      <point x="558" y="-155"/>
      <point x="608" y="-200"/>
    </contour>
    <contour>
      <point x="385" y="483" type="line"/>
      <point x="387" y="483" type="line"/>
      <point x="490" y="238" type="line"/>
      <point x="520" y="295" type="line"/>
      <point x="253" y="295" type="line"/>
      <point x="283" y="238" type="line"/>
    </contour>
  </outline>
</glyph>
<glyph name="aogonek" format="2">
  <advance width="580"/>
  <unicode hex="0105"/>
  <outline>
    <contour>
      <point x="442" y="-200" type="curve" smooth="yes"/>
      <point x="461" y="-200"/>
      <point x="486" y="-199"/>
      <point x="510" y="-192" type="curve" smooth="yes"/>
      <point x="571" y="-174"/>
      <point x="567" y="-90"/>
      <point x="495" y="-99" type="curve" smooth="yes"/>
      <point x="487" y="-100"/>
      <point x="479" y="-101"/>
      <point x="471" y="-101" type="curve" smooth="yes"/>
      <point x="441" y="-101"/>
      <point x="419" y="-85"/>
      <point x="419" y="-60" type="curve" smooth="yes"/>
      <point x="419" y="-40"/>
      <point x="432" y="-12"/>
      <point x="459" y="-9" type="curve" smooth="yes"/>
      <point x="511" y="-3"/>
      <point x="538" y="33"/>
      <point x="538" y="95" type="curve" smooth="yes"/>
      <point x="538" y="276" type="line" smooth="yes"/>
      <point x="538" y="434"/>
      <point x="454" y="506"/>
      <point x="279" y="506" type="curve" smooth="yes"/>
      <point x="235" y="506"/>
      <point x="182" y="500"/>
      <point x="118" y="478" type="curve" smooth="yes"/>
      <point x="14" y="442"/>
      <point x="52" y="302"/>
      <point x="154" y="335" type="curve" smooth="yes"/>
      <point x="204" y="351"/>
      <point x="239" y="356"/>
      <point x="269" y="356" type="curve" smooth="yes"/>
      <point x="324" y="356"/>
      <point x="342" y="344"/>
      <point x="342" y="306" type="curve" smooth="yes"/>
      <point x="342" y="190" type="line" smooth="yes"/>
      <point x="342" y="148"/>
      <point x="309" y="121"/>
      <point x="270" y="121" type="curve" smooth="yes"/>
      <point x="235" y="121"/>
      <point x="219" y="138"/>
      <point x="219" y="162" type="curve" smooth="yes"/>
      <point x="219" y="189"/>
      <point x="250" y="206"/>
      <point x="302" y="206" type="curve" smooth="yes"/>
      <point x="361" y="206" type="line"/>
      <point x="361" y="297" type="line"/>
      <point x="303" y="297" type="line" smooth="yes"/>
      <point x="101" y="297"/>
      <point x="22" y="261"/>
      <point x="22" y="154" type="curve" smooth="yes"/>
      <point x="22" y="58"/>
      <point x="102" y="-12"/>
      <point x="221" y="-12" type="curve" smooth="yes"/>
      <point x="293" y="-12"/>
      <point x="341" y="27"/>
      <point x="350" y="87" type="curve"/>
      <point x="345" y="108" type="line"/>
      <point x="345" y="95" type="line" smooth="yes"/>
      <point x="345" y="62"/>
      <point x="353" y="37"/>
      <point x="369" y="18" type="curve"/>
      <point x="373" y="33" type="line"/>
      <point x="329" y="8"/>
      <point x="300" y="-35"/>
      <point x="300" y="-84" type="curve" smooth="yes"/>
      <point x="300" y="-155"/>
      <point x="350" y="-200"/>
    </contour>
  </outline>
</glyph>
<glyph name="Iogonek" format="2">
  <advance width="329"/>
  <unicode hex="012E"/>
  <outline>
    <contour>
      <point x="191" y="-200" type="curve" smooth="yes"/>
      <point x="210" y="-200"/>
      <point x="235" y="-199"/>
      <point x="259" y="-192" type="curve" smooth="yes"/>
      <point x="320" y="-174"/>
      <point x="316" y="-90"/>
      <point x="244" y="-99" type="curve" smooth="yes"/>
      <point x="236" y="-100"/>
      <point x="228" y="-101"/>
      <point x="220" y="-101" type="curve" smooth="yes"/>
      <point x="190" y="-101"/>
      <point x="168" y="-85"/>
      <point x="168" y="-60" type="curve" smooth="yes"/>
      <point x="168" y="-40"/>
      <point x="177" y="-17"/>
      <point x="212" y="-3" type="curve" smooth="yes"/>
      <point x="252" y="13"/>
      <point x="272" y="47"/>
      <point x="272" y="100" type="curve" smooth="yes"/>
      <point x="272" y="605" type="line" smooth="yes"/>
      <point x="272" y="676"/>
      <point x="234" y="715"/>
      <point x="165" y="715" type="curve" smooth="yes"/>
      <point x="96" y="715"/>
      <point x="57" y="676"/>
      <point x="57" y="605" type="curve" smooth="yes"/>
      <point x="57" y="100" type="line" smooth="yes"/>
      <point x="57" y="57"/>
      <point x="71" y="26"/>
      <point x="99" y="7" type="curve"/>
      <point x="100" y="17" type="line"/>
      <point x="68" y="-8"/>
      <point x="49" y="-44"/>
      <point x="49" y="-84" type="curve" smooth="yes"/>
      <point x="49" y="-155"/>
      <point x="99" y="-200"/>
    </contour>
  </outline>
</glyph>
<glyph name="kgreenlandic" format="2">
  <advance width="605"/>
  <unicode hex="0138"/>
  <anchor x="302" y="0" name="bottom"/>
  <anchor x="302" y="484" name="top"/>
  <outline>
    <contour>
      <point x="148" y="-10" type="curve" smooth="yes"/>
      <point x="216" y="-10"/>
      <point x="252" y="27"/>
      <point x="252" y="95" type="curve" smooth="yes"/>
      <point x="252" y="198" type="line"/>
      <point x="254" y="198" type="line"/>
      <point x="352" y="60" type="line" smooth="yes"/>
      <point x="386" y="11"/>
      <point x="418" y="-10"/>
      <point x="481" y="-10" type="curve" smooth="yes"/>
      <point x="559" y="-10"/>
      <point x="604" y="53"/>
      <point x="557" y="120" type="curve" smooth="yes"/>
      <point x="434" y="295" type="line"/>
      <point x="434" y="227" type="line"/>
      <point x="542" y="367" type="line" smooth="yes"/>
      <point x="591" y="431"/>
      <point x="560" y="504"/>
      <point x="474" y="504" type="curve" smooth="yes"/>
      <point x="416" y="504"/>
      <point x="389" y="483"/>
      <point x="353" y="435" type="curve" smooth="yes"/>
      <point x="254" y="302" type="line"/>
      <point x="252" y="302" type="line"/>
      <point x="252" y="399" type="line" smooth="yes"/>
      <point x="252" y="467"/>
      <point x="215" y="504"/>
      <point x="148" y="504" type="curve" smooth="yes"/>
      <point x="81" y="504"/>
      <point x="44" y="467"/>
      <point x="44" y="399" type="curve" smooth="yes"/>
      <point x="44" y="95" type="line" smooth="yes"/>
      <point x="44" y="27"/>
      <point x="81" y="-10"/>
    </contour>
  </outline>
</glyph>
<glyph name="eng" format="2">
  <advance width="618"/>
  <unicode hex="014B"/>
  <outline>
    <contour>
      <point x="351" y="-186" type="curve" smooth="yes"/>
      <point x="506" y="-186"/>
      <point x="576" y="-110"/>
      <point x="576" y="29" type="curve" smooth="yes"/>
      <point x="576" y="287" type="line" smooth="yes"/>
      <point x="576" y="436"/>
      <point x="520" y="506"/>
      <point x="403" y="506" type="curve" smooth="yes"/>
      <point x="330" y="506"/>
      <point x="269" y="472"/>
      <point x="236" y="415" type="curve"/>
      <point x="247" y="365" type="line"/>
      <point x="247" y="399" type="line" smooth="yes"/>
      <point x="247" y="467"/>
      <point x="211" y="504"/>
      <point x="146" y="504" type="curve" smooth="yes"/>
      <point x="80" y="504"/>
      <point x="44" y="467"/>
      <point x="44" y="399" type="curve" smooth="yes"/>
      <point x="44" y="95" type="line" smooth="yes"/>
      <point x="44" y="27"/>
      <point x="81" y="-10"/>
      <point x="148" y="-10" type="curve" smooth="yes"/>
      <point x="216" y="-10"/>
      <point x="252" y="27"/>
      <point x="252" y="95" type="curve" smooth="yes"/>
      <point x="252" y="272" type="line" smooth="yes"/>
      <point x="252" y="318"/>
      <point x="280" y="348"/>
      <point x="322" y="348" type="curve" smooth="yes"/>
      <point x="351" y="348"/>
      <point x="368" y="330"/>
      <point x="368" y="279" type="curve" smooth="yes"/>
      <point x="368" y="8" type="line" smooth="yes"/>
      <point x="368" y="-24"/>
      <point x="353" y="-39"/>
      <point x="319" y="-42" type="curve" smooth="yes"/>
      <point x="241" y="-49"/>
      <point x="231" y="-186"/>
    </contour>
  </outline>
</glyph>
<glyph name="OE" format="2">
  <advance width="1074"/>
  <unicode hex="0152"/>
  <anchor x="610" y="0" name="bottom"/>
  <anchor x="610" y="705" name="top"/>
  <outline>
    <contour>
      <point x="435" y="0" type="curve" smooth="yes"/>
      <point x="948" y="0" type="line" smooth="yes"/>
      <point x="1002" y="0"/>
      <point x="1031" y="29"/>
      <point x="1031" y="82" type="curve" smooth="yes"/>
      <point x="1031" y="135"/>
      <point x="1002" y="164"/>
      <point x="948" y="164" type="curve" smooth="yes"/>
      <point x="712" y="164" type="line"/>
      <point x="712" y="276" type="line"/>
      <point x="925" y="276" type="line" smooth="yes"/>
      <point x="979" y="276"/>
      <point x="1008" y="305"/>
      <point x="1008" y="358" type="curve" smooth="yes"/>
      <point x="1008" y="411"/>
      <point x="979" y="440"/>
      <point x="925" y="440" type="curve" smooth="yes"/>
      <point x="712" y="440" type="line"/>
      <point x="712" y="541" type="line"/>
      <point x="948" y="541" type="line" smooth="yes"/>
      <point x="1002" y="541"/>
      <point x="1031" y="570"/>
      <point x="1031" y="623" type="curve" smooth="yes"/>
      <point x="1031" y="676"/>
      <point x="1002" y="705"/>
      <point x="948" y="705" type="curve" smooth="yes"/>
      <point x="435" y="705" type="line" smooth="yes"/>
      <point x="185" y="705"/>
      <point x="41" y="575"/>
      <point x="41" y="353" type="curve" smooth="yes"/>
      <point x="41" y="130"/>
      <point x="185" y="0"/>
    </contour>
    <contour>
      <point x="447" y="174" type="line" smooth="yes"/>
      <point x="323" y="174"/>
      <point x="264" y="231"/>
      <point x="264" y="353" type="curve" smooth="yes"/>
      <point x="264" y="475"/>
      <point x="324" y="531"/>
      <point x="447" y="531" type="curve" smooth="yes"/>
      <point x="507" y="531" type="line"/>
      <point x="507" y="174" type="line"/>
    </contour>
  </outline>
</glyph>
<glyph name="uogonek" format="2">
  <advance width="613"/>
  <unicode hex="0173"/>
  <outline>
    <contour>
      <point x="366" y="143" type="line"/>
      <point x="366" y="95" type="line" smooth="yes"/>
      <point x="366" y="62"/>
      <point x="375" y="37"/>
      <point x="391" y="18" type="curve"/>
      <point x="404" y="33" type="line"/>
      <point x="360" y="8"/>
      <point x="331" y="-35"/>
      <point x="331" y="-84" type="curve" smooth="yes"/>
      <point x="331" y="-155"/>
      <point x="381" y="-200"/>
      <point x="473" y="-200" type="curve" smooth="yes"/>
      <point x="492" y="-200"/>
      <point x="517" y="-199"/>
      <point x="541" y="-192" type="curve" smooth="yes"/>
      <point x="602" y="-174"/>
      <point x="598" y="-90"/>
      <point x="526" y="-99" type="curve" smooth="yes"/>
      <point x="518" y="-100"/>
      <point x="510" y="-101"/>
      <point x="502" y="-101" type="curve" smooth="yes"/>
      <point x="472" y="-101"/>
      <point x="450" y="-85"/>
      <point x="450" y="-60" type="curve" smooth="yes"/>
      <point x="450" y="-40"/>
      <point x="462" y="-12"/>
      <point x="487" y="-9" type="curve" smooth="yes"/>
      <point x="541" y="-3"/>
      <point x="569" y="33"/>
      <point x="569" y="95" type="curve" smooth="yes"/>
      <point x="569" y="399" type="line"/>
      <point x="569" y="467"/>
      <point x="532" y="504"/>
      <point x="465" y="504" type="curve" smooth="yes"/>
      <point x="398" y="504"/>
      <point x="361" y="467"/>
      <point x="361" y="399" type="curve" smooth="yes"/>
      <point x="361" y="223" type="line" smooth="yes"/>
      <point x="361" y="177"/>
      <point x="334" y="146"/>
      <point x="297" y="146" type="curve" smooth="yes"/>
      <point x="265" y="146"/>
      <point x="250" y="165"/>
      <point x="250" y="201" type="curve" smooth="yes"/>
      <point x="250" y="399" type="line" smooth="yes"/>
      <point x="250" y="467"/>
      <point x="213" y="504"/>
      <point x="146" y="504" type="curve" smooth="yes"/>
      <point x="79" y="504"/>
      <point x="42" y="467"/>
      <point x="42" y="399" type="curve" smooth="yes"/>
      <point x="42" y="207" type="line" smooth="yes"/>
      <point x="42" y="59"/>
      <point x="102" y="-12"/>
      <point x="232" y="-12" type="curve" smooth="yes"/>
      <point x="302" y="-12"/>
      <point x="352" y="22"/>
      <point x="383" y="83" type="curve"/>
    </contour>
  </outline>
</glyph>
<glyph name="Dhook" format="2">
  <advance width="999"/>
  <unicode hex="018A"/>
  <outline>
    <contour>
      <point x="367" y="0" type="curve" smooth="yes"/>
      <point x="564" y="0" type="line" smooth="yes"/>
      <point x="814" y="0"/>
      <point x="958" y="130"/>
      <point x="958" y="353" type="curve" smooth="yes"/>
      <point x="958" y="575"/>
      <point x="814" y="705"/>
      <point x="564" y="705" type="curve" smooth="yes"/>
      <point x="245" y="705" type="line" smooth="yes"/>
      <point x="87" y="705"/>
      <point x="0" y="629"/>
      <point x="0" y="502" type="curve" smooth="yes"/>
      <point x="0" y="492" type="line" smooth="yes"/>
      <point x="0" y="462"/>
      <point x="27" y="419"/>
      <point x="86" y="419" type="curve" smooth="yes"/>
      <point x="145" y="419"/>
      <point x="171" y="461"/>
      <point x="171" y="486" type="curve" smooth="yes"/>
      <point x="171" y="496" type="line" smooth="yes"/>
      <point x="171" y="539"/>
      <point x="195" y="561"/>
      <point x="242" y="561" type="curve" smooth="yes"/>
      <point x="256" y="561" type="line"/>
      <point x="256" y="111" type="line" smooth="yes"/>
      <point x="256" y="39"/>
      <point x="295" y="0"/>
    </contour>
    <contour>
      <point x="471" y="174" type="line"/>
      <point x="471" y="531" type="line"/>
      <point x="551" y="531" type="line" smooth="yes"/>
      <point x="675" y="531"/>
      <point x="735" y="475"/>
      <point x="735" y="353" type="curve" smooth="yes"/>
      <point x="735" y="231"/>
      <point x="676" y="174"/>
      <point x="551" y="174" type="curve" smooth="yes"/>
    </contour>
  </outline>
</glyph>
<glyph name="Yhook" format="2">
  <advance width="700"/>
  <unicode hex="01B3"/>
  <outline>
    <contour>
      <point x="330" y="-10" type="curve" smooth="yes"/>
      <point x="400" y="-10"/>
      <point x="437" y="29"/>
      <point x="437" y="101" type="curve" smooth="yes"/>
      <point x="437" y="359" type="line"/>
      <point x="394" y="243" type="line"/>
      <point x="583" y="523" type="line" smooth="yes"/>
      <point x="604" y="554"/>
      <point x="629" y="567"/>
      <point x="656" y="567" type="curve" smooth="yes"/>
      <point x="666" y="567"/>
      <point x="674" y="565"/>
      <point x="682" y="565" type="curve" smooth="yes"/>
      <point x="708" y="565"/>
      <point x="731" y="586"/>
      <point x="731" y="631" type="curve" smooth="yes"/>
      <point x="731" y="701"/>
      <point x="690" y="716"/>
      <point x="616" y="716" type="curve" smooth="yes"/>
      <point x="523" y="716"/>
      <point x="449" y="677"/>
      <point x="398" y="599" type="curve" smooth="yes"/>
      <point x="312" y="467" type="line"/>
      <point x="353" y="467" type="line"/>
      <point x="244" y="633" type="line" smooth="yes"/>
      <point x="204" y="695"/>
      <point x="186" y="715"/>
      <point x="126" y="715" type="curve" smooth="yes"/>
      <point x="32" y="715"/>
      <point x="4" y="626"/>
      <point x="42" y="570" type="curve" smooth="yes"/>
      <point x="265" y="243" type="line"/>
      <point x="222" y="359" type="line"/>
      <point x="222" y="101" type="line" smooth="yes"/>
      <point x="222" y="29"/>
      <point x="261" y="-10"/>
    </contour>
  </outline>
</glyph>
<glyph name="gstroke" format="2">
  <advance width="638"/>
  <unicode hex="01E5"/>
  <outline>
    <contour>
      <point x="297" y="-192" type="curve" smooth="yes"/>
      <point x="448" y="-192"/>
      <point x="547" y="-135"/>
      <point x="581" y="-22" type="curve"/>
      <point x="571" y="-33" type="line"/>
      <point x="605" y="-33" type="line" smooth="yes"/>
      <point x="631" y="-33"/>
      <point x="646" y="-19"/>
      <point x="646" y="7" type="curve" smooth="yes"/>
      <point x="646" y="32"/>
      <point x="631" y="46"/>
      <point x="605" y="46" type="curve" smooth="yes"/>
      <point x="586" y="46" type="line"/>
      <point x="592" y="36" type="line"/>
      <point x="594" y="55"/>
      <point x="594" y="65"/>
      <point x="594" y="75" type="curve" smooth="yes"/>
      <point x="594" y="399" type="line" smooth="yes"/>
      <point x="594" y="467"/>
      <point x="558" y="504"/>
      <point x="492" y="504" type="curve" smooth="yes"/>
      <point x="426" y="504"/>
      <point x="389" y="467"/>
      <point x="389" y="399" type="curve" smooth="yes"/>
      <point x="389" y="371" type="line"/>
      <point x="400" y="425" type="line"/>
      <point x="378" y="473"/>
      <point x="311" y="506"/>
      <point x="244" y="506" type="curve" smooth="yes"/>
      <point x="115" y="506"/>
      <point x="24" y="419"/>
      <point x="24" y="283" type="curve" smooth="yes"/>
      <point x="24" y="148"/>
      <point x="115" y="62"/>
      <point x="244" y="62" type="curve" smooth="yes"/>
      <point x="311" y="62"/>
      <point x="378" y="94"/>
      <point x="400" y="140" type="curve"/>
      <point x="392" y="140" type="line"/>
      <point x="392" y="34" type="line" smooth="yes"/>
      <point x="392" y="26"/>
      <point x="391" y="18"/>
      <point x="390" y="11" type="curve"/>
      <point x="407" y="46" type="line"/>
      <point x="302" y="46" type="line" smooth="yes"/>
      <point x="276" y="46"/>
      <point x="261" y="32"/>
      <point x="261" y="7" type="curve" smooth="yes"/>
      <point x="261" y="-18"/>
      <point x="276" y="-33"/>
      <point x="302" y="-33" type="curve" smooth="yes"/>
      <point x="392" y="-33" type="line"/>
      <point x="375" y="-25" type="line"/>
      <point x="357" y="-49"/>
      <point x="325" y="-59"/>
      <point x="276" y="-59" type="curve" smooth="yes"/>
      <point x="238" y="-59"/>
      <point x="172" y="-45"/>
      <point x="127" y="-22" type="curve" smooth="yes"/>
      <point x="43" y="22"/>
      <point x="-13" y="-102"/>
      <point x="60" y="-145" type="curve" smooth="yes"/>
      <point x="104" y="-171"/>
      <point x="195" y="-192"/>
    </contour>
    <contour>
      <point x="311" y="210" type="curve" smooth="yes"/>
      <point x="266" y="210"/>
      <point x="233" y="234"/>
      <point x="233" y="281" type="curve" smooth="yes"/>
      <point x="233" y="328"/>
      <point x="264" y="354"/>
      <point x="311" y="354" type="curve" smooth="yes"/>
      <point x="358" y="354"/>
      <point x="389" y="328"/>
      <point x="389" y="281" type="curve" smooth="yes"/>
      <point x="389" y="236"/>
      <point x="357" y="210"/>
    </contour>
  </outline>
</glyph>
<glyph name="commaturnedmod" format="2">
  <advance width="500"/>
  <unicode hex="02BB"/>
  <anchor x="250" y="484" name="_top"/>
  <anchor x="250" y="685" name="top"/>
  <outline>
    <contour>
      <point x="250" y="548" type="curve" smooth="yes"/>
      <point x="315" y="548"/>
      <point x="349" y="575"/>
      <point x="349" y="627" type="curve" smooth="yes"/>
      <point x="349" y="680"/>
      <point x="315" y="707"/>
      <point x="249" y="707" type="curve"/>
      <point x="252" y="674" type="line"/>
      <point x="252" y="689"/>
      <point x="258" y="712"/>
      <point x="269" y="728" type="curve" smooth="yes"/>
      <point x="306" y="782"/>
      <point x="236" y="817"/>
      <point x="200" y="776" type="curve" smooth="yes"/>
      <point x="167" y="738"/>
      <point x="152" y="688"/>
      <point x="152" y="638" type="curve" smooth="yes"/>
      <point x="152" y="578"/>
      <point x="185" y="548"/>
    </contour>
  </outline>
</glyph>
<glyph name="apostrophemod" format="2">
  <advance width="400"/>
  <unicode hex="02BC"/>
  <outline>
    <contour>
      <point x="249" y="577" type="curve" smooth="yes"/>
      <point x="282" y="615"/>
      <point x="297" y="665"/>
      <point x="297" y="715" type="curve" smooth="yes"/>
      <point x="297" y="775"/>
      <point x="264" y="805"/>
      <point x="199" y="805" type="curve" smooth="yes"/>
      <point x="134" y="805"/>
      <point x="100" y="778"/>
      <point x="100" y="726" type="curve" smooth="yes"/>
      <point x="100" y="673"/>
      <point x="134" y="646"/>
      <point x="200" y="646" type="curve"/>
      <point x="197" y="679" type="line"/>
      <point x="197" y="664"/>
      <point x="191" y="641"/>
      <point x="180" y="625" type="curve" smooth="yes"/>
      <point x="142" y="571"/>
      <point x="213" y="536"/>
    </contour>
  </outline>
</glyph>
<glyph name="ringhalfright" format="2">
  <advance width="500"/>
  <unicode hex="02BE"/>
  <anchor x="250" y="484" name="_top"/>
  <anchor x="250" y="685" name="top"/>
  <outline>
    <contour>
      <point x="289" y="553" type="curve" smooth="yes"/>
      <point x="337" y="567"/>
      <point x="366" y="612"/>
      <point x="366" y="661" type="curve" smooth="yes"/>
      <point x="366" y="711"/>
      <point x="336" y="754"/>
      <point x="288" y="770" type="curve" smooth="yes"/>
      <point x="259" y="780"/>
      <point x="240" y="762"/>
      <point x="240" y="739" type="curve" smooth="yes"/>
      <point x="240" y="714"/>
      <point x="256" y="711"/>
      <point x="276" y="693" type="curve" smooth="yes"/>
      <point x="285" y="685"/>
      <point x="289" y="673"/>
      <point x="289" y="661" type="curve" smooth="yes"/>
      <point x="289" y="648"/>
      <point x="285" y="637"/>
      <point x="275" y="629" type="curve" smooth="yes"/>
      <point x="255" y="613"/>
      <point x="240" y="608"/>
      <point x="240" y="583" type="curve" smooth="yes"/>
      <point x="240" y="560"/>
      <point x="259" y="544"/>
    </contour>
  </outline>
</glyph>
<glyph name="secondtonechinese" format="2">
  <advance width="500"/>
  <unicode hex="02CA"/>
  <anchor x="250" y="484" name="_top"/>
  <anchor x="250" y="685" name="top"/>
  <outline>
    <contour>
      <point x="323" y="567" type="curve" smooth="yes"/>
      <point x="408" y="676" type="line" smooth="yes"/>
      <point x="470" y="756"/>
      <point x="322" y="842"/>
      <point x="278" y="751" type="curve" smooth="yes"/>
      <point x="218" y="628" type="line" smooth="yes"/>
      <point x="186" y="562"/>
      <point x="280" y="511"/>
    </contour>
  </outline>
</glyph>
<glyph name="verticallinelowmod" format="2">
  <advance width="500"/>
  <unicode hex="02CC"/>
  <outline>
    <contour>
      <point x="250" y="-280" type="curve" smooth="yes"/>
      <point x="289" y="-280"/>
      <point x="310" y="-258"/>
      <point x="310" y="-218" type="curve" smooth="yes"/>
      <point x="310" y="-114" type="line" smooth="yes"/>
      <point x="310" y="-74"/>
      <point x="289" y="-52"/>
      <point x="250" y="-52" type="curve" smooth="yes"/>
      <point x="211" y="-52"/>
      <point x="190" y="-74"/>
      <point x="190" y="-114" type="curve" smooth="yes"/>
      <point x="190" y="-218" type="line" smooth="yes"/>
      <point x="190" y="-258"/>
      <point x="211" y="-280"/>
    </contour>
  </outline>
</glyph>
<glyph name="circumflexcomb" format="2">
  <unicode hex="0302"/>
  <anchor x="0" y="484" name="_top"/>
  <anchor x="0" y="685" name="top"/>
  <outline>
    <contour>
      <point x="161" y="625" type="curve" smooth="yes"/>
      <point x="111" y="717" type="line" smooth="yes"/>
      <point x="87" y="762"/>
      <point x="50" y="790"/>
      <point x="0" y="790" type="curve" smooth="yes"/>
      <point x="-50" y="790"/>
      <point x="-87" y="762"/>
      <point x="-111" y="717" type="curve" smooth="yes"/>
      <point x="-161" y="625" type="line" smooth="yes"/>
      <point x="-195" y="562"/>
      <point x="-107" y="511"/>
      <point x="-66" y="568" type="curve" smooth="yes"/>
      <point x="0" y="661" type="line"/>
      <point x="66" y="568" type="line" smooth="yes"/>
      <point x="107" y="511"/>
      <point x="195" y="562"/>
    </contour>
  </outline>
</glyph>
<glyph name="tildecomb" format="2">
  <unicode hex="0303"/>
  <anchor x="0" y="484" name="_top"/>
  <anchor x="0" y="685" name="top"/>
  <outline>
    <contour>
      <point x="-173" y="570" type="curve" smooth="yes"/>
      <point x="-139" y="568"/>
      <point x="-126" y="593"/>
      <point x="-114" y="607" type="curve" smooth="yes"/>
      <point x="-103" y="620"/>
      <point x="-88" y="626"/>
      <point x="-70" y="626" type="curve" smooth="yes"/>
      <point x="-20" y="626"/>
      <point x="7" y="579"/>
      <point x="76" y="579" type="curve" smooth="yes"/>
      <point x="166" y="579"/>
      <point x="208" y="661"/>
      <point x="214" y="708" type="curve" smooth="yes"/>
      <point x="218" y="739"/>
      <point x="205" y="762"/>
      <point x="171" y="763" type="curve" smooth="yes"/>
      <point x="144" y="764"/>
      <point x="133" y="750"/>
      <point x="114" y="726" type="curve" smooth="yes"/>
      <point x="104" y="713"/>
      <point x="88" y="707"/>
      <point x="70" y="707" type="curve" smooth="yes"/>
      <point x="20" y="707"/>
      <point x="-7" y="754"/>
      <point x="-76" y="754" type="curve" smooth="yes"/>
      <point x="-169" y="754"/>
      <point x="-209" y="667"/>
      <point x="-214" y="625" type="curve" smooth="yes"/>
      <point x="-219" y="589"/>
      <point x="-204" y="572"/>
    </contour>
  </outline>
</glyph>
<glyph name="macroncomb" format="2">
  <unicode hex="0304"/>
  <anchor x="0" y="484" name="_top"/>
  <anchor x="0" y="685" name="top"/>
  <outline>
    <contour>
      <point x="-128" y="599" type="curve" smooth="yes"/>
      <point x="128" y="599" type="line" smooth="yes"/>
      <point x="165" y="599"/>
      <point x="185" y="619"/>
      <point x="185" y="654" type="curve" smooth="yes"/>
      <point x="185" y="689"/>
      <point x="165" y="709"/>
      <point x="128" y="709" type="curve" smooth="yes"/>
      <point x="-128" y="709" type="line" smooth="yes"/>
      <point x="-165" y="709"/>
      <point x="-185" y="689"/>
      <point x="-185" y="654" type="curve" smooth="yes"/>
      <point x="-185" y="619"/>
      <point x="-165" y="599"/>
    </contour>
  </outline>
</glyph>
<glyph name="dotaccentcomb" format="2">
  <unicode hex="0307"/>
  <anchor x="0" y="484" name="_top"/>
  <anchor x="0" y="685" name="top"/>
  <outline>
    <contour>
      <point x="0" y="569" type="curve" smooth="yes"/>
      <point x="62" y="569"/>
      <point x="96" y="601"/>
      <point x="96" y="660" type="curve" smooth="yes"/>
      <point x="96" y="718"/>
      <point x="62" y="750"/>
      <point x="0" y="750" type="curve" smooth="yes"/>
      <point x="-62" y="750"/>
      <point x="-96" y="718"/>
      <point x="-96" y="660" type="curve" smooth="yes"/>
      <point x="-96" y="602"/>
      <point x="-62" y="569"/>
    </contour>
  </outline>
</glyph>
<glyph name="horncomb" format="2">
  <unicode hex="031B"/>
  <anchor x="0" y="484" name="_topright"/>
  <outline>
    <contour>
      <point x="127" y="404" type="line"/>
      <point x="200" y="416"/>
      <point x="253" y="481"/>
      <point x="253" y="559" type="curve" smooth="yes"/>
      <point x="253" y="596"/>
      <point x="221" y="616"/>
      <point x="164" y="616" type="curve" smooth="yes"/>
      <point x="106" y="616"/>
      <point x="74" y="596"/>
      <point x="74" y="558" type="curve" smooth="yes"/>
      <point x="74" y="514"/>
      <point x="52" y="494"/>
      <point x="0" y="494" type="curve"/>
      <point x="0" y="481" type="line"/>
    </contour>
  </outline>
</glyph>
<glyph name="dotbelowcomb" format="2">
  <unicode hex="0323"/>
  <anchor x="0" y="0" name="_bottom"/>
  <anchor x="0" y="-170" name="bottom"/>
  <outline>
    <contour>
      <point x="0" y="-242" type="curve" smooth="yes"/>
      <point x="62" y="-242"/>
      <point x="96" y="-210"/>
      <point x="96" y="-151" type="curve" smooth="yes"/>
      <point x="96" y="-93"/>
      <point x="62" y="-61"/>
      <point x="0" y="-61" type="curve" smooth="yes"/>
      <point x="-62" y="-61"/>
      <point x="-96" y="-93"/>
      <point x="-96" y="-151" type="curve" smooth="yes"/>
      <point x="-96" y="-209"/>
      <point x="-62" y="-242"/>
    </contour>
  </outline>
</glyph>
<glyph name="dieresisbelowcomb" format="2">
  <unicode hex="0324"/>
  <anchor x="0" y="0" name="_bottom"/>
  <anchor x="0" y="-170" name="bottom"/>
  <outline>
    <contour>
      <point x="108" y="-219" type="curve" smooth="yes"/>
      <point x="167" y="-219"/>
      <point x="198" y="-187"/>
      <point x="198" y="-128" type="curve" smooth="yes"/>
      <point x="198" y="-70"/>
      <point x="166" y="-38"/>
      <point x="108" y="-38" type="curve" smooth="yes"/>
      <point x="50" y="-38"/>
      <point x="18" y="-70"/>
      <point x="18" y="-128" type="curve" smooth="yes"/>
      <point x="18" y="-186"/>
      <point x="50" y="-219"/>
    </contour>
    <contour>
      <point x="-108" y="-219" type="curve" smooth="yes"/>
      <point x="-49" y="-219"/>
      <point x="-18" y="-187"/>
      <point x="-18" y="-128" type="curve" smooth="yes"/>
      <point x="-18" y="-70"/>
      <point x="-50" y="-38"/>
      <point x="-108" y="-38" type="curve" smooth="yes"/>
      <point x="-166" y="-38"/>
      <point x="-198" y="-70"/>
      <point x="-198" y="-128" type="curve" smooth="yes"/>
      <point x="-198" y="-186"/>
      <point x="-166" y="-219"/>
    </contour>
  </outline>
</glyph>
<glyph name="commaaccentcomb" format="2">
  <unicode hex="0326"/>
  <anchor x="0" y="0" name="_bottom"/>
  <anchor x="0" y="-170" name="bottom"/>
  <outline>
    <contour>
      <point x="49" y="-278" type="curve" smooth="yes"/>
      <point x="82" y="-240"/>
      <point x="97" y="-190"/>
      <point x="97" y="-140" type="curve" smooth="yes"/>
      <point x="97" y="-80"/>
      <point x="64" y="-50"/>
      <point x="-1" y="-50" type="curve" smooth="yes"/>
      <point x="-66" y="-50"/>
      <point x="-100" y="-77"/>
      <point x="-100" y="-129" type="curve" smooth="yes"/>
      <point x="-100" y="-182"/>
      <point x="-66" y="-209"/>
      <point x="0" y="-209" type="curve"/>
      <point x="-3" y="-176" type="line"/>
      <point x="-3" y="-191"/>
      <point x="-9" y="-214"/>
      <point x="-20" y="-230" type="curve" smooth="yes"/>
      <point x="-57" y="-284"/>
      <point x="13" y="-319"/>
    </contour>
  </outline>
</glyph>
<glyph name="cedillacomb" format="2">
  <unicode hex="0327"/>
  <anchor x="0" y="0" name="_bottom"/>
  <outline>
    <contour>
      <point x="-4" y="-200" type="curve" smooth="yes"/>
      <point x="73" y="-200"/>
      <point x="128" y="-164"/>
      <point x="128" y="-106" type="curve" smooth="yes"/>
      <point x="128" y="-57"/>
      <point x="91" y="-28"/>
      <point x="24" y="-28" type="curve" smooth="yes"/>
      <point x="10" y="-28"/>
      <point x="-7" y="-31"/>
      <point x="-22" y="-37" type="curve"/>
      <point x="24" y="-57" type="line"/>
      <point x="36" y="20" type="line"/>
      <point x="-59" y="20" type="line"/>
      <point x="-69" y="-50" type="line" smooth="yes"/>
      <point x="-71" y="-63"/>
      <point x="-69" y="-72"/>
      <point x="-63" y="-79" type="curve" smooth="yes"/>
      <point x="-57" y="-86"/>
      <point x="-49" y="-87"/>
      <point x="-41" y="-86" type="curve" smooth="yes"/>
      <point x="-33" y="-85"/>
      <point x="-25" y="-84"/>
      <point x="-17" y="-84" type="curve" smooth="yes"/>
      <point x="9" y="-84"/>
      <point x="19" y="-89"/>
      <point x="19" y="-98" type="curve" smooth="yes"/>
      <point x="19" y="-110"/>
      <point x="7" y="-115"/>
      <point x="-28" y="-115" type="curve" smooth="yes"/>
      <point x="-40" y="-115"/>
      <point x="-55" y="-113"/>
      <point x="-74" y="-108" type="curve" smooth="yes"/>
      <point x="-134" y="-92"/>
      <point x="-150" y="-175"/>
      <point x="-90" y="-190" type="curve" smooth="yes"/>
      <point x="-62" y="-197"/>
      <point x="-32" y="-200"/>
    </contour>
  </outline>
</glyph>
<glyph name="slashshortcomb" format="2">
  <unicode hex="0337"/>
  <anchor x="0" y="359" name="_center"/>
  <outline>
    <contour>
      <point x="-97" y="211" type="curve" smooth="yes"/>
      <point x="175" y="370" type="line" smooth="yes"/>
      <point x="272" y="427"/>
      <point x="194" y="562"/>
      <point x="97" y="505" type="curve" smooth="yes"/>
      <point x="-175" y="346" type="line" smooth="yes"/>
      <point x="-272" y="289"/>
      <point x="-194" y="154"/>
    </contour>
  </outline>
</glyph>
<glyph name="slashlongcomb" format="2">
  <unicode hex="0338"/>
  <anchor x="0" y="247" name="_center"/>
  <outline>
    <contour>
      <point x="-111" y="-41" type="curve" smooth="yes"/>
      <point x="197" y="479" type="line" smooth="yes"/>
      <point x="233" y="540"/>
      <point x="144" y="593"/>
      <point x="109" y="534" type="curve" smooth="yes"/>
      <point x="-198" y="13" type="line" smooth="yes"/>
      <point x="-235" y="-50"/>
      <point x="-145" y="-98"/>
    </contour>
  </outline>
</glyph>
<glyph name="Delta" format="2">
  <advance width="773"/>
  <unicode hex="0394"/>
  <outline>
    <contour>
      <point x="140" y="0" type="curve" smooth="yes"/>
      <point x="633" y="0" type="line" smooth="yes"/>
      <point x="732" y="0"/>
      <point x="762" y="73"/>
      <point x="713" y="179" type="curve" smooth="yes"/>
      <point x="508" y="623" type="line" smooth="yes"/>
      <point x="482" y="679"/>
      <point x="444" y="705"/>
      <point x="387" y="705" type="curve" smooth="yes"/>
      <point x="329" y="705"/>
      <point x="290" y="679"/>
      <point x="264" y="623" type="curve" smooth="yes"/>
      <point x="60" y="179" type="line" smooth="yes"/>
      <point x="12" y="75"/>
      <point x="38" y="0"/>
    </contour>
    <contour>
      <point x="385" y="484" type="line"/>
      <point x="387" y="484" type="line"/>
      <point x="541" y="119" type="line"/>
      <point x="541" y="164" type="line"/>
      <point x="232" y="164" type="line"/>
      <point x="232" y="119" type="line"/>
    </contour>
  </outline>
</glyph>
<glyph name="Omega" format="2">
  <advance width="838"/>
  <unicode hex="03A9"/>
  <outline>
    <contour>
      <point x="105" y="0" type="curve" smooth="yes"/>
      <point x="287" y="0" type="line" smooth="yes"/>
      <point x="349" y="0"/>
      <point x="385" y="45"/>
      <point x="385" y="96" type="curve" smooth="yes"/>
      <point x="385" y="142"/>
      <point x="367" y="172"/>
      <point x="327" y="210" type="curve" smooth="yes"/>
      <point x="280" y="254"/>
      <point x="262" y="326"/>
      <point x="262" y="378" type="curve" smooth="yes"/>
      <point x="262" y="481"/>
      <point x="324" y="537"/>
      <point x="419" y="537" type="curve" smooth="yes"/>
      <point x="514" y="537"/>
      <point x="576" y="481"/>
      <point x="576" y="378" type="curve" smooth="yes"/>
      <point x="576" y="316"/>
      <point x="557" y="257"/>
      <point x="511" y="210" type="curve" smooth="yes"/>
      <point x="472" y="171"/>
      <point x="454" y="141"/>
      <point x="454" y="94" type="curve" smooth="yes"/>
      <point x="454" y="45"/>
      <point x="488" y="0"/>
      <point x="551" y="0" type="curve" smooth="yes"/>
      <point x="733" y="0" type="line" smooth="yes"/>
      <point x="789" y="0"/>
      <point x="819" y="30"/>
      <point x="819" y="85" type="curve" smooth="yes"/>
      <point x="819" y="140"/>
      <point x="788" y="170"/>
      <point x="733" y="170" type="curve" smooth="yes"/>
      <point x="578" y="170" type="line"/>
      <point x="578" y="121" type="line"/>
      <point x="742" y="181"/>
      <point x="799" y="278"/>
      <point x="799" y="412" type="curve" smooth="yes"/>
      <point x="799" y="600"/>
      <point x="633" y="716"/>
      <point x="419" y="716" type="curve" smooth="yes"/>
      <point x="205" y="716"/>
      <point x="39" y="600"/>
      <point x="39" y="412" type="curve" smooth="yes"/>
      <point x="39" y="278"/>
      <point x="96" y="181"/>
      <point x="260" y="121" type="curve"/>
      <point x="260" y="170" type="line"/>
      <point x="105" y="170" type="line" smooth="yes"/>
      <point x="49" y="170"/>
      <point x="19" y="140"/>
      <point x="19" y="85" type="curve" smooth="yes"/>
      <point x="19" y="30"/>
      <point x="49" y="0"/>
    </contour>
  </outline>
</glyph>
<glyph name="E-cy" format="2">
  <advance width="692"/>
  <unicode hex="0404"/>
  <anchor x="402" y="0" name="bottom"/>
  <anchor x="401" y="705" name="top"/>
  <outline>
    <contour>
      <point x="429" y="-12" type="curve" smooth="yes"/>
      <point x="492" y="-12"/>
      <point x="556" y="2"/>
      <point x="611" y="27" type="curve" smooth="yes"/>
      <point x="717" y="75"/>
      <point x="662" y="251"/>
      <point x="540" y="196" type="curve" smooth="yes"/>
      <point x="509" y="182"/>
      <point x="469" y="175"/>
      <point x="437" y="175" type="curve" smooth="yes"/>
      <point x="341" y="175"/>
      <point x="276" y="218"/>
      <point x="264" y="329" type="curve"/>
      <point x="207" y="277" type="line"/>
      <point x="448" y="277" type="line" smooth="yes"/>
      <point x="504" y="277"/>
      <point x="534" y="306"/>
      <point x="534" y="359" type="curve" smooth="yes"/>
      <point x="534" y="412"/>
      <point x="503" y="441"/>
      <point x="448" y="441" type="curve" smooth="yes"/>
      <point x="210" y="441" type="line"/>
      <point x="266" y="392" type="line"/>
      <point x="278" y="484"/>
      <point x="341" y="530"/>
      <point x="437" y="530" type="curve" smooth="yes"/>
      <point x="467" y="530"/>
      <point x="503" y="523"/>
      <point x="536" y="511" type="curve" smooth="yes"/>
      <point x="657" y="467"/>
      <point x="716" y="632"/>
      <point x="602" y="682" type="curve" smooth="yes"/>
      <point x="549" y="705"/>
      <point x="486" y="717"/>
      <point x="429" y="717" type="curve" smooth="yes"/>
      <point x="187" y="717"/>
      <point x="41" y="572"/>
      <point x="41" y="353" type="curve" smooth="yes"/>
      <point x="41" y="133"/>
      <point x="187" y="-12"/>
    </contour>
  </outline>
</glyph>
<glyph name="Lje-cy" format="2">
  <advance width="1140"/>
  <unicode hex="0409"/>
  <outline>
    <contour>
      <point x="611" y="0" type="curve" smooth="yes"/>
      <point x="867" y="0" type="line" smooth="yes"/>
      <point x="1022" y="0"/>
      <point x="1119" y="80"/>
      <point x="1119" y="221" type="curve" smooth="yes"/>
      <point x="1119" y="362"/>
      <point x="1022" y="442"/>
      <point x="867" y="442" type="curve" smooth="yes"/>
      <point x="715" y="442" type="line"/>
      <point x="715" y="594" type="line" smooth="yes"/>
      <point x="715" y="666"/>
      <point x="676" y="705"/>
      <point x="604" y="705" type="curve" smooth="yes"/>
      <point x="269" y="705" type="line" smooth="yes"/>
      <point x="197" y="705"/>
      <point x="158" y="666"/>
      <point x="158" y="594" type="curve" smooth="yes"/>
      <point x="158" y="486" type="line" smooth="yes"/>
      <point x="158" y="346"/>
      <point x="134" y="234"/>
      <point x="59" y="169" type="curve" smooth="yes"/>
      <point x="14" y="130"/>
      <point x="-1" y="79"/>
      <point x="36" y="32" type="curve" smooth="yes"/>
      <point x="73" y="-15"/>
      <point x="126" y="-22"/>
      <point x="172" y="11" type="curve" smooth="yes"/>
      <point x="291" y="95"/>
      <point x="355" y="247"/>
      <point x="355" y="430" type="curve" smooth="yes"/>
      <point x="355" y="531" type="line"/>
      <point x="500" y="531" type="line"/>
      <point x="500" y="111" type="line" smooth="yes"/>
      <point x="500" y="39"/>
      <point x="539" y="0"/>
    </contour>
    <contour>
      <point x="715" y="160" type="line"/>
      <point x="715" y="282" type="line"/>
      <point x="837" y="282" type="line" smooth="yes"/>
      <point x="893" y="282"/>
      <point x="916" y="262"/>
      <point x="916" y="221" type="curve" smooth="yes"/>
      <point x="916" y="180"/>
      <point x="893" y="160"/>
      <point x="837" y="160" type="curve" smooth="yes"/>
    </contour>
  </outline>
</glyph>
<glyph name="Nje-cy" format="2">
  <advance width="1162"/>
  <unicode hex="040A"/>
  <outline>
    <contour>
      <point x="165" y="-10" type="curve" smooth="yes"/>
      <point x="235" y="-10"/>
      <point x="272" y="29"/>
      <point x="272" y="100" type="curve" smooth="yes"/>
      <point x="272" y="269" type="line"/>
      <point x="522" y="269" type="line"/>
      <point x="522" y="111" type="line" smooth="yes"/>
      <point x="522" y="39"/>
      <point x="561" y="0"/>
      <point x="633" y="0" type="curve" smooth="yes"/>
      <point x="889" y="0" type="line" smooth="yes"/>
      <point x="1044" y="0"/>
      <point x="1141" y="80"/>
      <point x="1141" y="221" type="curve" smooth="yes"/>
      <point x="1141" y="362"/>
      <point x="1044" y="442"/>
      <point x="889" y="442" type="curve" smooth="yes"/>
      <point x="737" y="442" type="line"/>
      <point x="737" y="605" type="line" smooth="yes"/>
      <point x="737" y="676"/>
      <point x="699" y="715"/>
      <point x="630" y="715" type="curve" smooth="yes"/>
      <point x="561" y="715"/>
      <point x="522" y="676"/>
      <point x="522" y="605" type="curve" smooth="yes"/>
      <point x="522" y="445" type="line"/>
      <point x="272" y="445" type="line"/>
      <point x="272" y="605" type="line" smooth="yes"/>
      <point x="272" y="676"/>
      <point x="234" y="715"/>
      <point x="165" y="715" type="curve" smooth="yes"/>
      <point x="96" y="715"/>
      <point x="57" y="676"/>
      <point x="57" y="605" type="curve" smooth="yes"/>
      <point x="57" y="100" type="line" smooth="yes"/>
      <point x="57" y="29"/>
      <point x="96" y="-10"/>
    </contour>
    <contour>
      <point x="737" y="160" type="line"/>
      <point x="737" y="282" type="line"/>
      <point x="859" y="282" type="line" smooth="yes"/>
      <point x="915" y="282"/>
      <point x="938" y="262"/>
      <point x="938" y="221" type="curve" smooth="yes"/>
      <point x="938" y="180"/>
      <point x="915" y="160"/>
      <point x="859" y="160" type="curve" smooth="yes"/>
    </contour>
  </outline>
</glyph>
<glyph name="Dzhe-cy" format="2">
  <advance width="786"/>
  <unicode hex="040F"/>
  <outline>
    <contour>
      <point x="394" y="-190" type="curve" smooth="yes"/>
      <point x="454" y="-190"/>
      <point x="486" y="-157"/>
      <point x="486" y="-96" type="curve" smooth="yes"/>
      <point x="486" y="0" type="line"/>
      <point x="618" y="0" type="line" smooth="yes"/>
      <point x="690" y="0"/>
      <point x="729" y="39"/>
      <point x="729" y="111" type="curve" smooth="yes"/>
      <point x="729" y="605" type="line" smooth="yes"/>
      <point x="729" y="676"/>
      <point x="691" y="715"/>
      <point x="622" y="715" type="curve" smooth="yes"/>
      <point x="553" y="715"/>
      <point x="514" y="676"/>
      <point x="514" y="605" type="curve" smooth="yes"/>
      <point x="514" y="174" type="line"/>
      <point x="272" y="174" type="line"/>
      <point x="272" y="605" type="line" smooth="yes"/>
      <point x="272" y="676"/>
      <point x="234" y="715"/>
      <point x="165" y="715" type="curve" smooth="yes"/>
      <point x="96" y="715"/>
      <point x="57" y="676"/>
      <point x="57" y="605" type="curve" smooth="yes"/>
      <point x="57" y="111" type="line" smooth="yes"/>
      <point x="57" y="39"/>
      <point x="96" y="0"/>
      <point x="168" y="0" type="curve" smooth="yes"/>
      <point x="301" y="0" type="line"/>
      <point x="301" y="-96" type="line" smooth="yes"/>
      <point x="301" y="-157"/>
      <point x="334" y="-190"/>
    </contour>
  </outline>
</glyph>
<glyph name="Be-cy" format="2">
  <advance width="697"/>
  <unicode hex="0411"/>
  <outline>
    <contour>
      <point x="168" y="0" type="curve" smooth="yes"/>
      <point x="424" y="0" type="line" smooth="yes"/>
      <point x="579" y="0"/>
      <point x="676" y="80"/>
      <point x="676" y="221" type="curve" smooth="yes"/>
      <point x="676" y="362"/>
      <point x="579" y="442"/>
      <point x="424" y="442" type="curve" smooth="yes"/>
      <point x="262" y="442" type="line"/>
      <point x="262" y="541" type="line"/>
      <point x="529" y="541" type="line" smooth="yes"/>
      <point x="583" y="541"/>
      <point x="612" y="570"/>
      <point x="612" y="623" type="curve" smooth="yes"/>
      <point x="612" y="676"/>
      <point x="583" y="705"/>
      <point x="529" y="705" type="curve" smooth="yes"/>
      <point x="168" y="705" type="line" smooth="yes"/>
      <point x="96" y="705"/>
      <point x="57" y="666"/>
      <point x="57" y="594" type="curve" smooth="yes"/>
      <point x="57" y="111" type="line" smooth="yes"/>
      <point x="57" y="39"/>
      <point x="96" y="0"/>
    </contour>
    <contour>
      <point x="262" y="160" type="line"/>
      <point x="262" y="282" type="line"/>
      <point x="394" y="282" type="line" smooth="yes"/>
      <point x="450" y="282"/>
      <point x="473" y="262"/>
      <point x="473" y="221" type="curve" smooth="yes"/>
      <point x="473" y="180"/>
      <point x="450" y="160"/>
      <point x="394" y="160" type="curve" smooth="yes"/>
    </contour>
  </outline>
</glyph>
<glyph name="De-cy" format="2">
  <advance width="838"/>
  <unicode hex="0414"/>
  <outline>
    <contour>
      <point x="102" y="-190" type="curve" smooth="yes"/>
      <point x="162" y="-190"/>
      <point x="194" y="-157"/>
      <point x="194" y="-96" type="curve" smooth="yes"/>
      <point x="194" y="0" type="line"/>
      <point x="631" y="0" type="line"/>
      <point x="631" y="-96" type="line" smooth="yes"/>
      <point x="631" y="-157"/>
      <point x="664" y="-190"/>
      <point x="724" y="-190" type="curve" smooth="yes"/>
      <point x="784" y="-190"/>
      <point x="816" y="-157"/>
      <point x="816" y="-96" type="curve" smooth="yes"/>
      <point x="816" y="71" type="line" smooth="yes"/>
      <point x="816" y="132"/>
      <point x="783" y="165"/>
      <point x="722" y="165" type="curve" smooth="yes"/>
      <point x="639" y="165" type="line"/>
      <point x="716" y="88" type="line"/>
      <point x="716" y="594" type="line" smooth="yes"/>
      <point x="716" y="666"/>
      <point x="677" y="705"/>
      <point x="605" y="705" type="curve" smooth="yes"/>
      <point x="270" y="705" type="line" smooth="yes"/>
      <point x="198" y="705"/>
      <point x="159" y="666"/>
      <point x="159" y="594" type="curve" smooth="yes"/>
      <point x="159" y="516" type="line" smooth="yes"/>
      <point x="159" y="320"/>
      <point x="123" y="191"/>
      <point x="51" y="135" type="curve"/>
      <point x="158" y="165" type="line"/>
      <point x="103" y="165" type="line" smooth="yes"/>
      <point x="42" y="165"/>
      <point x="9" y="132"/>
      <point x="9" y="71" type="curve" smooth="yes"/>
      <point x="9" y="-96" type="line" smooth="yes"/>
      <point x="9" y="-157"/>
      <point x="42" y="-190"/>
    </contour>
    <contour>
      <point x="293" y="165" type="line"/>
      <point x="334" y="235"/>
      <point x="356" y="344"/>
      <point x="356" y="492" type="curve" smooth="yes"/>
      <point x="356" y="541" type="line"/>
      <point x="501" y="541" type="line"/>
      <point x="501" y="165" type="line"/>
    </contour>
  </outline>
</glyph>
<glyph name="Zhe-cy" format="2">
  <advance width="1100"/>
  <unicode hex="0416"/>
  <anchor x="877" y="0" name="bottomright"/>
  <anchor x="550" y="705" name="top"/>
  <outline>
    <contour>
      <point x="551" y="-10" type="curve" smooth="yes"/>
      <point x="617" y="-10"/>
      <point x="653" y="29"/>
      <point x="653" y="99" type="curve" smooth="yes"/>
      <point x="653" y="259" type="line"/>
      <point x="683" y="259" type="line" smooth="yes"/>
      <point x="738" y="259"/>
      <point x="768" y="241"/>
      <point x="789" y="195" type="curve" smooth="yes"/>
      <point x="851" y="57" type="line" smooth="yes"/>
      <point x="908" y="-70"/>
      <point x="1111" y="-3"/>
      <point x="1040" y="143" type="curve" smooth="yes"/>
      <point x="982" y="262" type="line" smooth="yes"/>
      <point x="934" y="361"/>
      <point x="875" y="405"/>
      <point x="778" y="425" type="curve"/>
      <point x="865" y="369" type="line"/>
      <point x="985" y="561" type="line" smooth="yes"/>
      <point x="1064" y="687"/>
      <point x="885" y="781"/>
      <point x="816" y="660" type="curve" smooth="yes"/>
      <point x="675" y="414" type="line"/>
      <point x="702" y="433" type="line"/>
      <point x="653" y="433" type="line"/>
      <point x="653" y="606" type="line" smooth="yes"/>
      <point x="653" y="676"/>
      <point x="617" y="715"/>
      <point x="551" y="715" type="curve" smooth="yes"/>
      <point x="485" y="715"/>
      <point x="448" y="676"/>
      <point x="448" y="606" type="curve" smooth="yes"/>
      <point x="448" y="433" type="line"/>
      <point x="399" y="433" type="line"/>
      <point x="426" y="414" type="line"/>
      <point x="285" y="660" type="line" smooth="yes"/>
      <point x="215" y="781"/>
      <point x="37" y="687"/>
      <point x="116" y="561" type="curve" smooth="yes"/>
      <point x="236" y="369" type="line"/>
      <point x="323" y="425" type="line"/>
      <point x="226" y="405"/>
      <point x="167" y="361"/>
      <point x="119" y="262" type="curve" smooth="yes"/>
      <point x="61" y="143" type="line" smooth="yes"/>
      <point x="-10" y="-3"/>
      <point x="193" y="-70"/>
      <point x="250" y="57" type="curve" smooth="yes"/>
      <point x="312" y="195" type="line" smooth="yes"/>
      <point x="333" y="241"/>
      <point x="363" y="259"/>
      <point x="418" y="259" type="curve" smooth="yes"/>
      <point x="448" y="259" type="line"/>
      <point x="448" y="99" type="line" smooth="yes"/>
      <point x="448" y="29"/>
      <point x="484" y="-10"/>
    </contour>
  </outline>
</glyph>
<glyph name="Ze-cy" format="2">
  <advance width="624"/>
  <unicode hex="0417"/>
  <anchor x="307" y="0" name="bottom"/>
  <anchor x="295" y="705" name="top"/>
  <outline>
    <contour>
      <point x="289" y="-12" type="curve" smooth="yes"/>
      <point x="493" y="-12"/>
      <point x="590" y="79"/>
      <point x="590" y="202" type="curve" smooth="yes"/>
      <point x="590" y="294"/>
      <point x="538" y="355"/>
      <point x="443" y="375" type="curve"/>
      <point x="443" y="358" type="line"/>
      <point x="522" y="379"/>
      <point x="571" y="441"/>
      <point x="571" y="523" type="curve" smooth="yes"/>
      <point x="571" y="633"/>
      <point x="483" y="717"/>
      <point x="299" y="717" type="curve" smooth="yes"/>
      <point x="222" y="717"/>
      <point x="152" y="704"/>
      <point x="91" y="679" type="curve" smooth="yes"/>
      <point x="-17" y="635"/>
      <point x="39" y="479"/>
      <point x="157" y="523" type="curve" smooth="yes"/>
      <point x="193" y="536"/>
      <point x="235" y="542"/>
      <point x="271" y="542" type="curve" smooth="yes"/>
      <point x="338" y="542"/>
      <point x="362" y="518"/>
      <point x="362" y="488" type="curve" smooth="yes"/>
      <point x="362" y="453"/>
      <point x="340" y="440"/>
      <point x="284" y="440" type="curve" smooth="yes"/>
      <point x="210" y="440" type="line" smooth="yes"/>
      <point x="154" y="440"/>
      <point x="124" y="411"/>
      <point x="124" y="358" type="curve" smooth="yes"/>
      <point x="124" y="305"/>
      <point x="154" y="276"/>
      <point x="210" y="276" type="curve" smooth="yes"/>
      <point x="303" y="276" type="line" smooth="yes"/>
      <point x="359" y="276"/>
      <point x="382" y="259"/>
      <point x="382" y="227" type="curve" smooth="yes"/>
      <point x="382" y="182"/>
      <point x="346" y="163"/>
      <point x="268" y="163" type="curve" smooth="yes"/>
      <point x="225" y="163"/>
      <point x="177" y="169"/>
      <point x="138" y="184" type="curve" smooth="yes"/>
      <point x="23" y="229"/>
      <point x="-33" y="73"/>
      <point x="80" y="26" type="curve" smooth="yes"/>
      <point x="140" y="1"/>
      <point x="207" y="-12"/>
    </contour>
  </outline>
</glyph>
<glyph name="U-cy" format="2">
  <advance width="693"/>
  <unicode hex="0423"/>
  <anchor x="352" y="705" name="top"/>
  <outline>
    <contour>
      <point x="296" y="-10" type="curve" smooth="yes"/>
      <point x="359" y="-10"/>
      <point x="385" y="31"/>
      <point x="404" y="70" type="curve" smooth="yes"/>
      <point x="656" y="572" type="line" smooth="yes"/>
      <point x="699" y="657"/>
      <point x="651" y="715"/>
      <point x="575" y="715" type="curve" smooth="yes"/>
      <point x="512" y="715"/>
      <point x="487" y="674"/>
      <point x="468" y="635" type="curve" smooth="yes"/>
      <point x="341" y="380" type="line"/>
      <point x="376" y="380" type="line"/>
      <point x="228" y="636" type="line" smooth="yes"/>
      <point x="199" y="686"/>
      <point x="178" y="715"/>
      <point x="122" y="715" type="curve" smooth="yes"/>
      <point x="38" y="715"/>
      <point x="-3" y="648"/>
      <point x="39" y="578" type="curve" smooth="yes"/>
      <point x="272" y="191" type="line"/>
      <point x="272" y="247" type="line"/>
      <point x="215" y="133" type="line" smooth="yes"/>
      <point x="174" y="51"/>
      <point x="220" y="-10"/>
    </contour>
  </outline>
</glyph>
<glyph name="Ef-cy" format="2">
  <advance width="959"/>
  <unicode hex="0424"/>
  <outline>
    <contour>
      <point x="480" y="-40" type="curve" smooth="yes"/>
      <point x="550" y="-40"/>
      <point x="587" y="-1"/>
      <point x="587" y="69" type="curve" smooth="yes"/>
      <point x="587" y="106" type="line"/>
      <point x="537" y="53" type="line"/>
      <point x="565" y="53" type="line" smooth="yes"/>
      <point x="783" y="53"/>
      <point x="918" y="155"/>
      <point x="918" y="358" type="curve" smooth="yes"/>
      <point x="918" y="561"/>
      <point x="787" y="663"/>
      <point x="565" y="663" type="curve" smooth="yes"/>
      <point x="537" y="663" type="line"/>
      <point x="587" y="610" type="line"/>
      <point x="587" y="641" type="line" smooth="yes"/>
      <point x="587" y="711"/>
      <point x="549" y="750"/>
      <point x="480" y="750" type="curve" smooth="yes"/>
      <point x="411" y="750"/>
      <point x="372" y="711"/>
      <point x="372" y="641" type="curve" smooth="yes"/>
      <point x="372" y="610" type="line"/>
      <point x="422" y="663" type="line"/>
      <point x="394" y="663" type="line" smooth="yes"/>
      <point x="172" y="663"/>
      <point x="41" y="561"/>
      <point x="41" y="358" type="curve" smooth="yes"/>
      <point x="41" y="155"/>
      <point x="176" y="53"/>
      <point x="394" y="53" type="curve" smooth="yes"/>
      <point x="422" y="53" type="line"/>
      <point x="372" y="106" type="line"/>
      <point x="372" y="69" type="line" smooth="yes"/>
      <point x="372" y="-1"/>
      <point x="411" y="-40"/>
    </contour>
    <contour>
      <point x="374" y="179" type="line"/>
      <point x="414" y="209" type="line"/>
      <point x="378" y="209" type="line" smooth="yes"/>
      <point x="318" y="209"/>
      <point x="258" y="248"/>
      <point x="258" y="358" type="curve" smooth="yes"/>
      <point x="258" y="468"/>
      <point x="314" y="507"/>
      <point x="378" y="507" type="curve" smooth="yes"/>
      <point x="414" y="507" type="line"/>
      <point x="374" y="537" type="line"/>
    </contour>
    <contour>
      <point x="586" y="179" type="line"/>
      <point x="586" y="537" type="line"/>
      <point x="545" y="507" type="line"/>
      <point x="581" y="507" type="line" smooth="yes"/>
      <point x="645" y="507"/>
      <point x="701" y="468"/>
      <point x="701" y="358" type="curve" smooth="yes"/>
      <point x="701" y="248"/>
      <point x="641" y="209"/>
      <point x="581" y="209" type="curve" smooth="yes"/>
      <point x="545" y="209" type="line"/>
    </contour>
  </outline>
</glyph>
<glyph name="Tse-cy" format="2">
  <advance width="851"/>
  <unicode hex="0426"/>
  <outline>
    <contour>
      <point x="737" y="-190" type="curve" smooth="yes"/>
      <point x="797" y="-190"/>
      <point x="829" y="-157"/>
      <point x="829" y="-96" type="curve" smooth="yes"/>
      <point x="829" y="80" type="line" smooth="yes"/>
      <point x="829" y="141"/>
      <point x="796" y="174"/>
      <point x="735" y="174" type="curve" smooth="yes"/>
      <point x="632" y="174" type="line"/>
      <point x="729" y="77" type="line"/>
      <point x="729" y="595" type="line" smooth="yes"/>
      <point x="729" y="666"/>
      <point x="691" y="705"/>
      <point x="622" y="705" type="curve" smooth="yes"/>
      <point x="553" y="705"/>
      <point x="514" y="666"/>
      <point x="514" y="595" type="curve" smooth="yes"/>
      <point x="514" y="174" type="line"/>
      <point x="272" y="174" type="line"/>
      <point x="272" y="595" type="line" smooth="yes"/>
      <point x="272" y="666"/>
      <point x="234" y="705"/>
      <point x="165" y="705" type="curve" smooth="yes"/>
      <point x="96" y="705"/>
      <point x="57" y="666"/>
      <point x="57" y="595" type="curve" smooth="yes"/>
      <point x="57" y="111" type="line" smooth="yes"/>
      <point x="57" y="39"/>
      <point x="96" y="0"/>
      <point x="168" y="0" type="curve" smooth="yes"/>
      <point x="644" y="0" type="line"/>
      <point x="644" y="-96" type="line" smooth="yes"/>
      <point x="644" y="-157"/>
      <point x="677" y="-190"/>
    </contour>
  </outline>
</glyph>
<glyph name="Che-cy" format="2">
  <advance width="735"/>
  <unicode hex="0427"/>
  <anchor x="463" y="0" name="bottomright"/>
  <anchor x="309" y="295" name="center"/>
  <anchor x="356" y="705" name="top"/>
  <outline>
    <contour>
      <point x="571" y="-10" type="curve" smooth="yes"/>
      <point x="641" y="-10"/>
      <point x="678" y="29"/>
      <point x="678" y="100" type="curve" smooth="yes"/>
      <point x="678" y="605" type="line" smooth="yes"/>
      <point x="678" y="676"/>
      <point x="640" y="715"/>
      <point x="571" y="715" type="curve" smooth="yes"/>
      <point x="502" y="715"/>
      <point x="463" y="676"/>
      <point x="463" y="605" type="curve" smooth="yes"/>
      <point x="463" y="409" type="line"/>
      <point x="437" y="400"/>
      <point x="402" y="395"/>
      <point x="375" y="395" type="curve" smooth="yes"/>
      <point x="297" y="395"/>
      <point x="258" y="432"/>
      <point x="258" y="531" type="curve" smooth="yes"/>
      <point x="258" y="605" type="line" smooth="yes"/>
      <point x="258" y="676"/>
      <point x="220" y="715"/>
      <point x="151" y="715" type="curve" smooth="yes"/>
      <point x="82" y="715"/>
      <point x="43" y="676"/>
      <point x="43" y="605" type="curve" smooth="yes"/>
      <point x="43" y="525" type="line" smooth="yes"/>
      <point x="43" y="315"/>
      <point x="154" y="216"/>
      <point x="347" y="216" type="curve" smooth="yes"/>
      <point x="390" y="216"/>
      <point x="437" y="224"/>
      <point x="463" y="232" type="curve"/>
      <point x="463" y="100" type="line" smooth="yes"/>
      <point x="463" y="29"/>
      <point x="502" y="-10"/>
    </contour>
  </outline>
</glyph>
<glyph name="Sha-cy" format="2">
  <advance width="1101"/>
  <unicode hex="0428"/>
  <outline>
    <contour>
      <point x="168" y="0" type="curve" smooth="yes"/>
      <point x="933" y="0" type="line" smooth="yes"/>
      <point x="1005" y="0"/>
      <point x="1044" y="39"/>
      <point x="1044" y="111" type="curve" smooth="yes"/>
      <point x="1044" y="605" type="line" smooth="yes"/>
      <point x="1044" y="676"/>
      <point x="1007" y="715"/>
      <point x="939" y="715" type="curve" smooth="yes"/>
      <point x="871" y="715"/>
      <point x="833" y="676"/>
      <point x="833" y="605" type="curve" smooth="yes"/>
      <point x="833" y="174" type="line"/>
      <point x="656" y="174" type="line"/>
      <point x="656" y="605" type="line" smooth="yes"/>
      <point x="656" y="676"/>
      <point x="619" y="715"/>
      <point x="551" y="715" type="curve" smooth="yes"/>
      <point x="483" y="715"/>
      <point x="445" y="676"/>
      <point x="445" y="605" type="curve" smooth="yes"/>
      <point x="445" y="174" type="line"/>
      <point x="268" y="174" type="line"/>
      <point x="268" y="605" type="line" smooth="yes"/>
      <point x="268" y="676"/>
      <point x="231" y="715"/>
      <point x="163" y="715" type="curve" smooth="yes"/>
      <point x="95" y="715"/>
      <point x="57" y="676"/>
      <point x="57" y="605" type="curve" smooth="yes"/>
      <point x="57" y="111" type="line" smooth="yes"/>
      <point x="57" y="39"/>
      <point x="96" y="0"/>
    </contour>
  </outline>
</glyph>
<glyph name="Yeru-cy" format="2">
  <advance width="988"/>
  <unicode hex="042B"/>
  <anchor x="494" y="705" name="top"/>
  <outline>
    <contour>
      <point x="168" y="0" type="curve" smooth="yes"/>
      <point x="394" y="0" type="line" smooth="yes"/>
      <point x="549" y="0"/>
      <point x="646" y="80"/>
      <point x="646" y="221" type="curve" smooth="yes"/>
      <point x="646" y="362"/>
      <point x="549" y="442"/>
      <point x="394" y="442" type="curve" smooth="yes"/>
      <point x="272" y="442" type="line"/>
      <point x="272" y="605" type="line" smooth="yes"/>
      <point x="272" y="676"/>
      <point x="234" y="715"/>
      <point x="165" y="715" type="curve" smooth="yes"/>
      <point x="96" y="715"/>
      <point x="57" y="676"/>
      <point x="57" y="605" type="curve" smooth="yes"/>
      <point x="57" y="111" type="line" smooth="yes"/>
      <point x="57" y="39"/>
      <point x="96" y="0"/>
    </contour>
    <contour>
      <point x="272" y="160" type="line"/>
      <point x="272" y="282" type="line"/>
      <point x="364" y="282" type="line" smooth="yes"/>
      <point x="420" y="282"/>
      <point x="443" y="262"/>
      <point x="443" y="221" type="curve" smooth="yes"/>
      <point x="443" y="180"/>
      <point x="420" y="160"/>
      <point x="364" y="160" type="curve" smooth="yes"/>
    </contour>
    <contour>
      <point x="824" y="-10" type="curve" smooth="yes"/>
      <point x="894" y="-10"/>
      <point x="931" y="29"/>
      <point x="931" y="100" type="curve" smooth="yes"/>
      <point x="931" y="605" type="line" smooth="yes"/>
      <point x="931" y="676"/>
      <point x="893" y="715"/>
      <point x="824" y="715" type="curve" smooth="yes"/>
      <point x="755" y="715"/>
      <point x="716" y="676"/>
      <point x="716" y="605" type="curve" smooth="yes"/>
      <point x="716" y="100" type="line" smooth="yes"/>
      <point x="716" y="29"/>
      <point x="755" y="-10"/>
    </contour>
  </outline>
</glyph>
<glyph name="Ereversed-cy" format="2">
  <advance width="692"/>
  <unicode hex="042D"/>
  <anchor x="317" y="0" name="bottom"/>
  <anchor x="317" y="705" name="top"/>
  <outline>
    <contour>
      <point x="263" y="-12" type="curve" smooth="yes"/>
      <point x="505" y="-12"/>
      <point x="651" y="133"/>
      <point x="651" y="352" type="curve" smooth="yes"/>
      <point x="651" y="571"/>
      <point x="509" y="717"/>
      <point x="268" y="717" type="curve" smooth="yes"/>
      <point x="205" y="717"/>
      <point x="139" y="701"/>
      <point x="84" y="677" type="curve" smooth="yes"/>
      <point x="-23" y="630"/>
      <point x="31" y="453"/>
      <point x="153" y="508" type="curve" smooth="yes"/>
      <point x="184" y="522"/>
      <point x="223" y="530"/>
      <point x="255" y="530" type="curve" smooth="yes"/>
      <point x="351" y="530"/>
      <point x="416" y="487"/>
      <point x="428" y="376" type="curve"/>
      <point x="485" y="441" type="line"/>
      <point x="244" y="441" type="line" smooth="yes"/>
      <point x="188" y="441"/>
      <point x="158" y="399"/>
      <point x="158" y="346" type="curve" smooth="yes"/>
      <point x="158" y="293"/>
      <point x="189" y="277"/>
      <point x="244" y="277" type="curve" smooth="yes"/>
      <point x="482" y="277" type="line"/>
      <point x="426" y="313" type="line"/>
      <point x="414" y="221"/>
      <point x="351" y="175"/>
      <point x="255" y="175" type="curve" smooth="yes"/>
      <point x="225" y="175"/>
      <point x="189" y="182"/>
      <point x="156" y="194" type="curve" smooth="yes"/>
      <point x="35" y="238"/>
      <point x="-24" y="73"/>
      <point x="90" y="23" type="curve" smooth="yes"/>
      <point x="143" y="0"/>
      <point x="206" y="-12"/>
    </contour>
  </outline>
</glyph>
<glyph name="Iu-cy" format="2">
  <advance width="1110"/>
  <unicode hex="042E"/>
  <outline>
    <contour>
      <point x="709" y="-12" type="curve" smooth="yes"/>
      <point x="924" y="-12"/>
      <point x="1069" y="134"/>
      <point x="1069" y="353" type="curve" smooth="yes"/>
      <point x="1069" y="571"/>
      <point x="925" y="717"/>
      <point x="709" y="717" type="curve" smooth="yes"/>
      <point x="526" y="717"/>
      <point x="396" y="611"/>
      <point x="360" y="445" type="curve"/>
      <point x="272" y="445" type="line"/>
      <point x="272" y="605" type="line" smooth="yes"/>
      <point x="272" y="676"/>
      <point x="234" y="715"/>
      <point x="165" y="715" type="curve" smooth="yes"/>
      <point x="96" y="715"/>
      <point x="57" y="676"/>
      <point x="57" y="605" type="curve" smooth="yes"/>
      <point x="57" y="100" type="line" smooth="yes"/>
      <point x="57" y="29"/>
      <point x="96" y="-10"/>
      <point x="165" y="-10" type="curve" smooth="yes"/>
      <point x="235" y="-10"/>
      <point x="272" y="29"/>
      <point x="272" y="100" type="curve" smooth="yes"/>
      <point x="272" y="269" type="line"/>
      <point x="359" y="269" type="line"/>
      <point x="393" y="98"/>
      <point x="524" y="-12"/>
    </contour>
    <contour>
      <point x="710" y="167" type="curve" smooth="yes"/>
      <point x="625" y="167"/>
      <point x="574" y="236"/>
      <point x="574" y="353" type="curve" smooth="yes"/>
      <point x="574" y="470"/>
      <point x="624" y="538"/>
      <point x="710" y="538" type="curve" smooth="yes"/>
      <point x="795" y="538"/>
      <point x="846" y="469"/>
      <point x="846" y="353" type="curve" smooth="yes"/>
      <point x="846" y="237"/>
      <point x="795" y="167"/>
    </contour>
  </outline>
</glyph>
<glyph name="ge-cy" format="2">
  <advance width="500"/>
  <unicode hex="0433"/>
  <anchor x="68" y="0" name="bottomright"/>
  <anchor x="194" y="248" name="center"/>
  <anchor x="247" y="484" name="top"/>
  <outline>
    <contour>
      <point x="158" y="-10" type="curve" smooth="yes"/>
      <point x="226" y="-10"/>
      <point x="262" y="27"/>
      <point x="262" y="95" type="curve" smooth="yes"/>
      <point x="262" y="334" type="line"/>
      <point x="404" y="334" type="line" smooth="yes"/>
      <point x="459" y="334"/>
      <point x="489" y="362"/>
      <point x="489" y="414" type="curve" smooth="yes"/>
      <point x="489" y="466"/>
      <point x="459" y="494"/>
      <point x="404" y="494" type="curve" smooth="yes"/>
      <point x="169" y="494" type="line" smooth="yes"/>
      <point x="95" y="494"/>
      <point x="54" y="453"/>
      <point x="54" y="379" type="curve" smooth="yes"/>
      <point x="54" y="95" type="line" smooth="yes"/>
      <point x="54" y="27"/>
      <point x="91" y="-10"/>
    </contour>
  </outline>
</glyph>
<glyph name="de-cy" format="2">
  <advance width="667"/>
  <unicode hex="0434"/>
  <outline>
    <contour>
      <point x="113" y="-140" type="curve" smooth="yes"/>
      <point x="170" y="-140"/>
      <point x="200" y="-108"/>
      <point x="200" y="-49" type="curve" smooth="yes"/>
      <point x="200" y="0" type="line"/>
      <point x="483" y="0" type="line"/>
      <point x="483" y="-49" type="line" smooth="yes"/>
      <point x="483" y="-108"/>
      <point x="514" y="-140"/>
      <point x="571" y="-140" type="curve" smooth="yes"/>
      <point x="627" y="-140"/>
      <point x="658" y="-108"/>
      <point x="658" y="-49" type="curve" smooth="yes"/>
      <point x="658" y="63" type="line" smooth="yes"/>
      <point x="658" y="122"/>
      <point x="626" y="154"/>
      <point x="567" y="154" type="curve" smooth="yes"/>
      <point x="476" y="154" type="line"/>
      <point x="573" y="57" type="line"/>
      <point x="573" y="379" type="line" smooth="yes"/>
      <point x="573" y="453"/>
      <point x="532" y="494"/>
      <point x="458" y="494" type="curve" smooth="yes"/>
      <point x="238" y="494" type="line" smooth="yes"/>
      <point x="164" y="494"/>
      <point x="123" y="453"/>
      <point x="123" y="379" type="curve" smooth="yes"/>
      <point x="123" y="364" type="line" smooth="yes"/>
      <point x="123" y="226"/>
      <point x="108" y="175"/>
      <point x="64" y="110" type="curve"/>
      <point x="187" y="154" type="line"/>
      <point x="116" y="154" type="line" smooth="yes"/>
      <point x="57" y="154"/>
      <point x="25" y="122"/>
      <point x="25" y="63" type="curve" smooth="yes"/>
      <point x="25" y="-49" type="line" smooth="yes"/>
      <point x="25" y="-108"/>
      <point x="57" y="-140"/>
    </contour>
    <contour>
      <point x="268" y="153" type="line"/>
      <point x="286" y="191"/>
      <point x="296" y="253"/>
      <point x="296" y="305" type="curve" smooth="yes"/>
      <point x="296" y="338" type="line"/>
      <point x="380" y="338" type="line"/>
      <point x="380" y="153" type="line"/>
    </contour>
  </outline>
</glyph>
<glyph name="ka-cy" format="2">
  <advance width="622"/>
  <unicode hex="043A"/>
  <anchor x="438" y="0" name="bottomright"/>
  <anchor x="306" y="248" name="center"/>
  <anchor x="339" y="484" name="top"/>
  <outline>
    <contour>
      <point x="158" y="-10" type="curve" smooth="yes"/>
      <point x="225" y="-10"/>
      <point x="262" y="27"/>
      <point x="262" y="95" type="curve" smooth="yes"/>
      <point x="262" y="171" type="line"/>
      <point x="298" y="171" type="line" smooth="yes"/>
      <point x="319" y="171"/>
      <point x="334" y="163"/>
      <point x="347" y="137" type="curve" smooth="yes"/>
      <point x="393" y="48" type="line" smooth="yes"/>
      <point x="453" y="-68"/>
      <point x="633" y="11"/>
      <point x="572" y="129" type="curve" smooth="yes"/>
      <point x="531" y="208" type="line" smooth="yes"/>
      <point x="510" y="249"/>
      <point x="466" y="292"/>
      <point x="415" y="299" type="curve"/>
      <point x="451" y="232" type="line"/>
      <point x="535" y="360" type="line" smooth="yes"/>
      <point x="607" y="469"/>
      <point x="450" y="565"/>
      <point x="379" y="456" type="curve" smooth="yes"/>
      <point x="296" y="329" type="line"/>
      <point x="262" y="329" type="line"/>
      <point x="262" y="399" type="line" smooth="yes"/>
      <point x="262" y="467"/>
      <point x="225" y="504"/>
      <point x="158" y="504" type="curve" smooth="yes"/>
      <point x="91" y="504"/>
      <point x="54" y="467"/>
      <point x="54" y="399" type="curve" smooth="yes"/>
      <point x="54" y="95" type="line" smooth="yes"/>
      <point x="54" y="27"/>
      <point x="91" y="-10"/>
    </contour>
  </outline>
</glyph>
<glyph name="el-cy" format="2">
  <advance width="639"/>
  <unicode hex="043B"/>
  <anchor x="396" y="0" name="bottomright"/>
  <outline>
    <contour>
      <point x="481" y="-10" type="curve" smooth="yes"/>
      <point x="548" y="-10"/>
      <point x="585" y="27"/>
      <point x="585" y="95" type="curve" smooth="yes"/>
      <point x="585" y="379" type="line" smooth="yes"/>
      <point x="585" y="453"/>
      <point x="544" y="494"/>
      <point x="470" y="494" type="curve" smooth="yes"/>
      <point x="230" y="494" type="line" smooth="yes"/>
      <point x="156" y="494"/>
      <point x="115" y="453"/>
      <point x="115" y="379" type="curve" smooth="yes"/>
      <point x="115" y="292" type="line" smooth="yes"/>
      <point x="115" y="243"/>
      <point x="106" y="190"/>
      <point x="65" y="164" type="curve" smooth="yes"/>
      <point x="-39" y="98"/>
      <point x="32" y="-47"/>
      <point x="150" y="-1" type="curve" smooth="yes"/>
      <point x="254" y="39"/>
      <point x="303" y="145"/>
      <point x="303" y="285" type="curve" smooth="yes"/>
      <point x="303" y="336" type="line"/>
      <point x="377" y="336" type="line"/>
      <point x="377" y="95" type="line" smooth="yes"/>
      <point x="377" y="27"/>
      <point x="414" y="-10"/>
    </contour>
  </outline>
</glyph>
<glyph name="te-cy" format="2">
  <advance width="528"/>
  <unicode hex="0442"/>
  <anchor x="160" y="0" name="bottomright"/>
  <outline>
    <contour>
      <point x="264" y="-10" type="curve" smooth="yes"/>
      <point x="332" y="-10"/>
      <point x="368" y="27"/>
      <point x="368" y="95" type="curve" smooth="yes"/>
      <point x="368" y="332" type="line"/>
      <point x="443" y="332" type="line" smooth="yes"/>
      <point x="498" y="332"/>
      <point x="528" y="361"/>
      <point x="528" y="413" type="curve" smooth="yes"/>
      <point x="528" y="465"/>
      <point x="498" y="494"/>
      <point x="443" y="494" type="curve" smooth="yes"/>
      <point x="85" y="494" type="line" smooth="yes"/>
      <point x="30" y="494"/>
      <point x="0" y="465"/>
      <point x="0" y="413" type="curve" smooth="yes"/>
      <point x="0" y="361"/>
      <point x="30" y="332"/>
      <point x="85" y="332" type="curve" smooth="yes"/>
      <point x="160" y="332" type="line"/>
      <point x="160" y="95" type="line" smooth="yes"/>
      <point x="160" y="27"/>
      <point x="197" y="-10"/>
    </contour>
  </outline>
</glyph>
<glyph name="tse-cy" format="2">
  <advance width="671"/>
  <unicode hex="0446"/>
  <outline>
    <contour>
      <point x="575" y="-140" type="curve" smooth="yes"/>
      <point x="632" y="-140"/>
      <point x="662" y="-108"/>
      <point x="662" y="-50" type="curve" smooth="yes"/>
      <point x="662" y="68" type="line" smooth="yes"/>
      <point x="662" y="126"/>
      <point x="630" y="158"/>
      <point x="572" y="158" type="curve" smooth="yes"/>
      <point x="480" y="158" type="line"/>
      <point x="577" y="61" type="line"/>
      <point x="577" y="399" type="line" smooth="yes"/>
      <point x="577" y="467"/>
      <point x="540" y="504"/>
      <point x="473" y="504" type="curve" smooth="yes"/>
      <point x="406" y="504"/>
      <point x="369" y="467"/>
      <point x="369" y="399" type="curve" smooth="yes"/>
      <point x="369" y="158" type="line"/>
      <point x="262" y="158" type="line"/>
      <point x="262" y="399" type="line" smooth="yes"/>
      <point x="262" y="467"/>
      <point x="225" y="504"/>
      <point x="158" y="504" type="curve" smooth="yes"/>
      <point x="91" y="504"/>
      <point x="54" y="467"/>
      <point x="54" y="399" type="curve" smooth="yes"/>
      <point x="54" y="99" type="line" smooth="yes"/>
      <point x="54" y="35"/>
      <point x="89" y="0"/>
      <point x="153" y="0" type="curve" smooth="yes"/>
      <point x="487" y="0" type="line"/>
      <point x="487" y="-50" type="line" smooth="yes"/>
      <point x="487" y="-108"/>
      <point x="519" y="-140"/>
    </contour>
  </outline>
</glyph>
<glyph name="hardsign-cy" format="2">
  <advance width="670"/>
  <unicode hex="044A"/>
  <outline>
    <contour>
      <point x="239" y="0" type="curve" smooth="yes"/>
      <point x="442" y="0" type="line" smooth="yes"/>
      <point x="565" y="0"/>
      <point x="652" y="76"/>
      <point x="652" y="182" type="curve" smooth="yes"/>
      <point x="652" y="297"/>
      <point x="582" y="354"/>
      <point x="442" y="354" type="curve" smooth="yes"/>
      <point x="348" y="354" type="line"/>
      <point x="348" y="395" type="line" smooth="yes"/>
      <point x="348" y="459"/>
      <point x="313" y="494"/>
      <point x="249" y="494" type="curve" smooth="yes"/>
      <point x="90" y="494" type="line" smooth="yes"/>
      <point x="32" y="494"/>
      <point x="0" y="465"/>
      <point x="0" y="413" type="curve" smooth="yes"/>
      <point x="0" y="361"/>
      <point x="32" y="332"/>
      <point x="90" y="332" type="curve" smooth="yes"/>
      <point x="140" y="332" type="line"/>
      <point x="140" y="99" type="line" smooth="yes"/>
      <point x="140" y="35"/>
      <point x="175" y="0"/>
    </contour>
    <contour>
      <point x="348" y="129" type="line"/>
      <point x="348" y="225" type="line"/>
      <point x="402" y="225" type="line" smooth="yes"/>
      <point x="443" y="225"/>
      <point x="464" y="212"/>
      <point x="464" y="179" type="curve" smooth="yes"/>
      <point x="464" y="146"/>
      <point x="440" y="129"/>
      <point x="402" y="129" type="curve" smooth="yes"/>
    </contour>
  </outline>
</glyph>
<glyph name="softsign-cy" format="2">
  <advance width="584"/>
  <unicode hex="044C"/>
  <outline>
    <contour>
      <point x="153" y="0" type="curve" smooth="yes"/>
      <point x="356" y="0" type="line" smooth="yes"/>
      <point x="479" y="0"/>
      <point x="566" y="76"/>
      <point x="566" y="182" type="curve" smooth="yes"/>
      <point x="566" y="297"/>
      <point x="496" y="354"/>
      <point x="356" y="354" type="curve" smooth="yes"/>
      <point x="262" y="354" type="line"/>
      <point x="262" y="399" type="line" smooth="yes"/>
      <point x="262" y="467"/>
      <point x="225" y="504"/>
      <point x="158" y="504" type="curve" smooth="yes"/>
      <point x="91" y="504"/>
      <point x="54" y="467"/>
      <point x="54" y="399" type="curve" smooth="yes"/>
      <point x="54" y="99" type="line" smooth="yes"/>
      <point x="54" y="35"/>
      <point x="89" y="0"/>
    </contour>
    <contour>
      <point x="262" y="129" type="line"/>
      <point x="262" y="225" type="line"/>
      <point x="316" y="225" type="line" smooth="yes"/>
      <point x="357" y="225"/>
      <point x="378" y="212"/>
      <point x="378" y="179" type="curve" smooth="yes"/>
      <point x="378" y="146"/>
      <point x="354" y="129"/>
      <point x="316" y="129" type="curve" smooth="yes"/>
    </contour>
  </outline>
</glyph>
<glyph name="ia-cy" format="2">
  <advance width="602"/>
  <unicode hex="044F"/>
  <outline>
    <contour>
      <point x="453" y="-10" type="curve" smooth="yes"/>
      <point x="511" y="-10"/>
      <point x="548" y="24"/>
      <point x="548" y="85" type="curve" smooth="yes"/>
      <point x="548" y="395" type="line" smooth="yes"/>
      <point x="548" y="459"/>
      <point x="513" y="494"/>
      <point x="449" y="494" type="curve" smooth="yes"/>
      <point x="243" y="494" type="line" smooth="yes"/>
      <point x="109" y="494"/>
      <point x="33" y="435"/>
      <point x="33" y="331" type="curve" smooth="yes"/>
      <point x="33" y="228"/>
      <point x="95" y="178"/>
      <point x="223" y="178" type="curve"/>
      <point x="223" y="193" type="line"/>
      <point x="180" y="193" type="line" smooth="yes"/>
      <point x="142" y="193"/>
      <point x="107" y="168"/>
      <point x="90" y="150" type="curve" smooth="yes"/>
      <point x="72" y="131" type="line" smooth="yes"/>
      <point x="-15" y="40"/>
      <point x="133" y="-76"/>
      <point x="228" y="34" type="curve" smooth="yes"/>
      <point x="291" y="107" type="line" smooth="yes"/>
      <point x="308" y="127"/>
      <point x="320" y="138"/>
      <point x="333" y="138" type="curve" smooth="yes"/>
      <point x="358" y="138" type="line"/>
      <point x="358" y="85" type="line" smooth="yes"/>
      <point x="358" y="24"/>
      <point x="395" y="-10"/>
    </contour>
    <contour>
      <point x="289" y="267" type="line" smooth="yes"/>
      <point x="249" y="267"/>
      <point x="227" y="285"/>
      <point x="227" y="316" type="curve" smooth="yes"/>
      <point x="227" y="347"/>
      <point x="249" y="365"/>
      <point x="289" y="365" type="curve" smooth="yes"/>
      <point x="358" y="365" type="line"/>
      <point x="358" y="267" type="line"/>
    </contour>
  </outline>
</glyph>
<glyph name="e-cy" format="2">
  <advance width="547"/>
  <unicode hex="0454"/>
  <outline>
    <contour>
      <point x="332" y="-12" type="curve" smooth="yes"/>
      <point x="385" y="-12"/>
      <point x="431" y="-5"/>
      <point x="478" y="11" type="curve" smooth="yes"/>
      <point x="568" y="41"/>
      <point x="533" y="180"/>
      <point x="433" y="143" type="curve" smooth="yes"/>
      <point x="406" y="133"/>
      <point x="371" y="128"/>
      <point x="351" y="128" type="curve" smooth="yes"/>
      <point x="286" y="128"/>
      <point x="236" y="152"/>
      <point x="223" y="215" type="curve"/>
      <point x="210" y="183" type="line"/>
      <point x="363" y="183" type="line" smooth="yes"/>
      <point x="411" y="183"/>
      <point x="438" y="206"/>
      <point x="438" y="249" type="curve" smooth="yes"/>
      <point x="438" y="292"/>
      <point x="411" y="315"/>
      <point x="363" y="315" type="curve" smooth="yes"/>
      <point x="210" y="315" type="line"/>
      <point x="223" y="286" type="line"/>
      <point x="241" y="347"/>
      <point x="286" y="367"/>
      <point x="351" y="367" type="curve" smooth="yes"/>
      <point x="374" y="367"/>
      <point x="406" y="362"/>
      <point x="437" y="352" type="curve" smooth="yes"/>
      <point x="532" y="321"/>
      <point x="569" y="454"/>
      <point x="478" y="484" type="curve" smooth="yes"/>
      <point x="433" y="499"/>
      <point x="387" y="506"/>
      <point x="342" y="506" type="curve" smooth="yes"/>
      <point x="152" y="506"/>
      <point x="34" y="408"/>
      <point x="34" y="247" type="curve" smooth="yes"/>
      <point x="34" y="86"/>
      <point x="152" y="-12"/>
    </contour>
  </outline>
</glyph>
<glyph name="yat-cy" format="2">
  <advance width="670"/>
  <unicode hex="0463"/>
  <outline>
    <contour>
      <point x="239" y="0" type="curve" smooth="yes"/>
      <point x="462" y="0" type="line" smooth="yes"/>
      <point x="574" y="0"/>
      <point x="652" y="51"/>
      <point x="652" y="157" type="curve" smooth="yes"/>
      <point x="652" y="263"/>
      <point x="574" y="314"/>
      <point x="462" y="314" type="curve" smooth="yes"/>
      <point x="348" y="314" type="line"/>
      <point x="348" y="364" type="line"/>
      <point x="458" y="364" type="line" smooth="yes"/>
      <point x="503" y="364"/>
      <point x="528" y="387"/>
      <point x="528" y="429" type="curve" smooth="yes"/>
      <point x="528" y="471"/>
      <point x="503" y="494"/>
      <point x="458" y="494" type="curve" smooth="yes"/>
      <point x="348" y="494" type="line"/>
      <point x="348" y="606" type="line" smooth="yes"/>
      <point x="348" y="676"/>
      <point x="311" y="715"/>
      <point x="244" y="715" type="curve" smooth="yes"/>
      <point x="177" y="715"/>
      <point x="140" y="676"/>
      <point x="140" y="606" type="curve" smooth="yes"/>
      <point x="140" y="494" type="line"/>
      <point x="70" y="494" type="line" smooth="yes"/>
      <point x="25" y="494"/>
      <point x="0" y="471"/>
      <point x="0" y="429" type="curve" smooth="yes"/>
      <point x="0" y="387"/>
      <point x="25" y="364"/>
      <point x="70" y="364" type="curve" smooth="yes"/>
      <point x="140" y="364" type="line"/>
      <point x="140" y="99" type="line" smooth="yes"/>
      <point x="140" y="35"/>
      <point x="175" y="0"/>
    </contour>
    <contour>
      <point x="348" y="114" type="line"/>
      <point x="348" y="200" type="line"/>
      <point x="412" y="200" type="line" smooth="yes"/>
      <point x="442" y="200"/>
      <point x="464" y="188"/>
      <point x="464" y="159" type="curve" smooth="yes"/>
      <point x="464" y="130"/>
      <point x="442" y="114"/>
      <point x="412" y="114" type="curve" smooth="yes"/>
    </contour>
  </outline>
</glyph>
<glyph name="Yusbig-cy" format="2">
  <advance width="1110"/>
  <unicode hex="046A"/>
  <outline>
    <contour>
      <point x="556" y="-10" type="curve" smooth="yes"/>
      <point x="626" y="-10"/>
      <point x="663" y="29"/>
      <point x="663" y="100" type="curve" smooth="yes"/>
      <point x="663" y="259" type="line"/>
      <point x="693" y="259" type="line" smooth="yes"/>
      <point x="758" y="259"/>
      <point x="780" y="234"/>
      <point x="798" y="195" type="curve" smooth="yes"/>
      <point x="860" y="57" type="line" smooth="yes"/>
      <point x="917" y="-70"/>
      <point x="1120" y="-3"/>
      <point x="1049" y="143" type="curve" smooth="yes"/>
      <point x="987" y="270" type="line" smooth="yes"/>
      <point x="936" y="375"/>
      <point x="838" y="430"/>
      <point x="721" y="430" type="curve" smooth="yes"/>
      <point x="709" y="430" type="line"/>
      <point x="709" y="384" type="line"/>
      <point x="893" y="589" type="line" smooth="yes"/>
      <point x="940" y="642"/>
      <point x="922" y="705"/>
      <point x="833" y="705" type="curve" smooth="yes"/>
      <point x="278" y="705" type="line" smooth="yes"/>
      <point x="189" y="705"/>
      <point x="171" y="642"/>
      <point x="218" y="589" type="curve" smooth="yes"/>
      <point x="401" y="384" type="line"/>
      <point x="401" y="430" type="line"/>
      <point x="389" y="430" type="line" smooth="yes"/>
      <point x="272" y="430"/>
      <point x="174" y="375"/>
      <point x="123" y="270" type="curve" smooth="yes"/>
      <point x="61" y="143" type="line" smooth="yes"/>
      <point x="-10" y="-3"/>
      <point x="193" y="-70"/>
      <point x="250" y="57" type="curve" smooth="yes"/>
      <point x="312" y="195" type="line" smooth="yes"/>
      <point x="330" y="234"/>
      <point x="352" y="259"/>
      <point x="417" y="259" type="curve" smooth="yes"/>
      <point x="448" y="259" type="line"/>
      <point x="448" y="100" type="line" smooth="yes"/>
      <point x="448" y="29"/>
      <point x="487" y="-10"/>
    </contour>
    <contour>
      <point x="554" y="425" type="line"/>
      <point x="401" y="606" type="line"/>
      <point x="401" y="567" type="line"/>
      <point x="709" y="567" type="line"/>
      <point x="709" y="606" type="line"/>
      <point x="556" y="425" type="line"/>
    </contour>
  </outline>
</glyph>
<glyph name="yusbig-cy" format="2">
  <advance width="908"/>
  <unicode hex="046B"/>
  <outline>
    <contour>
      <point x="454" y="-10" type="curve" smooth="yes"/>
      <point x="521" y="-10"/>
      <point x="558" y="27"/>
      <point x="558" y="95" type="curve" smooth="yes"/>
      <point x="558" y="147" type="line"/>
      <point x="584" y="147" type="line" smooth="yes"/>
      <point x="605" y="147"/>
      <point x="618" y="137"/>
      <point x="633" y="113" type="curve" smooth="yes"/>
      <point x="678" y="41" type="line" smooth="yes"/>
      <point x="745" y="-66"/>
      <point x="913" y="20"/>
      <point x="847" y="133" type="curve" smooth="yes"/>
      <point x="817" y="184" type="line" smooth="yes"/>
      <point x="769" y="265"/>
      <point x="725" y="305"/>
      <point x="618" y="305" type="curve" smooth="yes"/>
      <point x="580" y="305" type="line"/>
      <point x="617" y="243" type="line"/>
      <point x="747" y="395" type="line" smooth="yes"/>
      <point x="787" y="442"/>
      <point x="772" y="494"/>
      <point x="696" y="494" type="curve" smooth="yes"/>
      <point x="212" y="494" type="line" smooth="yes"/>
      <point x="137" y="494"/>
      <point x="121" y="442"/>
      <point x="161" y="395" type="curve" smooth="yes"/>
      <point x="291" y="243" type="line"/>
      <point x="328" y="305" type="line"/>
      <point x="290" y="305" type="line" smooth="yes"/>
      <point x="182" y="305"/>
      <point x="140" y="267"/>
      <point x="91" y="184" type="curve" smooth="yes"/>
      <point x="61" y="133" type="line" smooth="yes"/>
      <point x="-5" y="20"/>
      <point x="163" y="-66"/>
      <point x="230" y="41" type="curve" smooth="yes"/>
      <point x="275" y="113" type="line" smooth="yes"/>
      <point x="290" y="137"/>
      <point x="303" y="147"/>
      <point x="324" y="147" type="curve" smooth="yes"/>
      <point x="350" y="147" type="line"/>
      <point x="350" y="95" type="line" smooth="yes"/>
      <point x="350" y="27"/>
      <point x="387" y="-10"/>
    </contour>
    <contour>
      <point x="453" y="264" type="line"/>
      <point x="315" y="425" type="line"/>
      <point x="315" y="368" type="line"/>
      <point x="593" y="368" type="line"/>
      <point x="593" y="425" type="line"/>
      <point x="455" y="264" type="line"/>
    </contour>
  </outline>
</glyph>
<glyph name="Semisoftsign-cy" format="2">
  <advance width="770"/>
  <unicode hex="048C"/>
  <outline>
    <contour>
      <point x="251" y="0" type="curve" smooth="yes"/>
      <point x="497" y="0" type="line" smooth="yes"/>
      <point x="652" y="0"/>
      <point x="749" y="80"/>
      <point x="749" y="221" type="curve" smooth="yes"/>
      <point x="749" y="362"/>
      <point x="652" y="442"/>
      <point x="497" y="442" type="curve" smooth="yes"/>
      <point x="345" y="442" type="line"/>
      <point x="345" y="497" type="line"/>
      <point x="419" y="497" type="line" smooth="yes"/>
      <point x="468" y="497"/>
      <point x="495" y="523"/>
      <point x="495" y="571" type="curve" smooth="yes"/>
      <point x="495" y="619"/>
      <point x="468" y="645"/>
      <point x="419" y="645" type="curve" smooth="yes"/>
      <point x="288" y="645" type="line"/>
      <point x="345" y="548" type="line"/>
      <point x="345" y="605" type="line" smooth="yes"/>
      <point x="345" y="676"/>
      <point x="309" y="715"/>
      <point x="243" y="715" type="curve" smooth="yes"/>
      <point x="177" y="715"/>
      <point x="140" y="676"/>
      <point x="140" y="605" type="curve" smooth="yes"/>
      <point x="140" y="548" type="line"/>
      <point x="197" y="645" type="line"/>
      <point x="66" y="645" type="line" smooth="yes"/>
      <point x="17" y="645"/>
      <point x="-10" y="619"/>
      <point x="-10" y="571" type="curve" smooth="yes"/>
      <point x="-10" y="523"/>
      <point x="17" y="497"/>
      <point x="66" y="497" type="curve" smooth="yes"/>
      <point x="140" y="497" type="line"/>
      <point x="140" y="111" type="line" smooth="yes"/>
      <point x="140" y="39"/>
      <point x="179" y="0"/>
    </contour>
    <contour>
      <point x="345" y="160" type="line"/>
      <point x="345" y="282" type="line"/>
      <point x="467" y="282" type="line" smooth="yes"/>
      <point x="523" y="282"/>
      <point x="546" y="262"/>
      <point x="546" y="221" type="curve" smooth="yes"/>
      <point x="546" y="180"/>
      <point x="523" y="160"/>
      <point x="467" y="160" type="curve" smooth="yes"/>
    </contour>
  </outline>
</glyph>
<glyph name="gheupturn-cy" format="2">
  <advance width="500"/>
  <unicode hex="0491"/>
  <outline>
    <contour>
      <point x="158" y="-10" type="curve" smooth="yes"/>
      <point x="226" y="-10"/>
      <point x="262" y="27"/>
      <point x="262" y="95" type="curve" smooth="yes"/>
      <point x="262" y="334" type="line"/>
      <point x="364" y="334" type="line" smooth="yes"/>
      <point x="438" y="334"/>
      <point x="479" y="375"/>
      <point x="479" y="449" type="curve" smooth="yes"/>
      <point x="479" y="521" type="line" smooth="yes"/>
      <point x="479" y="580"/>
      <point x="448" y="612"/>
      <point x="392" y="612" type="curve" smooth="yes"/>
      <point x="336" y="612"/>
      <point x="304" y="580"/>
      <point x="304" y="521" type="curve" smooth="yes"/>
      <point x="304" y="494" type="line"/>
      <point x="169" y="494" type="line" smooth="yes"/>
      <point x="95" y="494"/>
      <point x="54" y="453"/>
      <point x="54" y="379" type="curve" smooth="yes"/>
      <point x="54" y="95" type="line" smooth="yes"/>
      <point x="54" y="27"/>
      <point x="91" y="-10"/>
    </contour>
  </outline>
</glyph>
<glyph name="Ghestroke-cy" format="2">
  <advance width="644"/>
  <unicode hex="0492"/>
  <outline>
    <contour>
      <point x="218" y="-10" type="curve" smooth="yes"/>
      <point x="288" y="-10"/>
      <point x="325" y="29"/>
      <point x="325" y="99" type="curve" smooth="yes"/>
      <point x="325" y="264" type="line"/>
      <point x="417" y="264" type="line" smooth="yes"/>
      <point x="467" y="264"/>
      <point x="495" y="290"/>
      <point x="495" y="338" type="curve" smooth="yes"/>
      <point x="495" y="386"/>
      <point x="467" y="412"/>
      <point x="417" y="412" type="curve" smooth="yes"/>
      <point x="325" y="412" type="line"/>
      <point x="325" y="531" type="line"/>
      <point x="547" y="531" type="line" smooth="yes"/>
      <point x="604" y="531"/>
      <point x="635" y="562"/>
      <point x="635" y="618" type="curve" smooth="yes"/>
      <point x="635" y="674"/>
      <point x="604" y="705"/>
      <point x="547" y="705" type="curve" smooth="yes"/>
      <point x="221" y="705" type="line" smooth="yes"/>
      <point x="149" y="705"/>
      <point x="110" y="666"/>
      <point x="110" y="594" type="curve" smooth="yes"/>
      <point x="110" y="412" type="line"/>
      <point x="98" y="412" type="line" smooth="yes"/>
      <point x="48" y="412"/>
      <point x="20" y="386"/>
      <point x="20" y="338" type="curve" smooth="yes"/>
      <point x="20" y="290"/>
      <point x="48" y="264"/>
      <point x="98" y="264" type="curve" smooth="yes"/>
      <point x="110" y="264" type="line"/>
      <point x="110" y="99" type="line" smooth="yes"/>
      <point x="110" y="29"/>
      <point x="149" y="-10"/>
    </contour>
  </outline>
</glyph>
<glyph name="ghemiddlehook-cy" format="2">
  <advance width="624"/>
  <unicode hex="0495"/>
  <outline>
    <contour>
      <point x="477" y="-145" type="curve" smooth="yes"/>
      <point x="577" y="-81"/>
      <point x="596" y="-23"/>
      <point x="596" y="70" type="curve" smooth="yes"/>
      <point x="596" y="96" type="line" smooth="yes"/>
      <point x="596" y="245"/>
      <point x="538" y="315"/>
      <point x="420" y="315" type="curve" smooth="yes"/>
      <point x="338" y="315"/>
      <point x="276" y="278"/>
      <point x="240" y="215" type="curve"/>
      <point x="262" y="215" type="line"/>
      <point x="262" y="354" type="line"/>
      <point x="414" y="354" type="line" smooth="yes"/>
      <point x="462" y="354"/>
      <point x="489" y="379"/>
      <point x="489" y="424" type="curve" smooth="yes"/>
      <point x="489" y="469"/>
      <point x="462" y="494"/>
      <point x="414" y="494" type="curve" smooth="yes"/>
      <point x="169" y="494" type="line" smooth="yes"/>
      <point x="95" y="494"/>
      <point x="54" y="453"/>
      <point x="54" y="379" type="curve" smooth="yes"/>
      <point x="54" y="95" type="line" smooth="yes"/>
      <point x="54" y="27"/>
      <point x="91" y="-10"/>
      <point x="158" y="-10" type="curve" smooth="yes"/>
      <point x="226" y="-10"/>
      <point x="262" y="24"/>
      <point x="262" y="79" type="curve" smooth="yes"/>
      <point x="262" y="81" type="line" smooth="yes"/>
      <point x="262" y="127"/>
      <point x="291" y="157"/>
      <point x="341" y="157" type="curve" smooth="yes"/>
      <point x="382" y="157"/>
      <point x="388" y="137"/>
      <point x="388" y="88" type="curve" smooth="yes"/>
      <point x="388" y="70" type="line" smooth="yes"/>
      <point x="388" y="17"/>
      <point x="381" y="5"/>
      <point x="353" y="-21" type="curve" smooth="yes"/>
      <point x="280" y="-89"/>
      <point x="359" y="-220"/>
    </contour>
  </outline>
</glyph>
<glyph name="Kadescender-cy" format="2">
  <advance width="771"/>
  <unicode hex="049A"/>
  <outline>
    <contour>
      <point x="693" y="-190" type="curve" smooth="yes"/>
      <point x="753" y="-190"/>
      <point x="785" y="-156"/>
      <point x="785" y="-95" type="curve" smooth="yes"/>
      <point x="785" y="72" type="line" smooth="yes"/>
      <point x="785" y="133"/>
      <point x="751" y="167"/>
      <point x="690" y="167" type="curve" smooth="yes"/>
      <point x="639" y="167" type="line"/>
      <point x="709" y="80" type="line"/>
      <point x="621" y="262" type="line" smooth="yes"/>
      <point x="573" y="361"/>
      <point x="514" y="405"/>
      <point x="417" y="425" type="curve"/>
      <point x="504" y="369" type="line"/>
      <point x="624" y="561" type="line" smooth="yes"/>
      <point x="703" y="687"/>
      <point x="524" y="781"/>
      <point x="455" y="660" type="curve" smooth="yes"/>
      <point x="314" y="414" type="line"/>
      <point x="341" y="433" type="line"/>
      <point x="272" y="433" type="line"/>
      <point x="272" y="606" type="line" smooth="yes"/>
      <point x="272" y="676"/>
      <point x="234" y="715"/>
      <point x="165" y="715" type="curve" smooth="yes"/>
      <point x="96" y="715"/>
      <point x="57" y="676"/>
      <point x="57" y="606" type="curve" smooth="yes"/>
      <point x="57" y="99" type="line" smooth="yes"/>
      <point x="57" y="29"/>
      <point x="96" y="-10"/>
      <point x="165" y="-10" type="curve" smooth="yes"/>
      <point x="235" y="-10"/>
      <point x="272" y="29"/>
      <point x="272" y="99" type="curve" smooth="yes"/>
      <point x="272" y="259" type="line"/>
      <point x="322" y="259" type="line" smooth="yes"/>
      <point x="377" y="259"/>
      <point x="407" y="241"/>
      <point x="428" y="195" type="curve" smooth="yes"/>
      <point x="490" y="57" type="line" smooth="yes"/>
      <point x="511" y="10"/>
      <point x="552" y="0"/>
      <point x="591" y="0" type="curve" smooth="yes"/>
      <point x="627" y="0" type="line"/>
      <point x="600" y="29" type="line"/>
      <point x="600" y="-95" type="line" smooth="yes"/>
      <point x="600" y="-156"/>
      <point x="633" y="-190"/>
    </contour>
  </outline>
</glyph>
<glyph name="kadescender-cy" format="2">
  <advance width="676"/>
  <unicode hex="049B"/>
  <outline>
    <contour>
      <point x="568" y="-138" type="curve" smooth="yes"/>
      <point x="629" y="-138"/>
      <point x="654" y="-105"/>
      <point x="654" y="-46" type="curve" smooth="yes"/>
      <point x="654" y="57" type="line" smooth="yes"/>
      <point x="654" y="118"/>
      <point x="621" y="152"/>
      <point x="560" y="152" type="curve" smooth="yes"/>
      <point x="523" y="152" type="line"/>
      <point x="604" y="66" type="line"/>
      <point x="531" y="208" type="line" smooth="yes"/>
      <point x="510" y="249"/>
      <point x="466" y="292"/>
      <point x="415" y="299" type="curve"/>
      <point x="451" y="232" type="line"/>
      <point x="535" y="360" type="line" smooth="yes"/>
      <point x="607" y="469"/>
      <point x="450" y="565"/>
      <point x="379" y="456" type="curve" smooth="yes"/>
      <point x="296" y="329" type="line"/>
      <point x="262" y="329" type="line"/>
      <point x="262" y="399" type="line" smooth="yes"/>
      <point x="262" y="467"/>
      <point x="225" y="504"/>
      <point x="158" y="504" type="curve" smooth="yes"/>
      <point x="91" y="504"/>
      <point x="54" y="467"/>
      <point x="54" y="399" type="curve" smooth="yes"/>
      <point x="54" y="95" type="line" smooth="yes"/>
      <point x="54" y="27"/>
      <point x="91" y="-10"/>
      <point x="158" y="-10" type="curve" smooth="yes"/>
      <point x="225" y="-10"/>
      <point x="262" y="27"/>
      <point x="262" y="95" type="curve" smooth="yes"/>
      <point x="262" y="171" type="line"/>
      <point x="298" y="171" type="line" smooth="yes"/>
      <point x="319" y="171"/>
      <point x="334" y="162"/>
      <point x="347" y="137" type="curve" smooth="yes"/>
      <point x="388" y="57" type="line" smooth="yes"/>
      <point x="408" y="18"/>
      <point x="444" y="0"/>
      <point x="478" y="0" type="curve" smooth="yes"/>
      <point x="516" y="0" type="line"/>
      <point x="479" y="27" type="line"/>
      <point x="479" y="-46" type="line" smooth="yes"/>
      <point x="479" y="-105"/>
      <point x="507" y="-138"/>
    </contour>
  </outline>
</glyph>
<glyph name="Kaverticalstroke-cy" format="2">
  <advance width="834"/>
  <unicode hex="049C"/>
  <outline>
    <contour>
      <point x="165" y="-10" type="curve" smooth="yes"/>
      <point x="235" y="-10"/>
      <point x="272" y="29"/>
      <point x="272" y="99" type="curve" smooth="yes"/>
      <point x="272" y="262" type="line"/>
      <point x="309" y="262" type="line"/>
      <point x="309" y="165" type="line" smooth="yes"/>
      <point x="309" y="126"/>
      <point x="329" y="105"/>
      <point x="366" y="105" type="curve" smooth="yes"/>
      <point x="402" y="105"/>
      <point x="422" y="126"/>
      <point x="422" y="165" type="curve" smooth="yes"/>
      <point x="422" y="275" type="line"/>
      <point x="401" y="262" type="line"/>
      <point x="417" y="262" type="line" smooth="yes"/>
      <point x="472" y="262"/>
      <point x="502" y="241"/>
      <point x="523" y="195" type="curve" smooth="yes"/>
      <point x="585" y="57" type="line" smooth="yes"/>
      <point x="642" y="-70"/>
      <point x="845" y="-3"/>
      <point x="774" y="143" type="curve" smooth="yes"/>
      <point x="716" y="262" type="line" smooth="yes"/>
      <point x="668" y="361"/>
      <point x="609" y="405"/>
      <point x="512" y="425" type="curve"/>
      <point x="599" y="369" type="line"/>
      <point x="719" y="561" type="line" smooth="yes"/>
      <point x="798" y="687"/>
      <point x="620" y="781"/>
      <point x="550" y="660" type="curve" smooth="yes"/>
      <point x="418" y="432" type="line"/>
      <point x="420" y="432" type="line"/>
      <point x="422" y="432" type="line"/>
      <point x="422" y="536" type="line" smooth="yes"/>
      <point x="422" y="575"/>
      <point x="402" y="596"/>
      <point x="366" y="596" type="curve" smooth="yes"/>
      <point x="330" y="596"/>
      <point x="309" y="575"/>
      <point x="309" y="536" type="curve" smooth="yes"/>
      <point x="309" y="432" type="line"/>
      <point x="272" y="432" type="line"/>
      <point x="272" y="606" type="line" smooth="yes"/>
      <point x="272" y="676"/>
      <point x="234" y="715"/>
      <point x="165" y="715" type="curve" smooth="yes"/>
      <point x="96" y="715"/>
      <point x="57" y="676"/>
      <point x="57" y="606" type="curve" smooth="yes"/>
      <point x="57" y="99" type="line" smooth="yes"/>
      <point x="57" y="29"/>
      <point x="96" y="-10"/>
    </contour>
  </outline>
</glyph>
<glyph name="Kastroke-cy" format="2">
  <advance width="828"/>
  <unicode hex="049E"/>
  <outline>
    <contour>
      <point x="238" y="-10" type="curve" smooth="yes"/>
      <point x="308" y="-10"/>
      <point x="345" y="29"/>
      <point x="345" y="99" type="curve" smooth="yes"/>
      <point x="345" y="259" type="line"/>
      <point x="395" y="259" type="line" smooth="yes"/>
      <point x="450" y="259"/>
      <point x="480" y="241"/>
      <point x="501" y="195" type="curve" smooth="yes"/>
      <point x="563" y="57" type="line" smooth="yes"/>
      <point x="620" y="-70"/>
      <point x="823" y="-3"/>
      <point x="752" y="143" type="curve" smooth="yes"/>
      <point x="694" y="262" type="line" smooth="yes"/>
      <point x="646" y="361"/>
      <point x="587" y="405"/>
      <point x="490" y="425" type="curve"/>
      <point x="604" y="349" type="line"/>
      <point x="743" y="561" type="line" smooth="yes"/>
      <point x="824" y="685"/>
      <point x="650" y="781"/>
      <point x="576" y="660" type="curve" smooth="yes"/>
      <point x="414" y="394" type="line"/>
      <point x="454" y="433" type="line"/>
      <point x="345" y="433" type="line"/>
      <point x="345" y="505" type="line"/>
      <point x="383" y="505" type="line" smooth="yes"/>
      <point x="429" y="505"/>
      <point x="455" y="530"/>
      <point x="455" y="574" type="curve" smooth="yes"/>
      <point x="455" y="618"/>
      <point x="429" y="643"/>
      <point x="383" y="643" type="curve" smooth="yes"/>
      <point x="325" y="643" type="line"/>
      <point x="345" y="580" type="line"/>
      <point x="345" y="606" type="line" smooth="yes"/>
      <point x="345" y="676"/>
      <point x="307" y="715"/>
      <point x="238" y="715" type="curve" smooth="yes"/>
      <point x="169" y="715"/>
      <point x="130" y="676"/>
      <point x="130" y="606" type="curve" smooth="yes"/>
      <point x="130" y="580" type="line"/>
      <point x="150" y="643" type="line"/>
      <point x="52" y="643" type="line" smooth="yes"/>
      <point x="6" y="643"/>
      <point x="-20" y="618"/>
      <point x="-20" y="574" type="curve" smooth="yes"/>
      <point x="-20" y="530"/>
      <point x="6" y="505"/>
      <point x="52" y="505" type="curve" smooth="yes"/>
      <point x="130" y="505" type="line"/>
      <point x="130" y="99" type="line" smooth="yes"/>
      <point x="130" y="29"/>
      <point x="169" y="-10"/>
    </contour>
  </outline>
</glyph>
<glyph name="Kabashkir-cy" format="2">
  <advance width="879"/>
  <unicode hex="04A0"/>
  <outline>
    <contour>
      <point x="305" y="-10" type="curve" smooth="yes"/>
      <point x="375" y="-10"/>
      <point x="412" y="29"/>
      <point x="412" y="99" type="curve" smooth="yes"/>
      <point x="412" y="259" type="line"/>
      <point x="462" y="259" type="line" smooth="yes"/>
      <point x="517" y="259"/>
      <point x="547" y="241"/>
      <point x="568" y="195" type="curve" smooth="yes"/>
      <point x="630" y="57" type="line" smooth="yes"/>
      <point x="687" y="-70"/>
      <point x="890" y="-3"/>
      <point x="819" y="143" type="curve" smooth="yes"/>
      <point x="761" y="262" type="line" smooth="yes"/>
      <point x="713" y="361"/>
      <point x="654" y="405"/>
      <point x="557" y="425" type="curve"/>
      <point x="644" y="369" type="line"/>
      <point x="764" y="561" type="line" smooth="yes"/>
      <point x="843" y="687"/>
      <point x="664" y="781"/>
      <point x="595" y="660" type="curve" smooth="yes"/>
      <point x="454" y="414" type="line"/>
      <point x="481" y="433" type="line"/>
      <point x="412" y="433" type="line"/>
      <point x="412" y="596" type="line" smooth="yes"/>
      <point x="412" y="666"/>
      <point x="374" y="705"/>
      <point x="305" y="705" type="curve" smooth="yes"/>
      <point x="87" y="705" type="line" smooth="yes"/>
      <point x="29" y="705"/>
      <point x="-3" y="674"/>
      <point x="-3" y="618" type="curve" smooth="yes"/>
      <point x="-3" y="562"/>
      <point x="29" y="531"/>
      <point x="87" y="531" type="curve" smooth="yes"/>
      <point x="197" y="531" type="line"/>
      <point x="197" y="99" type="line" smooth="yes"/>
      <point x="197" y="29"/>
      <point x="236" y="-10"/>
    </contour>
  </outline>
</glyph>
<glyph name="kabashkir-cy" format="2">
  <advance width="708"/>
  <unicode hex="04A1"/>
  <outline>
    <contour>
      <point x="244" y="-10" type="curve" smooth="yes"/>
      <point x="311" y="-10"/>
      <point x="348" y="27"/>
      <point x="348" y="95" type="curve" smooth="yes"/>
      <point x="348" y="171" type="line"/>
      <point x="384" y="171" type="line" smooth="yes"/>
      <point x="405" y="171"/>
      <point x="420" y="163"/>
      <point x="433" y="137" type="curve" smooth="yes"/>
      <point x="479" y="48" type="line" smooth="yes"/>
      <point x="539" y="-68"/>
      <point x="719" y="11"/>
      <point x="658" y="129" type="curve" smooth="yes"/>
      <point x="617" y="208" type="line" smooth="yes"/>
      <point x="596" y="249"/>
      <point x="552" y="292"/>
      <point x="501" y="299" type="curve"/>
      <point x="537" y="232" type="line"/>
      <point x="621" y="360" type="line" smooth="yes"/>
      <point x="693" y="469"/>
      <point x="536" y="565"/>
      <point x="465" y="456" type="curve" smooth="yes"/>
      <point x="382" y="329" type="line"/>
      <point x="348" y="329" type="line"/>
      <point x="348" y="395" type="line" smooth="yes"/>
      <point x="348" y="459"/>
      <point x="313" y="494"/>
      <point x="249" y="494" type="curve" smooth="yes"/>
      <point x="90" y="494" type="line" smooth="yes"/>
      <point x="32" y="494"/>
      <point x="0" y="465"/>
      <point x="0" y="413" type="curve" smooth="yes"/>
      <point x="0" y="361"/>
      <point x="32" y="332"/>
      <point x="90" y="332" type="curve" smooth="yes"/>
      <point x="140" y="332" type="line"/>
      <point x="140" y="95" type="line" smooth="yes"/>
      <point x="140" y="27"/>
      <point x="177" y="-10"/>
    </contour>
  </outline>
</glyph>
<glyph name="Endescender-cy" format="2">
  <advance width="850"/>
  <unicode hex="04A2"/>
  <outline>
    <contour>
      <point x="745" y="-190" type="curve" smooth="yes"/>
      <point x="805" y="-190"/>
      <point x="837" y="-156"/>
      <point x="837" y="-95" type="curve" smooth="yes"/>
      <point x="837" y="82" type="line" smooth="yes"/>
      <point x="837" y="130"/>
      <point x="801" y="167"/>
      <point x="745" y="167" type="curve" smooth="yes"/>
      <point x="670" y="167" type="line"/>
      <point x="737" y="90" type="line"/>
      <point x="737" y="605" type="line" smooth="yes"/>
      <point x="737" y="676"/>
      <point x="699" y="715"/>
      <point x="630" y="715" type="curve" smooth="yes"/>
      <point x="561" y="715"/>
      <point x="522" y="676"/>
      <point x="522" y="605" type="curve" smooth="yes"/>
      <point x="522" y="445" type="line"/>
      <point x="272" y="445" type="line"/>
      <point x="272" y="605" type="line" smooth="yes"/>
      <point x="272" y="676"/>
      <point x="234" y="715"/>
      <point x="165" y="715" type="curve" smooth="yes"/>
      <point x="96" y="715"/>
      <point x="57" y="676"/>
      <point x="57" y="605" type="curve" smooth="yes"/>
      <point x="57" y="100" type="line" smooth="yes"/>
      <point x="57" y="29"/>
      <point x="96" y="-10"/>
      <point x="165" y="-10" type="curve" smooth="yes"/>
      <point x="235" y="-10"/>
      <point x="272" y="29"/>
      <point x="272" y="100" type="curve" smooth="yes"/>
      <point x="272" y="269" type="line"/>
      <point x="522" y="269" type="line"/>
      <point x="522" y="110" type="line" smooth="yes"/>
      <point x="522" y="39"/>
      <point x="560" y="0"/>
      <point x="630" y="0" type="curve" smooth="yes"/>
      <point x="652" y="0" type="line"/>
      <point x="652" y="-95" type="line" smooth="yes"/>
      <point x="652" y="-156"/>
      <point x="685" y="-190"/>
    </contour>
  </outline>
</glyph>
